<svg width="32" height="32" viewBox="0 0 32 32" fill="none" xmlns="http://www.w3.org/2000/svg">
<path d="M19.2077 25.2913C20.3588 25.0592 21.1069 23.9298 20.8767 22.7692L20.7749 22.2603C20.5403 21.0685 20.1064 19.9346 19.4999 18.9035H25.8749C27.0481 18.9035 27.9999 17.9437 27.9999 16.7608C27.9999 15.6314 27.1366 14.7074 26.0387 14.6226C26.3796 14.2432 26.5833 13.7388 26.5833 13.1897C26.5833 12.1451 25.8395 11.2747 24.8611 11.0872C25.0559 10.7613 25.1666 10.3819 25.1666 9.97569C25.1666 9.02489 24.5512 8.21692 23.7012 7.94016C23.7322 7.79285 23.7499 7.63662 23.7499 7.47592C23.7499 6.29299 22.7981 5.33325 21.6249 5.33325H18.371C17.5299 5.33325 16.7109 5.58323 16.0114 6.05194L14.3069 7.19916C13.1249 7.99373 12.4166 9.33289 12.4166 10.7658V12.4755V14.6181V15.7296C12.4166 17.0331 13.0054 18.2607 14.0103 19.0776L14.3379 19.3409C15.5111 20.2873 16.3124 21.6175 16.6046 23.0995L16.7064 23.6084C16.9366 24.769 18.0567 25.5234 19.2077 25.2913ZM6.74992 18.1892H9.58325C10.3668 18.1892 10.9999 17.5509 10.9999 16.7608V6.7617C10.9999 5.97159 10.3668 5.33325 9.58325 5.33325H6.74992C5.96632 5.33325 5.33325 5.97159 5.33325 6.7617V16.7608C5.33325 17.5509 5.96632 18.1892 6.74992 18.1892Z" fill="currentColor"/>
</svg>
