<svg width="25" height="24" viewBox="0 0 25 24" fill="none" xmlns="http://www.w3.org/2000/svg">
<path d="M17.6136 11.3878C19.5622 10.4731 20.5914 8.67446 20.5914 6.60907C20.5914 4.24083 19.261 2.43344 17.4439 1.6544C16.3082 1.15582 15.0751 1 13.4202 1H4.11364C3.77476 1 3.5 1.26385 3.5 1.58929V2.76786C3.5 3.09329 3.77476 3.35714 4.11364 3.35714H5.85953V20.6429H4.11364C3.77476 20.6429 3.5 20.9067 3.5 21.2321V22.4107C3.5 22.7361 3.77476 23 4.11364 23H13.842C15.1075 23 16.1783 22.9377 17.2817 22.5949C19.6504 21.8159 21.5 19.6345 21.5 16.7365C21.5 13.876 19.7626 11.8699 17.6136 11.3878ZM9.10444 3.55524H13.4201C14.3936 3.55524 15.1399 3.67987 15.7889 3.99151C16.7769 4.52913 17.297 5.6445 17.2812 6.94678C17.2591 8.78697 15.6689 10.255 13.7526 10.255H9.10444V3.55524ZM16.0161 20.1331C15.3996 20.3824 14.6208 20.4448 13.9718 20.4448H9.10444V12.8102H14.2314C16.6326 12.8102 18.1902 14.3059 18.1902 16.5807C18.1902 18.2323 17.3465 19.6034 16.0161 20.1331Z" fill="#201F1E"/>
</svg>
