<svg width="24" height="24" viewBox="0 0 24 24" fill="none" xmlns="http://www.w3.org/2000/svg">
<path d="M0 6.87524C0 6.39126 0.391016 6.00024 0.875 6.00024H3.5C3.98398 6.00024 4.375 6.39126 4.375 6.87524C4.375 7.35923 3.98398 7.75024 3.5 7.75024H3.0625V10.8127H9.1875V7.75024H8.75C8.26602 7.75024 7.875 7.35923 7.875 6.87524C7.875 6.39126 8.26602 6.00024 8.75 6.00024H11.375C11.859 6.00024 12.25 6.39126 12.25 6.87524C12.25 7.35923 11.859 7.75024 11.375 7.75024H10.9375V16.5002H11.375C11.859 16.5002 12.25 16.8913 12.25 17.3752C12.25 17.8592 11.859 18.2502 11.375 18.2502H8.75C8.26602 18.2502 7.875 17.8592 7.875 17.3752C7.875 16.8913 8.26602 16.5002 8.75 16.5002H9.1875V12.5627H3.0625V16.5002H3.5C3.98398 16.5002 4.375 16.8913 4.375 17.3752C4.375 17.8592 3.98398 18.2502 3.5 18.2502H0.875C0.391016 18.2502 0 17.8592 0 17.3752C0 16.8913 0.391016 16.5002 0.875 16.5002H1.3125V7.75024H0.875C0.391016 7.75024 0 7.35923 0 6.87524Z" fill="black"/>
<path d="M19.1574 7.75024C18.5695 7.75024 18.0035 7.98267 17.5879 8.40103L16.743 9.24321C16.4012 9.58501 15.8461 9.58501 15.5043 9.24321C15.1625 8.90142 15.1625 8.34634 15.5043 8.00454L16.3492 7.16235C17.0957 6.4186 18.1047 6.00024 19.1574 6.00024C21.3477 6.00024 23.125 7.77759 23.125 9.96782C23.125 11.0206 22.7066 12.0295 21.9629 12.7733L18.2387 16.5002H23.125C23.609 16.5002 24 16.8913 24 17.3752C24 17.8592 23.609 18.2502 23.125 18.2502H16.125C15.7723 18.2502 15.4523 18.037 15.3156 17.7088C15.1789 17.3807 15.2555 17.0061 15.5043 16.7545L20.7242 11.5374C21.1398 11.1217 21.375 10.5557 21.375 9.96782C21.375 8.74282 20.3824 7.75024 19.1574 7.75024Z" fill="black"/>
</svg>
