<svg width="24" height="24" viewBox="0 0 24 24" fill="none" xmlns="http://www.w3.org/2000/svg">
<g clip-path="url(#clip0_7521_92125)">
<path d="M0 6.87513C0 6.39114 0.391016 6.00013 0.875 6.00013H3.5C3.98398 6.00013 4.375 6.39114 4.375 6.87513C4.375 7.35911 3.98398 7.75013 3.5 7.75013H3.0625V10.8126H9.1875V7.75013H8.75C8.26602 7.75013 7.875 7.35911 7.875 6.87513C7.875 6.39114 8.26602 6.00013 8.75 6.00013H11.375C11.859 6.00013 12.25 6.39114 12.25 6.87513C12.25 7.35911 11.859 7.75013 11.375 7.75013H10.9375V16.5001H11.375C11.859 16.5001 12.25 16.8911 12.25 17.3751C12.25 17.8591 11.859 18.2501 11.375 18.2501H8.75C8.26602 18.2501 7.875 17.8591 7.875 17.3751C7.875 16.8911 8.26602 16.5001 8.75 16.5001H9.1875V12.5626H3.0625V16.5001H3.5C3.98398 16.5001 4.375 16.8911 4.375 17.3751C4.375 17.8591 3.98398 18.2501 3.5 18.2501H0.875C0.391016 18.2501 0 17.8591 0 17.3751C0 16.8911 0.391016 16.5001 0.875 16.5001H1.3125V7.75013H0.875C0.391016 7.75013 0 7.35911 0 6.87513Z" fill="black"/>
<path d="M20.418 7.247C20.623 6.8095 20.4371 6.28724 19.9996 6.08216C19.5621 5.87708 19.0398 6.06302 18.8348 6.50052L15.332 13.9408C15.2035 14.2115 15.2254 14.5286 15.384 14.7829C15.5426 15.0372 15.8242 15.1876 16.125 15.1876H22.25V17.3751C22.25 17.8591 22.641 18.2501 23.125 18.2501C23.609 18.2501 24 17.8591 24 17.3751V15.1876H24.875C25.359 15.1876 25.75 14.7966 25.75 14.3126C25.75 13.8286 25.359 13.4376 24.875 13.4376H24V9.50013C24 9.01614 23.609 8.62513 23.125 8.62513C22.641 8.62513 22.25 9.01614 22.25 9.50013V13.4376H17.5031L20.418 7.247Z" fill="black"/>
</g>
<defs>
<clipPath id="clip0_7521_92125">
<rect width="24" height="24" fill="white"/>
</clipPath>
</defs>
</svg>
