<svg width="24" height="25" viewBox="0 0 24 25" fill="none" xmlns="http://www.w3.org/2000/svg">
<path d="M8 7H20.185L16.598 3.414L18 2L24 8L18 14L16.598 12.585L20.182 9H8C6.4087 9 4.88258 9.63214 3.75736 10.7574C2.63214 11.8826 2 13.4087 2 15C2 16.5913 2.63214 18.1174 3.75736 19.2426C4.88258 20.3679 6.4087 21 8 21H16V23H8C5.87827 23 3.84344 22.1571 2.34315 20.6569C0.842855 19.1566 0 17.1217 0 15C0 12.8783 0.842855 10.8434 2.34315 9.34315C3.84344 7.84285 5.87827 7 8 7Z" fill="#212529"/>
</svg>
