<svg width="24" height="24" viewBox="0 0 24 24" fill="none" xmlns="http://www.w3.org/2000/svg">
<path d="M24 11.0125H13.956C13.512 10.8932 13.0659 10.7815 12.618 10.6775C9.81 10.0135 8.222 9.52755 8.222 7.25455C8.1992 6.86217 8.25729 6.46929 8.39268 6.10029C8.52806 5.7313 8.73784 5.39408 9.009 5.10955C9.85839 4.41105 10.9223 4.02616 12.022 4.01955C14.852 3.94955 16.157 4.90955 17.224 6.36955L18.839 5.18955C18.083 4.1039 17.0524 3.2384 15.8524 2.68146C14.6525 2.12452 13.3261 1.8961 12.009 2.01955C10.391 2.02988 8.83018 2.61909 7.609 3.68055C7.14615 4.15005 6.78438 4.70938 6.54601 5.32407C6.30763 5.93875 6.1977 6.59575 6.223 7.25455C6.17915 7.97543 6.31456 8.69596 6.61715 9.35173C6.91973 10.0075 7.38006 10.5781 7.957 11.0125H0V13.0125H13.652C15.619 13.5825 16.795 14.3245 16.825 16.3705C16.8575 16.8076 16.7975 17.2466 16.649 17.6589C16.5005 18.0712 16.2667 18.4476 15.963 18.7635C14.9048 19.5977 13.5901 20.0391 12.243 20.0125C11.2375 19.9834 10.2518 19.726 9.36046 19.2598C8.46911 18.7936 7.69545 18.1308 7.098 17.3215L5.565 18.6055C6.34173 19.6407 7.3439 20.4854 8.49556 21.0757C9.64721 21.666 10.9181 21.9864 12.212 22.0125H12.312C14.1588 22.0338 15.9512 21.3879 17.36 20.1935C17.86 19.6894 18.2487 19.0861 18.501 18.4224C18.7534 17.7587 18.8637 17.0495 18.825 16.3405C18.8623 15.1278 18.4531 13.9435 17.675 13.0125H24V11.0125Z" fill="#212529"/>
</svg>
