<svg width="24" height="24" viewBox="0 0 24 24" fill="none" xmlns="http://www.w3.org/2000/svg">
<path d="M18.2857 1.6V3.2C18.2857 3.53135 18.0219 3.8 17.6964 3.8H6.30357C5.97814 3.8 5.71429 3.53135 5.71429 3.2V1.6C5.71429 1.26865 5.97814 1 6.30357 1H17.6964C18.0219 1 18.2857 1.26865 18.2857 1.6ZM1.58929 10.2H22.4107C22.7361 10.2 23 9.93135 23 9.6V8C23 7.66865 22.7361 7.4 22.4107 7.4H1.58929C1.26385 7.4 1 7.66865 1 8V9.6C1 9.93135 1.26385 10.2 1.58929 10.2ZM1.58929 23H22.4107C22.7361 23 23 22.7313 23 22.4V20.8C23 20.4687 22.7361 20.2 22.4107 20.2H1.58929C1.26385 20.2 1 20.4687 1 20.8V22.4C1 22.7313 1.26385 23 1.58929 23ZM17.6964 13.8H6.30357C5.97814 13.8 5.71429 14.0687 5.71429 14.4V16C5.71429 16.3314 5.97814 16.6 6.30357 16.6H17.6964C18.0219 16.6 18.2857 16.3314 18.2857 16V14.4C18.2857 14.0687 18.0219 13.8 17.6964 13.8Z" fill="#201F1E"/>
</svg>
