<svg width="24" height="24" viewBox="0 0 24 24" fill="none" xmlns="http://www.w3.org/2000/svg">
<path d="M8.85714 3.2V1.6C8.85714 1.26865 9.121 1 9.44643 1H22.4107C22.7361 1 23 1.26865 23 1.6V3.2C23 3.53135 22.7361 3.8 22.4107 3.8H9.44643C9.121 3.8 8.85714 3.53135 8.85714 3.2ZM1.58929 10.2H22.4107C22.7361 10.2 23 9.93135 23 9.6V8C23 7.66865 22.7361 7.4 22.4107 7.4H1.58929C1.26385 7.4 1 7.66865 1 8V9.6C1 9.93135 1.26385 10.2 1.58929 10.2ZM1.58929 23H22.4107C22.7361 23 23 22.7314 23 22.4V20.8C23 20.4687 22.7361 20.2 22.4107 20.2H1.58929C1.26385 20.2 1 20.4687 1 20.8V22.4C1 22.7314 1.26385 23 1.58929 23ZM9.44643 16.6H22.4107C22.7361 16.6 23 16.3314 23 16V14.4C23 14.0687 22.7361 13.8 22.4107 13.8H9.44643C9.121 13.8 8.85714 14.0687 8.85714 14.4V16C8.85714 16.3314 9.121 16.6 9.44643 16.6Z" fill="#201F1E"/>
</svg>
