<svg width="24" height="24" viewBox="0 0 24 24" fill="none" xmlns="http://www.w3.org/2000/svg">
<path d="M4.5 18.1957H19.5V19.5H4.5V18.1957ZM12 16.2391C10.8397 16.2391 9.72688 15.7582 8.90641 14.902C8.08594 14.0459 7.625 12.8847 7.625 11.6739V4.5H8.875V11.6739C8.875 12.5387 9.20424 13.3682 9.79029 13.9797C10.3763 14.5912 11.1712 14.9348 12 14.9348C12.8288 14.9348 13.6237 14.5912 14.2097 13.9797C14.7958 13.3682 15.125 12.5387 15.125 11.6739V4.5H16.375V11.6739C16.375 12.8847 15.9141 14.0459 15.0936 14.902C14.2731 15.7582 13.1603 16.2391 12 16.2391Z" fill="currentColor"/>
</svg>
