<svg width="24" height="24" viewBox="0 0 24 24" fill="none" xmlns="http://www.w3.org/2000/svg">
<path d="M16 6.5H3.815L7.402 2.914L6 1.5L0 7.5L6 13.5L7.402 12.085L3.818 8.5H16C17.5913 8.5 19.1174 9.13214 20.2426 10.2574C21.3679 11.3826 22 12.9087 22 14.5C22 16.0913 21.3679 17.6174 20.2426 18.7426C19.1174 19.8679 17.5913 20.5 16 20.5H8V22.5H16C18.1217 22.5 20.1566 21.6571 21.6569 20.1569C23.1571 18.6566 24 16.6217 24 14.5C24 12.3783 23.1571 10.3434 21.6569 8.84315C20.1566 7.34285 18.1217 6.5 16 6.5Z" fill="#212529"/>
</svg>
