<svg width="24" height="24" viewBox="0 0 24 24" fill="none" xmlns="http://www.w3.org/2000/svg">
<path d="M1 12C1 5.92422 5.92422 1 12 1C18.0758 1 23 5.92422 23 12C23 18.0758 18.0758 23 12 23C5.92422 23 1 18.0758 1 12ZM8.51953 9.9418L10.5434 11.9613L8.51953 14.0195C8.11992 14.4234 8.11992 15.0766 8.51953 15.4418C8.92344 15.8801 9.57656 15.8801 9.9418 15.4418L11.9613 13.4566L14.0195 15.4418C14.4234 15.8801 15.0766 15.8801 15.4418 15.4418C15.8801 15.0766 15.8801 14.4234 15.4418 14.0195L13.4566 11.9613L15.4418 9.9418C15.8801 9.57656 15.8801 8.92344 15.4418 8.51953C15.0766 8.11992 14.4234 8.11992 14.0195 8.51953L11.9613 10.5434L9.9418 8.51953C9.57656 8.11992 8.92344 8.11992 8.51953 8.51953C8.11992 8.92344 8.11992 9.57656 8.51953 9.9418Z" fill="currentColor"/>
</svg>
