<svg width="24" height="24" viewBox="0 0 24 24" fill="none" xmlns="http://www.w3.org/2000/svg">
<path d="M22 12C22 17.5234 17.5234 22 12 22C6.47656 22 2 17.5234 2 12C2 6.47656 6.47656 2 12 2C17.5234 2 22 6.47656 22 12ZM12.9375 13.4336V5.4375C12.9375 4.91992 12.5195 4.5 12 4.5C11.4805 4.5 11.0625 4.91992 11.0625 5.4375V13.4336C10.1445 13.8008 9.5 14.6992 9.5 15.75C9.5 17.1289 10.6211 18.25 12 18.25C13.3789 18.25 14.5 17.1289 14.5 15.75C14.5 14.6992 13.8555 13.8008 12.9375 13.4336ZM7.625 8.875C8.31641 8.875 8.875 8.31641 8.875 7.625C8.875 6.93359 8.31641 6.375 7.625 6.375C6.93359 6.375 6.375 6.93359 6.375 7.625C6.375 8.31641 6.93359 8.875 7.625 8.875ZM5.75 10.75C5.05977 10.75 4.5 11.3086 4.5 12C4.5 12.6914 5.05977 13.25 5.75 13.25C6.44141 13.25 7 12.6914 7 12C7 11.3086 6.44141 10.75 5.75 10.75ZM18.25 13.25C18.9414 13.25 19.5 12.6914 19.5 12C19.5 11.3086 18.9414 10.75 18.25 10.75C17.5586 10.75 17 11.3086 17 12C17 12.6914 17.5586 13.25 18.25 13.25ZM16.375 6.375C15.6836 6.375 15.125 6.93359 15.125 7.625C15.125 8.31641 15.6836 8.875 16.375 8.875C17.0664 8.875 17.625 8.31641 17.625 7.625C17.625 6.93359 17.0664 6.375 16.375 6.375Z" fill="currentColor"/>
</svg>
