<svg width="16" height="16" viewBox="0 0 16 16" fill="none" xmlns="http://www.w3.org/2000/svg">
<path d="M4.38889 8C4.38889 9.10357 3.5184 10 2.44444 10C1.37049 10 0.5 9.10357 0.5 8C0.5 6.89643 1.37049 6 2.44444 6C3.5184 6 4.38889 6.89643 4.38889 8ZM9.94444 8C9.94444 9.10357 9.07292 10 8 10C6.92708 10 6.05556 9.10357 6.05556 8C6.05556 6.89643 6.92708 6 8 6C9.07292 6 9.94444 6.89643 9.94444 8ZM11.6111 8C11.6111 6.89643 12.4826 6 13.5556 6C14.6285 6 15.5 6.89643 15.5 8C15.5 9.10357 14.6285 10 13.5556 10C12.4826 10 11.6111 9.10357 11.6111 8Z" fill="currentColor"/>
</svg>