<svg width="24" height="24" viewBox="0 0 24 24" fill="none" xmlns="http://www.w3.org/2000/svg">
<path d="M16.158 23V14.486H19.0094L19.436 11.1762H16.158V9.06422C16.158 8.106 16.4244 7.45211 17.7982 7.45211H19.5509V4.49189C18.7024 4.40187 17.8497 4.35821 16.9964 4.36111C14.4701 4.36111 12.7407 5.90356 12.7407 8.73667V11.1762H9.88311V14.486H12.7407V23H2.22222C1.89807 23 1.58719 22.8712 1.35798 22.642C1.12877 22.4128 1 22.1019 1 21.7778V2.22222C1 1.89807 1.12877 1.58719 1.35798 1.35798C1.58719 1.12877 1.89807 1 2.22222 1H21.7778C22.1019 1 22.4128 1.12877 22.642 1.35798C22.8712 1.58719 23 1.89807 23 2.22222V21.7778C23 22.1019 22.8712 22.4128 22.642 22.642C22.4128 22.8712 22.1019 23 21.7778 23H16.158Z" fill="currentColor"/>
</svg>
