<svg width="24" height="24" viewBox="0 0 24 24" fill="none" xmlns="http://www.w3.org/2000/svg">
<path d="M22.9933 11.9805C22.9933 12.6836 22.4203 13.2344 21.771 13.2344H20.5487L20.5755 19.4883C20.5755 19.5977 20.5678 19.6992 20.5564 19.8047V20.4375C20.5564 21.3008 19.8727 22 19.0285 22H18.4174C18.3754 22 18.3334 21.9648 18.2913 21.9961C18.2379 21.9648 18.1844 22 18.1309 22H15.9728C15.1287 22 14.445 21.3008 14.445 20.4375V17C14.445 16.3086 13.8988 15.75 13.2227 15.75H10.7782C10.1021 15.75 9.55591 16.3086 9.55591 17V20.4375C9.55591 21.3008 8.8722 22 8.02807 22H5.89291C5.83562 22 5.77832 21.9961 5.72103 21.9922C5.67519 21.9961 5.62936 22 5.58352 22H4.97239C4.12864 22 3.44455 21.3008 3.44455 20.4375V16.0625C3.44455 16.0273 3.44569 15.9883 3.44798 15.9531V13.2344H2.22418C1.53551 13.2344 1 12.6836 1 11.9805C1 11.6289 1.11474 11.3164 1.38234 11.043L11.1754 2.31313C11.4428 2.03914 11.7484 2 12.0157 2C12.2831 2 12.5887 2.07828 12.8217 2.27398L22.5731 11.043C22.8787 11.3164 23.0353 11.6289 22.9933 11.9805Z" fill="currentColor"/>
</svg>
