<svg width="16" height="16" viewBox="0 0 16 16" fill="none" xmlns="http://www.w3.org/2000/svg">
<path d="M8.85676 1.875V2.4C10.812 2.80551 12.2851 4.57109 12.2851 6.6875V7.20156C12.2851 8.48945 12.7485 9.72812 13.5842 10.6906L13.7824 10.9176C14.0074 11.1773 14.0636 11.5437 13.9243 11.8582C13.7851 12.1727 13.4797 12.375 13.1422 12.375H2.85709C2.51961 12.375 2.21349 12.1727 2.07523 11.8582C1.93697 11.5437 1.99227 11.1773 2.21652 10.9176L2.41515 10.6906C3.25189 9.72812 3.71418 8.48945 3.71418 7.20156V6.6875C3.71418 4.57109 5.16321 2.80551 7.14257 2.4V1.875C7.14257 1.39184 7.52558 1 7.99966 1C8.47374 1 8.85676 1.39184 8.85676 1.875ZM7.99966 15C7.54433 15 7.10775 14.8168 6.78634 14.4887C6.46492 14.1605 6.28547 13.6902 6.28547 13.25H9.71385C9.71385 13.6902 9.5344 14.1605 9.21299 14.4887C8.89158 14.8168 8.43089 15 7.99966 15Z" fill="currentColor"/>
</svg>
