<svg width="16" height="16" viewBox="0 0 16 16" fill="none" xmlns="http://www.w3.org/2000/svg">
<path d="M8 1C4.13359 1 1 4.13359 1 8C1 11.8664 4.13359 15 8 15C11.8664 15 15 11.8664 15 8C15 4.13359 11.8664 1 8 1ZM8 13.6875C4.86367 13.6875 2.3125 11.1361 2.3125 8C2.3125 4.86395 4.86367 2.3125 8 2.3125C11.1363 2.3125 13.6875 4.86395 13.6875 8C13.6875 11.1361 11.1363 13.6875 8 13.6875ZM8 10.1875C7.50781 10.1875 7.125 10.5703 7.125 11.0625C7.125 11.5547 7.4832 11.9375 8 11.9375C8.46758 11.9375 8.875 11.5547 8.875 11.0625C8.875 10.5703 8.46758 10.1875 8 10.1875ZM8.90508 4.5H7.50781C6.44141 4.5 5.59375 5.34766 5.59375 6.41406C5.59375 6.76953 5.89453 7.07031 6.25 7.07031C6.60547 7.07031 6.90625 6.76953 6.90625 6.41406C6.90625 6.08594 7.15508 5.8125 7.4832 5.8125H8.88047C9.2332 5.8125 9.53125 6.08594 9.53125 6.41406C9.53125 6.63281 9.42188 6.79961 9.23047 6.90898L7.67188 7.86328C7.45312 8 7.34375 8.21875 7.34375 8.4375V8.875C7.34375 9.23047 7.64453 9.53125 8 9.53125C8.35547 9.53125 8.65625 9.23047 8.65625 8.875V8.82031L9.88945 8.05469C10.4637 7.69922 10.8191 7.07031 10.8191 6.41406C10.8438 5.34766 9.99609 4.5 8.90508 4.5Z" fill="currentColor"/>
</svg>
