<svg width="24" height="24" viewBox="0 0 24 24" fill="none" xmlns="http://www.w3.org/2000/svg">
<path d="M6.15628 10.7126C6.42905 9.9827 6.87185 9.29636 7.49531 8.71045C9.70931 6.61793 13.2978 6.61793 15.5118 8.71045L16.1175 9.28631H14.3357C13.7087 9.28631 13.2021 9.76508 13.2021 10.3577C13.2021 10.9503 13.7087 11.429 14.3357 11.429H18.8523H18.8664C19.4934 11.429 20 10.9503 20 10.3577V6.07221C20 5.4796 19.4934 5.00084 18.8664 5.00084C18.2394 5.00084 17.7329 5.4796 17.7329 6.07221V7.7864L17.1129 7.19714C14.0133 4.26762 8.99021 4.26762 5.8906 7.19714C5.02626 8.01406 4.40279 8.97495 4.02021 10.0028C3.81121 10.5619 4.12294 11.1713 4.71098 11.3688C5.29902 11.5663 5.94728 11.2717 6.15628 10.7159V10.7126ZM3.81475 13.6153C3.63763 13.6655 3.4676 13.7559 3.32944 13.8898C3.18775 14.0238 3.0921 14.1845 3.04251 14.3586C3.03188 14.3988 3.02125 14.4423 3.01417 14.4858C3.00354 14.5427 3 14.5996 3 14.6565V18.9286C3 19.5212 3.50656 20 4.13357 20C4.76058 20 5.26714 19.5212 5.26714 18.9286V17.2178L5.8906 17.8037C8.99021 20.7299 14.0133 20.7299 17.1094 17.8037C17.9737 16.9868 18.6007 16.0259 18.9833 15.0014C19.1923 14.4423 18.8806 13.8329 18.2926 13.6354C17.7045 13.4379 17.0563 13.7325 16.8473 14.2883C16.5745 15.0181 16.1317 15.7045 15.5082 16.2904C13.2942 18.3829 9.70577 18.3829 7.49177 16.2904L7.48823 16.287L6.88248 15.7145H8.66785C9.29485 15.7145 9.80142 15.2358 9.80142 14.6432C9.80142 14.0506 9.29485 13.5718 8.66785 13.5718H4.14774C4.09106 13.5718 4.03438 13.5751 3.9777 13.5818C3.92103 13.5885 3.86789 13.5986 3.81475 13.6153Z" fill="currentColor"/>
</svg>
