<svg width="16" height="16" viewBox="0 0 16 16" fill="none" xmlns="http://www.w3.org/2000/svg">
<path d="M14.9599 5.55547C15.0556 5.79063 14.9744 6.05586 14.7771 6.22813L13.5209 7.30547C13.5528 7.53242 13.5702 7.76484 13.5702 8C13.5702 8.23516 13.5528 8.46758 13.5209 8.69453L14.7771 9.77187C14.9744 9.94414 15.0556 10.2094 14.9599 10.4445C14.8322 10.7699 14.6785 11.0844 14.5044 11.3824L14.368 11.6039C14.1766 11.9047 13.9619 12.1891 13.7269 12.4598C13.5528 12.6539 13.2714 12.7223 13.0161 12.6457L11.4003 12.159C11.0115 12.4406 10.556 12.6758 10.1238 12.8562L9.76115 14.4176C9.70313 14.6637 9.50006 14.8387 9.23316 14.9043C8.83281 14.9672 8.42086 15 7.9741 15C7.57956 15 7.1676 14.9672 6.76726 14.9043C6.50036 14.8387 6.29729 14.6637 6.23926 14.4176L5.87663 12.8562C5.41826 12.6758 4.98891 12.4406 4.60016 12.159L2.98543 12.6457C2.72898 12.7223 2.44612 12.6539 2.27438 12.4598C2.03911 12.1891 1.82443 11.9047 1.63296 11.6039L1.49719 11.3824C1.32109 11.0844 1.16792 10.7699 1.0394 10.4445C0.945404 10.2094 1.0246 9.94414 1.22362 9.77187L2.47862 8.69453C2.4467 8.46758 2.43017 8.23516 2.43017 8C2.43017 7.76484 2.4467 7.53242 2.47862 7.30547L1.22362 6.22813C1.0246 6.05586 0.945404 5.79336 1.0394 5.55547C1.16792 5.23008 1.32138 4.91563 1.49719 4.61758L1.63267 4.39609C1.82443 4.09531 2.03911 3.81094 2.27438 3.5416C2.44612 3.34609 2.72898 3.27828 2.98543 3.35539L4.60016 3.84102C4.98891 3.55828 5.41826 3.32313 5.87663 3.14457L6.23926 1.58324C6.29729 1.33496 6.50036 1.13781 6.76726 1.09598C7.1676 1.03284 7.57956 1 8.00021 1C8.42086 1 8.83281 1.03284 9.23316 1.09598C9.50006 1.13781 9.70313 1.33496 9.76115 1.58324L10.1238 3.14457C10.556 3.32313 11.0115 3.55828 11.4003 3.84102L13.0161 3.35539C13.2714 3.27828 13.5528 3.34609 13.7269 3.5416C13.9619 3.81094 14.1766 4.09531 14.368 4.39609L14.5044 4.61758C14.6785 4.91563 14.8322 5.23008 14.9599 5.55547ZM8.00021 10.1875C9.28248 10.1875 10.3211 9.20859 10.3211 7.97539C10.3211 6.79141 9.28248 5.78789 8.00021 5.78789C6.71794 5.78789 5.67936 6.79141 5.67936 7.97539C5.67936 9.20859 6.71794 10.1875 8.00021 10.1875Z" fill="currentColor"/>
</svg>
