<svg width="22" height="21" viewBox="0 0 22 21" fill="none" xmlns="http://www.w3.org/2000/svg">
<g clip-path="url(#clip0_5827_88942)">
<path d="M13.3763 0.88001C13.1483 0.49601 12.7283 0.26001 12.2803 0.26001C11.8323 0.26001 11.4123 0.49601 11.1843 0.88001L7.34425 7.28001C7.10825 7.67601 7.10025 8.16801 7.32825 8.56801C7.55625 8.96801 7.98025 9.21601 8.44025 9.21601H16.1203C16.5803 9.21601 17.0083 8.96801 17.2323 8.56801C17.4563 8.16801 17.4523 7.67601 17.2163 7.28001L13.3763 0.88001ZM12.2803 12.74V18.5C12.2803 19.384 12.9963 20.1 13.8803 20.1H19.6403C20.5243 20.1 21.2403 19.384 21.2403 18.5V12.74C21.2403 11.856 20.5243 11.14 19.6403 11.14H13.8803C12.9963 11.14 12.2803 11.856 12.2803 12.74ZM5.88025 20.74C8.70825 20.74 11.0003 18.448 11.0003 15.62C11.0003 12.792 8.70825 10.5 5.88025 10.5C3.05225 10.5 0.760254 12.792 0.760254 15.62C0.760254 18.448 3.05225 20.74 5.88025 20.74Z" fill="currentColor"/>
</g>
<defs>
<clipPath id="clip0_5827_88942">
<rect width="20.48" height="20.48" fill="white" transform="translate(0.76001 0.26001)"/>
</clipPath>
</defs>
</svg>
