<svg width="24" height="24" viewBox="0 0 24 24" fill="none" xmlns="http://www.w3.org/2000/svg">
<path d="M13.75 5C14.234 5 14.625 5.39184 14.625 5.875V6.75V6.7541C15.6805 6.81316 16.602 7.50168 16.9547 8.5082L17.9172 11.2562C18.5516 11.5188 19 12.1449 19 12.875V18.125C19 18.609 18.609 19 18.125 19H17.25C16.766 19 16.375 18.609 16.375 18.125V16.8125H7.625V18.125C7.625 18.609 7.23398 19 6.75 19H5.875C5.39184 19 5 18.609 5 18.125V12.875C5 12.1449 5.44734 11.5188 6.08309 11.2562L7.04531 8.5082C7.39805 7.50168 8.31953 6.81316 9.375 6.7541V6.75V5.875C9.375 5.39184 9.76602 5 10.25 5H13.75ZM9.52266 8.5C9.15078 8.5 8.81992 8.73516 8.69687 9.08516L7.9832 11.125H16.0168L15.3031 9.08516C15.1801 8.73516 14.8492 8.5 14.4773 8.5H9.52266ZM7.625 14.625C8.10898 14.625 8.5 14.234 8.5 13.75C8.5 13.266 8.10898 12.875 7.625 12.875C7.14102 12.875 6.75 13.266 6.75 13.75C6.75 14.234 7.14102 14.625 7.625 14.625ZM16.375 12.875C15.891 12.875 15.5 13.266 15.5 13.75C15.5 14.234 15.891 14.625 16.375 14.625C16.859 14.625 17.25 14.234 17.25 13.75C17.25 13.266 16.859 12.875 16.375 12.875Z" fill="currentColor"/>
</svg>
