<svg width="24" height="24" viewBox="0 0 24 24" fill="none" xmlns="http://www.w3.org/2000/svg">
<path d="M22.9989 5.1368C22.175 5.50356 21.3012 5.74443 20.4065 5.85143C21.3495 5.28389 22.0553 4.39068 22.3924 3.33826C21.5074 3.86826 20.5371 4.2397 19.5258 4.44062C18.8465 3.70924 17.9461 3.22418 16.9646 3.06086C15.9831 2.89754 14.9755 3.0651 14.0984 3.5375C13.2213 4.0099 12.5239 4.76067 12.1145 5.67309C11.7052 6.58551 11.6069 7.60846 11.8349 8.58291C10.0401 8.49239 8.2844 8.02306 6.68163 7.2054C5.07885 6.38774 3.66488 5.24003 2.5315 3.83677C2.13032 4.53017 1.9195 5.31842 1.92062 6.12078C1.92062 7.69559 2.71713 9.08685 3.92808 9.9014C3.21145 9.8787 2.51059 9.68395 1.88393 9.33339V9.38986C1.88414 10.4387 2.24481 11.4552 2.90476 12.2669C3.56472 13.0787 4.48335 13.6358 5.50491 13.8439C4.83965 14.0253 4.14211 14.052 3.46507 13.922C3.75309 14.8248 4.31447 15.6144 5.0706 16.1801C5.82672 16.7459 6.73974 17.0595 7.68181 17.0771C6.74551 17.8171 5.67346 18.3641 4.52695 18.6868C3.38044 19.0096 2.18195 19.1018 1 18.9582C3.06325 20.2934 5.46508 21.0023 7.91817 21C16.2211 21 20.7616 14.0784 20.7616 8.07571C20.7616 7.88022 20.7562 7.68255 20.7475 7.48923C21.6313 6.84646 22.3941 6.05021 23 5.13788L22.9989 5.1368Z" fill="currentColor"/>
</svg>
