<svg width="24" height="24" viewBox="0 0 24 24" fill="none" xmlns="http://www.w3.org/2000/svg">
<path d="M14.1429 14.0625H9.85714C5.51786 14.0625 2 17.4484 2 21.625C2 22.3843 2.63973 23 3.42857 23H20.5714C21.3603 23 22 22.3843 22 21.625C22 17.4484 18.4821 14.0625 14.1429 14.0625ZM4.18705 20.9375C4.53973 18.2262 6.94643 16.125 9.85714 16.125H14.1429C17.0518 16.125 19.4598 18.2283 19.8125 20.9375H4.18705ZM12 12C15.1558 12 17.7143 9.53746 17.7143 6.5C17.7143 3.46254 15.1558 1 12 1C8.8442 1 6.28571 3.46254 6.28571 6.5C6.28571 9.53789 8.84375 12 12 12ZM12 3.0625C13.9692 3.0625 15.5714 4.60465 15.5714 6.5C15.5714 8.39535 13.9692 9.9375 12 9.9375C10.0308 9.9375 8.42857 8.39492 8.42857 6.5C8.42857 4.60465 10.0312 3.0625 12 3.0625Z" fill="currentColor"/>
</svg>
