<svg width="25" height="25" viewBox="0 0 25 25" fill="none" xmlns="http://www.w3.org/2000/svg">
<path d="M13.3634 3.02242C13.8496 3.24227 14.1625 3.72426 14.1625 4.25698V20.4923C14.1625 21.025 13.8496 21.507 13.3634 21.7269C12.8772 21.9467 12.3064 21.8579 11.909 21.5028L6.20548 16.4335H3.33894C1.84648 16.4335 0.633057 15.2201 0.633057 13.7276V11.0217C0.633057 9.52923 1.84648 8.31581 3.33894 8.31581H6.20548L11.909 3.2465C12.3064 2.89135 12.8772 2.80679 13.3634 3.02242ZM20.6354 6.075C22.4619 7.56324 23.6331 9.83365 23.6331 12.3746C23.6331 14.9156 22.4619 17.1861 20.6354 18.6743C20.2 19.0294 19.5615 18.9618 19.2064 18.5263C18.8513 18.0908 18.9189 17.4524 19.3544 17.0973C20.7285 15.9811 21.6036 14.2815 21.6036 12.3746C21.6036 10.4678 20.7285 8.7682 19.3544 7.6478C18.9189 7.29265 18.8555 6.65423 19.2064 6.21875C19.5573 5.78327 20.2 5.71985 20.6354 6.07077V6.075ZM18.0775 9.22482C18.9865 9.96894 19.5742 11.102 19.5742 12.3746C19.5742 13.6473 18.9865 14.7803 18.0775 15.5245C17.6421 15.8796 17.0036 15.812 16.6485 15.3765C16.2934 14.941 16.361 14.3026 16.7965 13.9474C17.2531 13.5754 17.5448 13.0088 17.5448 12.3746C17.5448 11.7405 17.2531 11.1739 16.7965 10.7976C16.361 10.4425 16.2976 9.80405 16.6485 9.36857C16.9994 8.93309 17.6421 8.86967 18.0775 9.22059V9.22482Z" fill="currentColor"/>
</svg>
