<svg width="25" height="25" viewBox="0 0 25 25" fill="none" xmlns="http://www.w3.org/2000/svg">
<path d="M2.02739 3.35884C1.65364 3.06415 1.11098 3.13243 0.816296 3.50618C0.521608 3.87993 0.58989 4.42259 0.96364 4.71727L22.2386 21.3923C22.6124 21.687 23.155 21.6187 23.4497 21.2449C23.7444 20.8712 23.6761 20.3285 23.3024 20.0338L20.1399 17.5541C21.5774 16.2927 22.483 14.4384 22.483 12.3756C22.483 10.2157 21.4875 8.28587 19.935 7.02087C19.5649 6.71899 19.0222 6.77649 18.7204 7.14665C18.4185 7.51681 18.476 8.05946 18.8461 8.36134C20.0141 9.31009 20.758 10.7548 20.758 12.3756C20.758 13.9963 20.0141 15.441 18.8461 16.3934C18.8138 16.4185 18.785 16.4473 18.7599 16.476L17.193 15.247C17.3907 15.2506 17.5919 15.1895 17.7572 15.0529C18.5335 14.4204 19.033 13.4573 19.033 12.3756C19.033 11.2938 18.5335 10.3307 17.7608 9.69821C17.3907 9.39634 16.848 9.45384 16.5461 9.82399C16.2443 10.1941 16.3018 10.7368 16.6719 11.0387C17.06 11.3549 17.308 11.8365 17.308 12.3756C17.308 12.9146 17.06 13.3962 16.6719 13.716C16.3988 13.9388 16.2982 14.291 16.3844 14.6109L14.433 13.0835V5.47556C14.433 5.02274 14.1671 4.61306 13.7538 4.42618C13.3405 4.23931 12.8554 4.31477 12.5175 4.61665L8.35239 8.31821L2.02739 3.35884ZM2.93301 11.2256V13.5256C2.93301 14.7941 3.96442 15.8256 5.23301 15.8256H7.66958L12.5175 20.1345C12.8554 20.4363 13.3405 20.5082 13.7538 20.3249C14.1671 20.1416 14.433 19.7284 14.433 19.2756V17.4966L4.00395 9.28134C3.36067 9.68743 2.93301 10.4062 2.93301 11.2256Z" fill="currentColor"/>
</svg>
