<svg width="50" height="50" viewBox="0 0 50 50" fill="none" xmlns="http://www.w3.org/2000/svg">
<g clip-path="url(#clip0_529_73509)">
<path d="M22.5032 23.0871C22.551 23.6605 22.6048 24.232 22.6686 24.8035C22.6985 25.0702 22.7304 25.3368 22.7642 25.6035C22.7782 25.7078 22.7941 25.8101 22.8081 25.9143C22.9516 26.8848 23.1209 27.8533 23.3441 28.8098C23.4079 29.0845 23.4776 29.3592 23.5514 29.6339C23.5613 29.6038 23.5713 29.5737 23.5812 29.5437C24.0156 28.1822 24.3564 26.7886 24.6533 25.389C25.3288 22.2068 25.7353 18.9765 26.369 15.7843C26.6898 14.1681 27.0206 12.5079 27.6283 10.9719C28.1763 9.58434 28.8578 8.22485 30.3782 7.73158C33.2815 6.79116 34.6465 10.3142 35.306 12.4136C36.0792 14.8759 36.6073 17.4165 37.219 19.9229C37.3346 20.4002 37.4541 20.8774 37.5757 21.3546C38.2592 18.0421 38.6119 14.6233 39.8872 11.4912C39.8971 11.4672 39.9071 11.4431 39.9171 11.4191L28.7223 4.89228C27.5586 4.21454 25.9744 3.92379 24.448 4.01803C24.4002 4.11027 24.3544 4.20251 24.3106 4.29675C24.2707 4.37896 24.2348 4.46318 24.197 4.54539C24.0336 4.96045 23.8801 5.38154 23.7486 5.80864C23.4318 6.82725 23.1807 7.86593 22.9854 8.91462C22.8798 9.47807 22.7862 10.0455 22.7065 10.615C22.7065 10.617 22.7065 10.619 22.7065 10.621C22.6905 10.7453 22.6746 10.8676 22.6606 10.992C22.6268 11.2907 22.5929 11.5895 22.563 11.8883C22.4434 13.1154 22.3637 14.3446 22.3239 15.5778C22.2442 18.0802 22.298 20.5906 22.5052 23.0871H22.5032Z" fill="#115ef6"/>
<path d="M17.4757 15.4214C17.5833 12.5259 17.8045 9.45002 18.484 6.5285L9.67646 11.6858C7.63398 12.8788 6 15.7963 6 18.1724V18.8763L20.4408 34.5927C19.4963 33.3435 19.03 31.615 18.6853 30.1091C17.5913 25.3409 17.2944 20.2999 17.4757 15.4214Z" fill="#115ef6"/>
<path d="M9.67646 38.2721L21.3096 45.0656C23.3541 46.2567 26.6878 46.2567 28.7303 45.0656L40.2638 38.2721C42.3062 37.0811 43.8605 34.1616 43.8605 31.7855V18.1725C43.8605 17.4346 43.8127 16.6425 43.5297 15.8685C43.0415 17.8957 42.7645 19.955 42.3481 22.0003C42.0332 23.5483 41.7403 25.1464 41.1306 26.6102C40.6105 27.8614 39.8931 29.4073 38.4046 29.7001C36.8065 30.0129 35.5212 29.2269 34.7202 27.8634L30.0474 22.8645C29.6369 25.3168 29.1786 27.7611 28.4732 30.1432C27.9631 31.8677 27.3175 34.2338 25.8389 35.4188C23.918 36.9608 21.8755 36.4916 20.4388 34.5927L6 18.8783V31.7855C6 34.1616 7.63398 37.0811 9.67646 38.2721Z" fill="#115ef6"/>
<path d="M32.5422 21.2243C32.1178 19.4778 31.7312 17.7133 31.2749 15.9728C30.976 17.3363 30.7349 18.7158 30.5077 20.0914C30.3543 21.0157 30.2068 21.9421 30.0514 22.8685L34.7262 27.8674C33.5645 25.8903 33.0782 23.432 32.5422 21.2263V21.2243Z" fill="#115ef6"/>
<path opacity="0.3" d="M18.484 6.5285L6 31.7854C6 31.7854 6.1634 36.2208 9.67646 38.2721L21.3096 45.0656C21.3096 45.0656 25.1674 47.165 28.7303 45.0656C32.2931 42.9662 40.2638 38.2721 40.2638 38.2721C40.2638 38.2721 43.8605 36.1106 43.8605 31.7854V25.782C43.8605 22.6199 44.3407 18.9204 43.5138 15.8625C43.0276 18.8281 42.4278 21.7737 41.7184 24.6932C41.4753 25.6958 41.2143 26.7064 40.7201 27.6107C39.8373 29.2289 38.038 30.43 36.2545 29.4174C35.5471 29.0163 35.035 28.3366 34.6265 27.6288C33.3253 25.379 32.9029 22.7743 32.3151 20.2779C32.1018 19.3695 31.8767 18.4652 31.6595 17.5589C31.5638 17.1639 31.2012 16.3818 31.2769 15.9728L30.5097 20.0914L30.0534 22.8685C29.5831 25.7219 28.9873 28.6815 28.1026 31.4787C27.4271 33.6182 26.2972 36.0765 23.7725 36.3251C22.4414 36.4555 21.1621 35.6233 20.385 34.5285C18.6773 32.1223 18.2788 28.4348 17.8842 25.5855C17.4259 22.291 17.3004 18.9524 17.4458 15.6299C17.5216 13.8914 17.6571 12.1429 17.8185 10.4105C17.932 9.18734 17.9181 7.64738 18.488 6.53051L18.484 6.5285Z" fill="#201F1E"/>
</g>
<defs>
<clipPath id="clip0_529_73509">
<rect width="38" height="42" fill="white" transform="translate(6 4)"/>
</clipPath>
</defs>
</svg>
