<svg width="28" height="32" viewBox="0 0 28 32" fill="none" xmlns="http://www.w3.org/2000/svg">
<path d="M4.00012 2C4.00012 0.89375 3.10634 0 2.00006 0C0.893777 0 0 0.89375 0 2V8.975C0 9.925 0.193756 10.8625 0.568767 11.7312L5.12515 22.3625C6.06893 24.5687 8.23775 26 10.6378 26H13.5004V29H7.50023C6.66895 29 6.00018 29.6688 6.00018 30.5C6.00018 31.3312 6.66895 32 7.50023 32H22.5007C23.332 32 24.0007 31.3312 24.0007 30.5C24.0007 29.6688 23.332 29 22.5007 29H16.5005V26H22.5007C23.4445 26 24.332 25.5562 24.9008 24.8L27.6008 21.2C28.0571 20.5938 28.1259 19.7812 27.7883 19.1063C27.4508 18.4313 26.7571 18 26.0008 18H7.60648L6.7502 16H20.0006C21.1069 16 22.0007 15.1062 22.0007 14C22.0007 12.8938 21.1069 12 20.0006 12H5.0314L4.24388 10.1562C4.08137 9.78125 4.00012 9.38125 4.00012 8.975V2Z" fill="currentColor"/>
</svg>
