<svg width="24" height="24" viewBox="0 0 24 24" fill="none" xmlns="http://www.w3.org/2000/svg">
<path d="M9.70585 13.125L10.3916 10.79C10.6726 9.83203 11.4616 9.1875 12.3484 9.1875H15.9269C16.8137 9.1875 17.6026 9.83203 17.8837 10.79L18.5694 13.125C19.1186 13.4268 19.5001 14.0684 19.5001 14.8125V18.5625C19.5001 19.0811 19.1315 19.5 18.6751 19.5H18.2626C17.8063 19.5 17.4376 19.0811 17.4376 18.5625V17.625H10.8376V18.5625C10.8376 19.0811 10.469 19.5 10.0126 19.5H9.60015C9.14382 19.5 8.77515 19.0811 8.77515 18.5625V14.8125C8.77515 14.0684 9.15671 13.4268 9.70585 13.125ZM11.5002 12.9375H16.7751L16.3187 11.3818C16.262 11.1914 16.1048 11.0625 15.9269 11.0625H12.3484C12.1705 11.0625 12.0133 11.1914 11.9566 11.3818L11.5002 12.9375ZM10.8376 14.5781C10.4948 14.5781 10.2189 14.8916 10.2189 15.2812C10.2189 15.6709 10.4948 15.9844 10.8376 15.9844C11.1805 15.9844 11.4564 15.6709 11.4564 15.2812C11.4564 14.8916 11.1805 14.5781 10.8376 14.5781ZM17.4376 15.9844C17.7805 15.9844 18.0564 15.6709 18.0564 15.2812C18.0564 14.8916 17.7805 14.5781 17.4376 14.5781C17.0948 14.5781 16.8189 14.8916 16.8189 15.2812C16.8189 15.6709 17.0948 15.9844 17.4376 15.9844Z" fill="currentColor"/>
<path opacity="0.4" d="M4.2375 16.6875H3.825C3.36945 16.6875 3 16.2686 3 15.75V6.68145C3 6.20654 3.23626 5.77207 3.61024 5.55938C4.83666 4.8627 6.18914 4.5 7.5607 4.5H8.3393C9.71086 4.5 11.0644 4.8627 12.289 5.55938C12.6628 5.77207 12.9 6.20654 12.9 6.68145V8.25H12.3483C11.9641 8.25 11.5903 8.31152 11.2268 8.49609V8.01562C11.2268 7.62598 10.9741 7.3125 10.608 7.3125H8.3393V11.0625H9.44273L9.0225 12.4951C8.37539 13.002 7.9268 13.8516 7.9268 14.8125V16.6875H6.2768V17.625C6.2768 18.1436 5.93133 18.5625 5.4518 18.5625H5.0393C4.60695 18.5625 4.2143 18.1436 4.2143 17.625L4.2375 16.6875ZM4.65 10.3594C4.65 10.749 4.92715 11.0625 5.26875 11.0625H7.5375V7.3125H5.26875C4.92715 7.3125 4.65 7.62598 4.65 8.01562V10.3594ZM5.475 13.1719C5.1334 13.1719 4.85625 13.4854 4.85625 13.875C4.85625 14.2646 5.1334 14.5781 5.475 14.5781C5.81789 14.5781 6.09375 14.2646 6.09375 13.875C6.09375 13.4854 5.81789 13.1719 5.475 13.1719Z" fill="currentColor"/>
</svg>
