<svg width="24" height="24" viewBox="0 0 24 24" fill="none" xmlns="http://www.w3.org/2000/svg">
<path d="M12 3C8.0625 3 5.4375 4.29643 5.4375 5.94643V7.71429C4.91895 7.71429 4.5 8.24096 4.5 8.89286V11.25C4.5 11.9019 4.91895 12.4286 5.4375 12.4286V18.3214C5.4375 18.9733 5.85645 19.5 6.375 19.5H17.625C18.1427 19.5 18.5625 18.9733 18.5625 18.3214V12.4286C19.0802 12.4286 19.5 11.9019 19.5 11.25V8.89286C19.5 8.24096 19.0802 7.71429 18.5625 7.71429V5.94643C18.5625 4.29643 15.9375 3 12 3ZM16.6875 12.4286C16.6875 13.0805 16.2686 13.6071 15.75 13.6071H12.4688V7.71429H15.75C16.2686 7.71429 16.6875 8.24096 16.6875 8.89286V12.4286ZM11.5312 13.6071H8.25C7.73145 13.6071 7.3125 13.0805 7.3125 12.4286V8.89286C7.3125 8.24096 7.73145 7.71429 8.25 7.71429H11.5312V13.6071ZM16.2188 17.7321C15.7002 17.7321 15.2812 17.2055 15.2812 16.5536C15.2812 15.9017 15.7002 15.375 16.2188 15.375C16.7373 15.375 17.1562 15.9017 17.1562 16.5536C17.1562 17.2055 16.7373 17.7321 16.2188 17.7321ZM7.78125 17.7321C7.2627 17.7321 6.84375 17.2055 6.84375 16.5536C6.84375 15.9017 7.2627 15.375 7.78125 15.375C8.2998 15.375 8.71875 15.9017 8.71875 16.5536C8.71875 17.2055 8.2998 17.7321 7.78125 17.7321ZM9.65625 5.35714H14.3438C14.6016 5.35714 14.8125 5.62085 14.8125 5.94643C14.8125 6.27201 14.6016 6.53571 14.3438 6.53571H9.65625C9.39844 6.53571 9.1875 6.27201 9.1875 5.94643C9.1875 5.62085 9.39844 5.35714 9.65625 5.35714Z" fill="currentColor"/>
<path opacity="0.4" d="M17 8.625C17 8.00273 16.5531 7.5 16 7.5H12.5V13.125H16C16.5531 13.125 17 12.6223 17 12V8.625ZM11.5 13.125V7.5H8C7.44687 7.5 7 8.00273 7 8.625V12C7 12.6223 7.44687 13.125 8 13.125H11.5ZM18 18.75H15V19.875C15 20.4973 15.4469 21 16 21H17C17.5531 21 18 20.4973 18 19.875V18.75ZM9 18.75H6V19.875C6 20.4973 6.44687 21 7 21H8C8.55313 21 9 20.4973 9 19.875V18.75Z" fill="currentColor"/>
</svg>
