<svg width="16" height="18" viewBox="0 0 16 18" fill="none" xmlns="http://www.w3.org/2000/svg">
<path opacity="0.4" d="M14.6667 1.5C14.6667 0.670312 14.0708 0 13.3333 0H8.66667V7.5H13.3333C14.0708 7.5 14.6667 6.82969 14.6667 6V1.5ZM7.33333 7.5V0H2.66667C1.92917 0 1.33333 0.670312 1.33333 1.5V6C1.33333 6.82969 1.92917 7.5 2.66667 7.5H7.33333ZM16 15H12V16.5C12 17.3297 12.5958 18 13.3333 18H14.6667C15.4042 18 16 17.3297 16 16.5V15ZM4 15H0V16.5C0 17.3297 0.595833 18 1.33333 18H2.66667C3.40417 18 4 17.3297 4 16.5V15Z" fill="currentColor"/>
</svg>
