<svg width="200" height="131" viewBox="0 0 200 131" fill="none" xmlns="http://www.w3.org/2000/svg">
<path d="M29.6596 13.7851C29.6131 13.8409 29.5481 13.8875 29.4831 13.9154C29.2045 14.0271 28.8888 13.8968 28.7774 13.6268C28.3502 12.6123 28.0344 11.5512 27.8301 10.4714C27.7651 10.1736 27.9602 9.88504 28.2573 9.8292C28.5545 9.76404 28.8424 9.9595 28.8981 10.2574C29.0838 11.2626 29.3717 12.2493 29.771 13.1987C29.8639 13.3848 29.8175 13.6268 29.6596 13.7851Z" fill="#0142AF"/>
<path d="M4.2796 0.518616H195.72C197.533 0.518616 199 1.98772 199 3.80695V127.202C199 129.022 197.533 130.491 195.72 130.491H4.2796C2.46737 130.491 1 129.022 1 127.202V3.80695C1 1.98772 2.46737 0.518616 4.2796 0.518616Z" fill="white" stroke="#E6ECF7"/>
<path d="M89.3716 33.0618H144.784C146.121 33.0618 147.199 34.1415 147.199 35.4819V62.0095C147.199 63.3499 146.121 64.4296 144.784 64.4296H89.3716C88.0344 64.4296 86.9572 63.3499 86.9572 62.0095V35.4819C86.9572 34.1415 88.0437 33.0618 89.3716 33.0618Z" fill="#CCD9EF"/>
<path d="M162.893 52.5061H191.709C192.572 52.5061 193.269 53.2042 193.269 54.0699V75.5061C193.269 76.3717 192.572 77.0698 191.709 77.0698H162.893C162.029 77.0698 161.333 76.3717 161.333 75.5061V54.0699C161.342 53.2042 162.038 52.5061 162.893 52.5061Z" fill="#CCD9EF"/>
<path d="M4.2796 131H17.7078V0H4.2796C2.19014 0 0.5 1.69405 0.5 3.78833C0.5 3.79764 0.5 3.79764 0.5 3.80695V127.212C0.5 129.306 2.19014 131 4.2796 131Z" fill="#012158"/>
<path d="M64.8554 0.0186157H17.7079V131H64.8554V0.0186157Z" fill="#0142AF"/>
<path d="M5.21753 10.248H12.9996C13.6125 10.248 14.114 10.7507 14.114 11.365V19.1651C14.114 19.7794 13.6125 20.282 12.9996 20.282H5.21753C4.60462 20.282 4.10315 19.7794 4.10315 19.1651V11.365C4.10315 10.7507 4.60462 10.248 5.21753 10.248Z" fill="#EF631A"/>
<path d="M73.9097 17.108H81.6917C82.3046 17.108 82.8061 17.6106 82.8061 18.225V26.025C82.8061 26.6393 82.3046 27.142 81.6917 27.142H73.9097C73.2968 27.142 72.7953 26.6393 72.7953 26.025V18.225C72.7953 17.6106 73.2968 17.108 73.9097 17.108Z" fill="#CCD9EF"/>
<path d="M5.21753 25.3921H12.9996C13.6125 25.3921 14.114 25.8947 14.114 26.509V34.3091C14.114 34.9234 13.6125 35.426 12.9996 35.426H5.21753C4.60462 35.426 4.10315 34.9234 4.10315 34.3091V26.509C4.10315 25.8854 4.60462 25.3921 5.21753 25.3921Z" fill="#CCD9EF"/>
<path d="M12.9717 41.1039C13.2596 41.1039 13.5011 41.3366 13.5011 41.6344V49.4345C13.5011 49.723 13.2689 49.965 12.9717 49.965H5.21753C4.92965 49.965 4.69748 49.723 4.6882 49.4345V41.6344C4.6882 41.3459 4.92965 41.1132 5.21753 41.1039H12.9996H12.9717ZM12.9996 40.5175H5.21753C4.60462 40.5175 4.10315 41.0201 4.10315 41.6344V49.4345C4.10315 50.0488 4.60462 50.5514 5.21753 50.5514H12.9996C13.6125 50.5514 14.114 50.0488 14.114 49.4345V41.6344C14.114 41.0201 13.6125 40.5175 12.9996 40.5175Z" fill="#CCD9EF"/>
<path d="M9.08071 43.645C8.92284 43.645 8.80212 43.7753 8.80212 43.9242V45.2645H7.47415C7.32557 45.2645 7.19556 45.3855 7.19556 45.5438C7.19556 45.6927 7.31628 45.8137 7.47415 45.823H8.8114V47.1727C8.8114 47.3216 8.93213 47.4519 9.09 47.4519C9.23858 47.4519 9.36859 47.3309 9.36859 47.1727V45.823H10.7244C10.873 45.823 11.003 45.702 11.003 45.5438C11.003 45.3948 10.8823 45.2738 10.7244 45.2645H9.35931V43.9242C9.36859 43.7753 9.24787 43.6543 9.08071 43.645C9.09 43.645 9.09 43.645 9.08071 43.645Z" fill="#CCD9EF"/>
<path d="M24.3105 26.9651H49.9783C50.8327 26.9651 51.5292 27.6632 51.5292 28.5195V28.5289C51.5292 29.3852 50.8327 30.0833 49.9783 30.0833H24.3105C23.4561 30.0833 22.7596 29.3852 22.7596 28.5289V28.5195C22.7596 27.6632 23.4561 26.9651 24.3105 26.9651Z" fill="#E6ECF7"/>
<path d="M24.3105 10.248H41.3233C42.1777 10.248 42.8742 10.9461 42.8742 11.8025V11.8118C42.8742 12.6681 42.1777 13.3662 41.3233 13.3662H24.3105C23.4561 13.3662 22.7596 12.6681 22.7596 11.8118V11.8025C22.7596 10.9461 23.4561 10.248 24.3105 10.248Z" fill="white"/>
<path d="M24.3105 34.2253H43.6542C44.5086 34.2253 45.2051 34.9234 45.2051 35.7797V35.789C45.2051 36.6454 44.5086 37.3435 43.6542 37.3435H24.3105C23.4561 37.3435 22.7596 36.6454 22.7596 35.789V35.7797C22.7596 34.9141 23.4561 34.2253 24.3105 34.2253Z" fill="#CCD9EF"/>
<path d="M88.508 17.108H131.467C132.322 17.108 133.018 17.8061 133.018 18.6624V18.6717C133.018 19.5281 132.322 20.2262 131.467 20.2262H88.508C87.6536 20.2262 86.9572 19.5281 86.9572 18.6717V18.6624C86.9572 17.7968 87.6536 17.108 88.508 17.108Z" fill="#CCD9EF"/>
<path d="M88.508 24.0331H115.727C116.581 24.0331 117.278 24.7312 117.278 25.5875V25.5968C117.278 26.4532 116.581 27.1513 115.727 27.1513H88.508C87.6536 27.1513 86.9572 26.4532 86.9572 25.5968V25.5875C86.9572 24.7312 87.6536 24.0331 88.508 24.0331Z" fill="#CCD9EF"/>
<path d="M73.9097 73.7375H81.6917C82.3046 73.7375 82.8061 74.2402 82.8061 74.8545V82.6545C82.8061 83.2689 82.3046 83.7715 81.6917 83.7715H73.9097C73.2968 83.7715 72.7953 83.2689 72.7953 82.6545V74.8545C72.7953 74.2402 73.2968 73.7375 73.9097 73.7375Z" fill="#CCD9EF"/>
<path d="M162.029 81.6307H166.821C167.202 81.6307 167.508 81.9378 167.508 82.3195V87.1223C167.508 87.504 167.202 87.8111 166.821 87.8111H162.029C161.648 87.8111 161.342 87.504 161.342 87.1223V82.3195C161.342 81.9471 161.648 81.6307 162.029 81.6307Z" fill="#CCD9EF"/>
<path d="M162.029 14.7624H166.821C167.202 14.7624 167.508 15.0696 167.508 15.4512V20.2541C167.508 20.6357 167.202 20.9429 166.821 20.9429H162.029C161.648 20.9429 161.342 20.6357 161.342 20.2541V15.4512C161.342 15.0789 161.648 14.7624 162.029 14.7624Z" fill="#EF631A"/>
<path d="M88.508 73.7375H139.333C140.187 73.7375 140.884 74.4356 140.884 75.292V75.3013C140.884 76.1576 140.187 76.8557 139.333 76.8557H88.508C87.6536 76.8557 86.9572 76.1576 86.9572 75.3013V75.292C86.9572 74.4356 87.6536 73.7375 88.508 73.7375Z" fill="#CCD9EF"/>
<path d="M88.508 80.6626H123.592C124.447 80.6626 125.143 81.3607 125.143 82.2171V82.2264C125.143 83.0827 124.447 83.7808 123.592 83.7808H88.508C87.6536 83.7808 86.9572 83.0827 86.9572 82.2264V82.2171C86.9572 81.3607 87.6536 80.6626 88.508 80.6626Z" fill="#CCD9EF"/>
<path d="M88.508 87.5878H131.467C132.322 87.5878 133.018 88.2859 133.018 89.1422V89.1515C133.018 90.0078 132.322 90.7059 131.467 90.7059H88.508C87.6536 90.7059 86.9572 90.0078 86.9572 89.1515V89.1422C86.9572 88.2859 87.6536 87.5878 88.508 87.5878Z" fill="#CCD9EF"/>
<path d="M88.508 94.5129H139.333C140.187 94.5129 140.884 95.211 140.884 96.0673V96.0766C140.884 96.9329 140.187 97.631 139.333 97.631H88.508C87.6536 97.631 86.9572 96.9329 86.9572 96.0766V96.0673C86.9572 95.211 87.6536 94.5129 88.508 94.5129Z" fill="#CCD9EF"/>
<path d="M162.893 24.089H190.111C190.966 24.089 191.662 24.787 191.662 25.6434V25.6527C191.662 26.509 190.966 27.2071 190.111 27.2071H162.893C162.038 27.2071 161.342 26.509 161.342 25.6527V25.6434C161.342 24.787 162.029 24.089 162.893 24.089Z" fill="#CCD9EF"/>
<path d="M162.893 31.0141H182.236C183.091 31.0141 183.787 31.7122 183.787 32.5685V32.5778C183.787 33.4341 183.091 34.1322 182.236 34.1322H162.893C162.038 34.1322 161.342 33.4341 161.342 32.5778V32.5685C161.342 31.7122 162.029 31.0141 162.893 31.0141Z" fill="#CCD9EF"/>
<path d="M162.893 37.9392H186.963C187.818 37.9392 188.514 38.6373 188.514 39.4936V39.5029C188.514 40.3593 187.818 41.0573 186.963 41.0573H162.893C162.038 41.0573 161.342 40.3593 161.342 39.5029V39.4936C161.342 38.6373 162.029 37.9392 162.893 37.9392Z" fill="#CCD9EF"/>
<path d="M162.893 44.8643H174.371C175.225 44.8643 175.922 45.5624 175.922 46.4187V46.428C175.922 47.2844 175.225 47.9824 174.371 47.9824H162.893C162.038 47.9824 161.342 47.2844 161.342 46.428V46.4187C161.342 45.5624 162.029 44.8643 162.893 44.8643Z" fill="#CCD9EF"/>
<path d="M162.893 91.3109H182.236C183.091 91.3109 183.787 92.009 183.787 92.8653V92.8747C183.787 93.731 183.091 94.4291 182.236 94.4291H162.893C162.038 94.4291 161.342 93.731 161.342 92.8747V92.8653C161.342 92.009 162.029 91.3109 162.893 91.3109Z" fill="#CCD9EF"/>
<path d="M162.893 98.236H190.111C190.966 98.236 191.662 98.9341 191.662 99.7905V99.7998C191.662 100.656 190.966 101.354 190.111 101.354H162.893C162.038 101.354 161.342 100.656 161.342 99.7998V99.7905C161.342 98.9341 162.029 98.236 162.893 98.236Z" fill="#CCD9EF"/>
<path d="M88.508 101.447H115.727C116.581 101.447 117.278 102.145 117.278 103.002V103.011C117.278 103.867 116.581 104.565 115.727 104.565H88.508C87.6536 104.565 86.9572 103.867 86.9572 103.011V103.002C86.9572 102.136 87.6536 101.447 88.508 101.447Z" fill="#CCD9EF"/>
<path d="M24.3105 41.4855H43.6542C44.5086 41.4855 45.2051 42.1836 45.2051 43.0399V43.0492C45.2051 43.9056 44.5086 44.6037 43.6542 44.6037H24.3105C23.4561 44.6037 22.7596 43.9056 22.7596 43.0492V43.0399C22.7596 42.1836 23.4561 41.4855 24.3105 41.4855Z" fill="#CCD9EF"/>
<path d="M24.3105 48.7457H43.6542C44.5086 48.7457 45.2051 49.4438 45.2051 50.3001V50.3094C45.2051 51.1658 44.5086 51.8639 43.6542 51.8639H24.3105C23.4561 51.8639 22.7596 51.1658 22.7596 50.3094V50.3001C22.7596 49.4345 23.4561 48.7457 24.3105 48.7457Z" fill="#CCD9EF"/>
<path d="M24.3105 67.706H53.1264C53.9808 67.706 54.6773 68.4041 54.6773 69.2604V69.2697C54.6773 70.126 53.9808 70.8241 53.1264 70.8241H24.3105C23.4561 70.8241 22.7596 70.126 22.7596 69.2697V69.2604C22.7596 68.3948 23.4561 67.706 24.3105 67.706Z" fill="#E6ECF7"/>
<path d="M24.3105 74.9569H43.6542C44.5086 74.9569 45.2051 75.655 45.2051 76.5113V76.5206C45.2051 77.3769 44.5086 78.075 43.6542 78.075H24.3105C23.4561 78.075 22.7596 77.3769 22.7596 76.5206V76.5113C22.7596 75.655 23.4561 74.9569 24.3105 74.9569Z" fill="#CCD9EF"/>
<path d="M24.3105 101.419H53.1264C53.9808 101.419 54.6773 102.117 54.6773 102.974V102.983C54.6773 103.839 53.9808 104.538 53.1264 104.538H24.3105C23.4561 104.538 22.7596 103.839 22.7596 102.983V102.974C22.7596 102.117 23.4561 101.419 24.3105 101.419Z" fill="#E6ECF7"/>
<path d="M24.3105 108.689H43.6542C44.5086 108.689 45.2051 109.387 45.2051 110.243V110.253C45.2051 111.109 44.5086 111.807 43.6542 111.807H24.3105C23.4561 111.807 22.7596 111.109 22.7596 110.253V110.243C22.7596 109.378 23.4561 108.689 24.3105 108.689Z" fill="#CCD9EF"/>
<path d="M24.3105 82.2264H43.6542C44.5086 82.2264 45.2051 82.9245 45.2051 83.7808V83.7901C45.2051 84.6464 44.5086 85.3445 43.6542 85.3445H24.3105C23.4561 85.3445 22.7596 84.6464 22.7596 83.7901V83.7808C22.7596 82.9152 23.4561 82.2264 24.3105 82.2264Z" fill="#CCD9EF"/>
<path d="M59.7014 70.8055C60.5579 70.8055 61.2522 70.1096 61.2522 69.2511C61.2522 68.3926 60.5579 67.6967 59.7014 67.6967C58.8448 67.6967 58.1505 68.3926 58.1505 69.2511C58.1505 70.1096 58.8448 70.8055 59.7014 70.8055Z" fill="#EF631A"/>
<path d="M155.854 3.87212C155.965 3.87212 156.049 3.95589 156.049 4.06758V126.942C156.049 127.053 155.965 127.137 155.854 127.137C155.742 127.137 155.659 127.053 155.659 126.942V4.06758C155.659 3.95589 155.742 3.87212 155.854 3.87212Z" fill="#CCD9EF"/>
<path d="M146.446 112.784C146.855 112.775 147.189 113.11 147.199 113.52C147.199 113.538 147.199 113.557 147.199 113.576V122.241C147.199 122.651 146.864 122.986 146.456 122.986H146.446H74.1233C73.7146 122.986 73.3803 122.651 73.3803 122.241V113.576C73.3525 113.166 73.6589 112.812 74.0675 112.794C74.0861 112.794 74.0954 112.794 74.114 112.794H146.446V112.784ZM146.446 112.189H74.1233C73.3896 112.189 72.7953 112.784 72.7953 113.52V113.529V122.195C72.7953 122.93 73.3803 123.526 74.114 123.535H74.1233H146.446C147.18 123.535 147.784 122.939 147.784 122.195V113.529C147.784 112.794 147.189 112.189 146.446 112.189Z" fill="#CCD9EF"/>
<path d="M191.941 108.009C192.359 108.028 192.684 108.382 192.684 108.801V117.466C192.665 117.876 192.34 118.192 191.941 118.211H162.67C162.27 118.183 161.955 117.866 161.927 117.466V108.745C161.927 108.326 162.252 107.981 162.67 107.954H191.941V108.009ZM191.941 107.358H162.67C161.936 107.358 161.333 107.954 161.333 108.698V117.364C161.333 118.099 161.927 118.704 162.67 118.704H191.941C192.674 118.704 193.278 118.108 193.278 117.364V108.735C193.278 108 192.684 107.395 191.941 107.395V107.358Z" fill="#CCD9EF"/>
</svg>
