<svg width="18" height="24" viewBox="0 0 18 24" fill="none" xmlns="http://www.w3.org/2000/svg">
<path d="M3 0C1.34531 0 0 1.34531 0 3V21C0 22.6547 1.34531 24 3 24H15C16.6547 24 18 22.6547 18 21V7.5H12C11.1703 7.5 10.5 6.82969 10.5 6V0H3ZM12 0V6H18L12 0ZM5.20312 12.0516L6.45938 16.2328L7.94062 12C8.1 11.55 8.52656 11.2453 9.00469 11.2453C9.48281 11.2453 9.90938 11.5453 10.0688 12L11.55 16.2328L12.7969 12.0516C12.975 11.4563 13.6031 11.1187 14.1984 11.2969C14.7937 11.475 15.1313 12.1031 14.9531 12.6984L12.7031 20.1984C12.5625 20.6672 12.1359 20.9906 11.6531 21C11.1703 21.0094 10.725 20.7094 10.5656 20.2453L9 15.7781L7.43906 20.2453C7.27969 20.7047 6.83906 21.0094 6.35156 21C5.86406 20.9906 5.4375 20.6672 5.30156 20.1984L3.05156 12.6984C2.87344 12.1031 3.21094 11.475 3.80625 11.2969C4.40156 11.1187 5.02969 11.4563 5.20781 12.0516H5.20312Z" fill="currentColor"/>
</svg>
