<svg width="18" height="24" viewBox="0 0 18 24" fill="none" xmlns="http://www.w3.org/2000/svg">
<path d="M3 0C1.34531 0 0 1.34531 0 3V21C0 22.6547 1.34531 24 3 24H15C16.6547 24 18 22.6547 18 21V7.5H12C11.1703 7.5 10.5 6.82969 10.5 6V0H3ZM12 0V6H18L12 0ZM7.29844 11.7281L9 14.1609L10.7016 11.7281C11.0578 11.2172 11.7609 11.0953 12.2672 11.4516C12.7734 11.8078 12.9 12.5109 12.5438 13.0172L10.3734 16.125L12.5484 19.2281C12.9047 19.7391 12.7828 20.4375 12.2719 20.7938C11.7609 21.15 11.0625 21.0281 10.7062 20.5172L9 18.0844L7.29844 20.5172C6.94219 21.0281 6.23906 21.15 5.73281 20.7938C5.22656 20.4375 5.1 19.7344 5.45625 19.2281L7.62656 16.125L5.45156 13.0219C5.09531 12.5109 5.21719 11.8125 5.72812 11.4562C6.23906 11.1 6.9375 11.2219 7.29375 11.7328L7.29844 11.7281Z" fill="currentColor"/>
</svg>
