<svg width="22" height="30" viewBox="0 0 22 30" fill="none" xmlns="http://www.w3.org/2000/svg">
<path d="M16.7777 21.4166H14.111V24.1666H16.7777V21.4166ZM14.5555 0.333252V7.66659H21.6666L14.5555 0.333252ZM16.7777 16.8333H14.111V19.5833H16.7777V16.8333ZM12.3333 16.8333H9.66658V19.5833H12.3333V16.8333ZM12.3333 21.4166H9.66658V24.1666H12.3333V21.4166ZM7.88881 21.4166H5.22214V24.1666H7.88881V21.4166ZM12.7777 7.66659V0.333252H2.99992C1.52714 0.333252 0.333252 1.56445 0.333252 3.08325V26.9166C0.333252 28.4348 1.52714 29.6666 2.99992 29.6666H18.9999C20.4727 29.6666 21.6666 28.4354 21.6666 26.9166V9.49992H14.6055C13.5721 9.49992 12.7777 8.68065 12.7777 7.66659ZM18.5555 14.0833V25.0833C18.5555 25.5917 18.1596 25.9999 17.6666 25.9999H4.33325C3.8402 25.9999 3.44436 25.5917 3.44436 25.0833V14.0833C3.44436 13.5748 3.8402 13.1666 4.33325 13.1666H17.6666C18.161 13.1666 18.5555 13.5734 18.5555 14.0833ZM7.88881 16.8333H5.22214V19.5833H7.88881V16.8333Z" fill="currentColor"/>
</svg>
