<svg width="32" height="32" viewBox="0 0 32 32" fill="none" xmlns="http://www.w3.org/2000/svg">
<path d="M22.7188 27.5375C23.3125 28.0312 24.1438 28.1437 24.85 27.8125C25.5562 27.4812 26 26.775 26 26V5.99999C26 5.22499 25.55 4.51874 24.85 4.18749C24.15 3.85624 23.3188 3.96249 22.7188 4.46249L10.7188 14.4625L10 15.0625V5.99999C10 4.89374 9.10625 3.99999 8 3.99999C6.89375 3.99999 6 4.89374 6 5.99999V26C6 27.1062 6.89375 28 8 28C9.10625 28 10 27.1062 10 26V16.9375L10.7188 17.5375L22.7188 27.5375Z" fill="black"/>
</svg>
