<svg width="32" height="32" viewBox="0 0 32 32" fill="none" xmlns="http://www.w3.org/2000/svg">
<path d="M11.6083 13.7248C11.6374 13.7498 11.6624 13.779 11.6874 13.8081C12.2833 13.5039 12.9541 13.3331 13.6291 13.3331H18.3333C19.0458 13.3331 19.7166 13.5039 20.3124 13.8081C20.3374 13.779 20.3624 13.7498 20.3916 13.7248L23.0583 11.0579C23.5791 10.5362 24.4208 10.5362 24.9416 11.0579C25.4624 11.5788 25.4624 12.4205 24.9416 12.9414L22.2749 15.6083C22.2124 15.6375 22.2208 15.6625 22.1916 15.6875C22.4458 16.1875 22.6083 16.7459 22.6541 17.3334H25.3333C26.0708 17.3334 26.6666 17.9293 26.6666 18.6669C26.6666 19.4044 26.0708 20.0003 25.3333 20.0003H22.6666C22.6666 21.0254 22.4374 21.9922 22.0249 22.8589C22.1124 22.9131 22.1999 22.9797 22.2749 23.0589L24.9416 25.7258C25.4624 26.2467 25.4624 27.0884 24.9416 27.6093C24.4208 28.1302 23.5791 28.1302 23.0583 27.6093L20.4291 24.9841C19.4083 25.8925 18.1041 26.4925 16.6666 26.6342V16.6667C16.6666 16.3 16.3666 16 15.9624 16C15.6333 16 15.2958 16.3 15.2958 16.6667V26.6342C13.8958 26.4925 12.5916 25.8925 11.5708 24.9841L8.94284 27.6093C8.422 28.1302 7.57784 28.1302 7.057 27.6093C6.53659 27.0884 6.53659 26.2467 7.057 25.7258L9.72492 23.0589C9.79992 22.9797 9.88742 22.9131 9.97492 22.8589C9.56242 21.9922 9.33325 21.0254 9.33325 20.0003H6.66659C5.93034 20.0003 5.33325 19.4044 5.33325 18.6669C5.33325 17.9293 5.93034 17.3334 6.66659 17.3334H9.34575C9.39075 16.7459 9.55409 16.1875 9.80825 15.6875C9.77909 15.6625 9.74992 15.6375 9.72492 15.6083L7.057 12.9414C6.53659 12.4205 6.53659 11.5788 7.057 11.0579C7.57784 10.5362 8.422 10.5362 8.94284 11.0579L11.6083 13.7248Z" fill="black"/>
<path opacity="0.4" d="M20 9.60004V9.75826C20 10.4578 19.4708 11.0223 18.8167 11.0223H13.1833C12.5292 11.0223 12 10.4578 12 9.75826V9.60004C12 7.2436 13.7542 5.33337 16 5.33337C18.2083 5.33337 20 7.2436 20 9.60004ZM15.3333 26.6312V16C15.3333 15.6089 15.6333 15.2889 16 15.2889C16.3667 15.2889 16.6667 15.6089 16.6667 16V26.6312C16.4458 26.6534 16.225 26.6667 16 26.6667C15.775 26.6667 15.5542 26.6534 15.3333 26.6312Z" fill="currentColor"/>
</svg>
