<svg width="32" height="32" viewBox="0 0 32 32" fill="none" xmlns="http://www.w3.org/2000/svg">
<path d="M8.95833 7.09375C8.95833 6.57578 9.44313 6.15625 10.0417 6.15625H13.2917C13.8875 6.15625 14.375 6.57578 14.375 7.09375V9.90625C14.375 10.4219 13.8875 10.8438 13.2917 10.8438H10.0417C9.44313 10.8438 8.95833 10.4219 8.95833 9.90625V7.09375ZM21.9583 6.15625C22.5542 6.15625 23.0417 6.57578 23.0417 7.09375V9.90625C23.0417 10.4219 22.5542 10.8438 21.9583 10.8438H18.7083C18.1125 10.8438 17.625 10.4219 17.625 9.90625V7.09375C17.625 6.57578 18.1125 6.15625 18.7083 6.15625H21.9583ZM8.95833 14.5938C8.95833 14.0781 9.44313 13.6562 10.0417 13.6562H13.2917C13.8875 13.6562 14.375 14.0781 14.375 14.5938V17.4062C14.375 17.9219 13.8875 18.3438 13.2917 18.3438H10.0417C9.44313 18.3438 8.95833 17.9219 8.95833 17.4062V14.5938ZM21.9583 13.6562C22.5542 13.6562 23.0417 14.0781 23.0417 14.5938V17.4062C23.0417 17.9219 22.5542 18.3438 21.9583 18.3438H18.7083C18.1125 18.3438 17.625 17.9219 17.625 17.4062V14.5938C17.625 14.0781 18.1125 13.6562 18.7083 13.6562H21.9583ZM3 4.75C3 2.67871 4.93984 1 7.33333 1H24.6667C27.0568 1 29 2.67871 29 4.75V27.25C29 29.3184 27.0568 31 24.6667 31H7.33333C4.93984 31 3 29.3184 3 27.25V4.75ZM6.25 4.75V27.25C6.25 27.7656 6.73479 28.1875 7.33333 28.1875H12.75V24.4375C12.75 22.8848 14.2057 21.625 16 21.625C17.7943 21.625 19.25 22.8848 19.25 24.4375V28.1875H24.6667C25.2625 28.1875 25.75 27.7656 25.75 27.25V4.75C25.75 4.23203 25.2625 3.8125 24.6667 3.8125H7.33333C6.73479 3.8125 6.25 4.23203 6.25 4.75Z" fill="#201F1E"/>
</svg>
