<svg width="32" height="32" viewBox="0 0 32 32" fill="none" xmlns="http://www.w3.org/2000/svg">
<g clip-path="url(#clip0_734_79261)">
<path d="M13.3333 7.99998H18.6666V6.66665C18.6666 5.9304 19.2625 5.33331 20 5.33331C20.7375 5.33331 21.3333 5.9304 21.3333 6.66665V7.99998H23.3333C24.4375 7.99998 25.3333 8.8954 25.3333 9.99998V13.3333H6.66663V9.99998C6.66663 8.8954 7.56204 7.99998 8.66663 7.99998H10.6666V6.66665C10.6666 5.9304 11.2625 5.33331 12 5.33331C12.7375 5.33331 13.3333 5.9304 13.3333 6.66665V7.99998Z" fill="black"/>
<path opacity="0.4" d="M6.66663 13.3333H25.3333V24.6666C25.3333 25.7708 24.4375 26.6666 23.3333 26.6666H8.66663C7.56204 26.6666 6.66663 25.7708 6.66663 24.6666V13.3333ZM9.33329 18C9.33329 18.3666 9.63163 18.6666 9.99996 18.6666H11.3333C11.7 18.6666 12 18.3666 12 18V16.6666C12 16.3 11.7 16 11.3333 16H9.99996C9.63163 16 9.33329 16.3 9.33329 16.6666V18ZM15.3333 16C14.9666 16 14.6666 16.3 14.6666 16.6666V18C14.6666 18.3666 14.9666 18.6666 15.3333 18.6666H16.6666C17.0333 18.6666 17.3333 18.3666 17.3333 18V16.6666C17.3333 16.3 17.0333 16 16.6666 16H15.3333ZM20 18C20 18.3666 20.3 18.6666 20.6666 18.6666H22C22.3666 18.6666 22.6666 18.3666 22.6666 18V16.6666C22.6666 16.3 22.3666 16 22 16H20.6666C20.3 16 20 16.3 20 16.6666V18ZM9.99996 21.3333C9.63163 21.3333 9.33329 21.6333 9.33329 22V23.3333C9.33329 23.7 9.63163 24 9.99996 24H11.3333C11.7 24 12 23.7 12 23.3333V22C12 21.6333 11.7 21.3333 11.3333 21.3333H9.99996ZM14.6666 23.3333C14.6666 23.7 14.9666 24 15.3333 24H16.6666C17.0333 24 17.3333 23.7 17.3333 23.3333V22C17.3333 21.6333 17.0333 21.3333 16.6666 21.3333H15.3333C14.9666 21.3333 14.6666 21.6333 14.6666 22V23.3333ZM20.6666 21.3333C20.3 21.3333 20 21.6333 20 22V23.3333C20 23.7 20.3 24 20.6666 24H22C22.3666 24 22.6666 23.7 22.6666 23.3333V22C22.6666 21.6333 22.3666 21.3333 22 21.3333H20.6666Z" fill="black"/>
</g>
<defs>
<clipPath id="clip0_734_79261">
<rect width="18.6667" height="21.3333" fill="white" transform="translate(6.66663 5.33331)"/>
</clipPath>
</defs>
</svg>
