<svg width="32" height="32" viewBox="0 0 32 32" fill="none" xmlns="http://www.w3.org/2000/svg">
<path d="M9.28125 27.5375C8.6875 28.0312 7.85625 28.1437 7.15 27.8125C6.44375 27.4812 6 26.775 6 26V5.99999C6 5.22499 6.45 4.51874 7.15 4.18749C7.85 3.85624 8.68125 3.96249 9.28125 4.46249L21.2812 14.4625L22 15.0625V5.99999C22 4.89374 22.8937 3.99999 24 3.99999C25.1063 3.99999 26 4.89374 26 5.99999V26C26 27.1062 25.1063 28 24 28C22.8937 28 22 27.1062 22 26V16.9375L21.2812 17.5375L9.28125 27.5375Z" fill="currentColor"/>
</svg>
