<svg width="32" height="32" viewBox="0 0 32 32" fill="none" xmlns="http://www.w3.org/2000/svg">
<path d="M5.47883 17.6176C4.9107 16.6156 4.9107 15.3845 5.47883 14.3825L9.3676 7.51234C9.93573 6.51035 10.9795 5.89478 12.1157 5.89478H19.8889C21.0207 5.89478 22.0689 6.51035 22.637 7.51234L26.5214 14.3825C27.0895 15.3845 27.0895 16.6156 26.5214 17.6176L22.6326 24.4877C22.0645 25.4897 21.0207 26.1053 19.8845 26.1053H12.1113C10.9795 26.1053 9.93132 25.4897 9.3632 24.4877L5.47883 17.6176ZM12.4328 12.3605C12.0188 12.7829 12.0188 13.4659 12.4328 13.8837L14.5027 15.9955L12.4328 18.1074C12.0188 18.5297 12.0188 19.2127 12.4328 19.6306C12.8468 20.0484 13.5162 20.0529 13.9258 19.6306L15.9957 17.5187L18.0656 19.6306C18.4796 20.0529 19.149 20.0529 19.5586 19.6306C19.9682 19.2082 19.9726 18.5252 19.5586 18.1074L17.4887 15.9955L19.5586 13.8837C19.9726 13.4614 19.9726 12.7784 19.5586 12.3605C19.1446 11.9427 18.4752 11.9382 18.0656 12.3605L15.9957 14.4723L13.9258 12.3605C13.5118 11.9382 12.8424 11.9382 12.4328 12.3605Z" fill="#323130"/>
</svg>
