<svg width="32" height="32" viewBox="0 0 32 32" fill="none" xmlns="http://www.w3.org/2000/svg">
<path d="M12.6667 7.33337C12.6667 6.22879 13.5625 5.33337 14.6667 5.33337H17.3333C18.4375 5.33337 19.3333 6.22879 19.3333 7.33337V10C19.3333 11.1042 18.4375 12 17.3333 12H14.6667C13.5625 12 12.6667 11.1042 12.6667 10V7.33337ZM8.66667 17.3334C9.77083 17.3334 10.6667 18.2292 10.6667 19.3334V22C10.6667 23.1042 9.77083 24 8.66667 24H6C4.89542 24 4 23.1042 4 22V19.3334C4 18.2292 4.89542 17.3334 6 17.3334H8.66667ZM17.3333 17.3334C18.4375 17.3334 19.3333 18.2292 19.3333 19.3334V22C19.3333 23.1042 18.4375 24 17.3333 24H14.6667C13.5625 24 12.6667 23.1042 12.6667 22V19.3334C12.6667 18.2292 13.5625 17.3334 14.6667 17.3334H17.3333ZM26 17.3334C27.1042 17.3334 28 18.2292 28 19.3334V22C28 23.1042 27.1042 24 26 24H23.3333C22.2292 24 21.3333 23.1042 21.3333 22V19.3334C21.3333 18.2292 22.2292 17.3334 23.3333 17.3334H26Z" fill="#201F1E"/>
<path opacity="0.4" d="M8.66659 15.6667C8.48325 15.6667 8.33325 15.8167 8.33325 16V17.3333H6.33325V16C6.33325 14.7125 7.37784 13.6667 8.66659 13.6667H14.9999V12H16.9999V13.6667H23.3333C24.6208 13.6667 25.6666 14.7125 25.6666 16V17.3333H23.6666V16C23.6666 15.8167 23.5166 15.6667 23.3333 15.6667H16.9999V17.3333H14.9999V15.6667H8.66659Z" fill="#201F1E"/>
</svg>
