<svg width="32" height="32" viewBox="0 0 32 32" fill="none" xmlns="http://www.w3.org/2000/svg">
<path d="M15.9999 1.33337C18.1083 1.33337 19.9416 2.51931 20.864 4.26098C22.7489 3.68233 24.8801 4.14067 26.3697 5.63025C27.8593 7.11983 28.3176 9.25681 27.739 11.136C29.4806 12.0584 30.6666 13.8917 30.6666 16C30.6666 18.1084 29.4806 19.9417 27.739 20.8641C28.3176 22.749 27.8593 24.8802 26.3697 26.3698C24.8801 27.8594 22.7431 28.3177 20.864 27.7391C19.9416 29.4808 18.1083 30.6667 15.9999 30.6667C13.8916 30.6667 12.0583 29.4808 11.1359 27.7391C9.25096 28.3177 7.11971 27.8594 5.63013 26.3698C4.14054 24.8802 3.68221 22.7433 4.26086 20.8641C2.51919 19.9417 1.33325 18.1084 1.33325 16C1.33325 13.8917 2.51919 12.0584 4.26086 11.136C3.68221 9.25108 4.14054 7.11983 5.63013 5.63025C7.11971 4.14067 9.25669 3.68233 11.1359 4.26098C12.0583 2.51931 13.8916 1.33337 15.9999 1.33337ZM21.5572 14.224C22.0958 13.6855 22.0958 12.8146 21.5572 12.2818C21.0187 11.749 20.1478 11.7433 19.615 12.2818L14.1723 17.7245L11.9379 15.4901C11.3994 14.9516 10.5286 14.9516 9.99575 15.4901C9.46294 16.0287 9.45721 16.8995 9.99575 17.4323L13.2041 20.6407C13.7426 21.1792 14.6135 21.1792 15.1463 20.6407L21.5572 14.224Z" fill="#201F1E"/>
</svg>
