<svg width="24" height="24" viewBox="0 0 24 24" fill="none" xmlns="http://www.w3.org/2000/svg">
<g clip-path="url(#clip0_502_47961)">
<path d="M13.1 7.4C13.1 9.83031 11.1303 11.8 8.7 11.8C6.26969 11.8 4.3 9.83031 4.3 7.4C4.3 4.96969 6.26969 3 8.7 3C11.1303 3 13.1 4.96969 13.1 7.4ZM1 19.5791C1 16.1931 3.74313 13.45 7.12906 13.45H10.2709C13.6569 13.45 16.4 16.1931 16.4 19.5791C16.4 20.1428 15.9428 20.6 15.3791 20.6H2.02094C1.45719 20.6 1 20.1428 1 19.5791ZM18.325 13.725V11.525H16.125C15.6678 11.525 15.3 11.1572 15.3 10.7C15.3 10.2428 15.6678 9.875 16.125 9.875H18.325V7.675C18.325 7.21781 18.6928 6.85 19.15 6.85C19.6072 6.85 19.975 7.21781 19.975 7.675V9.875H22.175C22.6322 9.875 23 10.2428 23 10.7C23 11.1572 22.6322 11.525 22.175 11.525H19.975V13.725C19.975 14.1822 19.6072 14.55 19.15 14.55C18.6928 14.55 18.325 14.1822 18.325 13.725Z" fill="currentColor"/>
</g>
<defs>
<clipPath id="clip0_502_47961">
<rect width="22" height="17.6" fill="white" transform="translate(1 3)"/>
</clipPath>
</defs>
</svg>
