<svg width="32" height="32" viewBox="0 0 32 32" fill="none" xmlns="http://www.w3.org/2000/svg">
<g clip-path="url(#clip0_502_52130)">
<path d="M1.33337 6.83317C1.33337 4.80791 2.97478 3.1665 5.00004 3.1665H27C29.0224 3.1665 30.6667 4.80791 30.6667 6.83317V14.1665H1.33337V6.83317ZM6.83337 10.4998C7.84744 10.4998 8.66671 9.68057 8.66671 8.6665C8.66671 7.65244 7.84744 6.83317 6.83337 6.83317C5.82103 6.83317 5.00004 7.65244 5.00004 8.6665C5.00004 9.68057 5.82103 10.4998 6.83337 10.4998ZM11.875 7.2915C11.1131 7.2915 10.5 7.90452 10.5 8.6665C10.5 9.42848 11.1131 10.0415 11.875 10.0415H25.625C26.387 10.0415 27 9.42848 27 8.6665C27 7.90452 26.387 7.2915 25.625 7.2915H11.875Z" fill="currentColor"/>
<path opacity="0.4" d="M8.66671 8.66659C8.66671 9.68065 7.84744 10.4999 6.83337 10.4999C5.82103 10.4999 5.00004 9.68065 5.00004 8.66659C5.00004 7.65252 5.82103 6.83325 6.83337 6.83325C7.84744 6.83325 8.66671 7.65252 8.66671 8.66659ZM5.00004 28.8333C2.97478 28.8333 1.33337 27.189 1.33337 25.1666V14.1666H30.6667V25.1666C30.6667 27.189 29.0224 28.8333 27 28.8333H5.00004Z" fill="currentColor"/>
</g>
<defs>
<clipPath id="clip0_502_52130">
<rect width="29.3333" height="29.3333" fill="white" transform="translate(1.33337 1.33325)"/>
</clipPath>
</defs>
</svg>
