<svg width="24" height="24" viewBox="0 0 24 24" fill="none" xmlns="http://www.w3.org/2000/svg">
<g clip-path="url(#clip0_734_79266)">
<path d="M9 4C9.55312 4 10 4.44687 10 5V6H14V5C14 4.44687 14.4469 4 15 4C15.5531 4 16 4.44687 16 5V6H17.5C18.3281 6 19 6.67188 19 7.5V9H5V7.5C5 6.67188 5.67188 6 6.5 6H8V5C8 4.44687 8.44688 4 9 4ZM5 10H19V18.5C19 19.3281 18.3281 20 17.5 20H6.5C5.67188 20 5 19.3281 5 18.5V10ZM7 12.5V13.5C7 13.775 7.225 14 7.5 14H8.5C8.775 14 9 13.775 9 13.5V12.5C9 12.225 8.775 12 8.5 12H7.5C7.225 12 7 12.225 7 12.5ZM11 12.5V13.5C11 13.775 11.225 14 11.5 14H12.5C12.775 14 13 13.775 13 13.5V12.5C13 12.225 12.775 12 12.5 12H11.5C11.225 12 11 12.225 11 12.5ZM15.5 12C15.225 12 15 12.225 15 12.5V13.5C15 13.775 15.225 14 15.5 14H16.5C16.775 14 17 13.775 17 13.5V12.5C17 12.225 16.775 12 16.5 12H15.5ZM7 16.5V17.5C7 17.775 7.225 18 7.5 18H8.5C8.775 18 9 17.775 9 17.5V16.5C9 16.225 8.775 16 8.5 16H7.5C7.225 16 7 16.225 7 16.5ZM11.5 16C11.225 16 11 16.225 11 16.5V17.5C11 17.775 11.225 18 11.5 18H12.5C12.775 18 13 17.775 13 17.5V16.5C13 16.225 12.775 16 12.5 16H11.5ZM15 16.5V17.5C15 17.775 15.225 18 15.5 18H16.5C16.775 18 17 17.775 17 17.5V16.5C17 16.225 16.775 16 16.5 16H15.5C15.225 16 15 16.225 15 16.5Z" fill="currentColor"/>
</g>
<defs>
<clipPath id="clip0_734_79266">
<rect width="14" height="16" fill="white" transform="translate(5 4)"/>
</clipPath>
</defs>
</svg>
