<svg width="83" height="83" viewBox="0 0 83 83" fill="none" xmlns="http://www.w3.org/2000/svg">
<g filter="url(#filter0_dd_750_57496)">
<path d="M72.7482 77H10.2464C6.8125 77 4 74.1875 4 70.7482V8.25179C4 4.8125 6.8125 2 10.2464 2H72.7482C76.1875 2 79 4.8125 79 8.25179V70.7482C79 74.1875 76.1875 77 72.7482 77" fill="#0142AF"/>
<g clip-path="url(#clip0_750_57496)">
<path d="M69.8798 39.2012H68.8301V40.031H70V40.2806H68.4814V37.9784H69.9396V38.228H68.8295V38.9558H69.8792V39.2018L69.8798 39.2012Z" fill="white"/>
<path d="M41.4536 13.3022V11H41.834L42.6995 12.1646C42.8998 12.4346 43.0559 12.677 43.1839 12.9128L43.1917 12.9092C43.1594 12.602 43.1516 12.3218 43.1516 11.963V11H43.48V13.3022H43.1271L42.27 12.134C42.0816 11.8778 41.9016 11.615 41.7652 11.3654L41.7533 11.369C41.7736 11.6594 41.7814 11.936 41.7814 12.3188V13.3022H41.453H41.4536Z" fill="white"/>
<path d="M41.736 67.604C41.8921 67.6862 42.1206 67.754 42.361 67.754C42.7175 67.754 42.9262 67.5932 42.9262 67.361C42.9262 67.1456 42.7821 67.0226 42.4172 66.9032C41.9764 66.77 41.7043 66.5756 41.7043 66.251C41.7043 65.8922 42.053 65.6258 42.5775 65.6258C42.8539 65.6258 43.0542 65.6804 43.1744 65.7386L43.0781 65.981C42.9902 65.9402 42.8096 65.8718 42.5656 65.8718C42.1971 65.8718 42.0566 66.0596 42.0566 66.2168C42.0566 66.4322 42.2211 66.5378 42.5937 66.6608C43.0506 66.8114 43.2827 66.9992 43.2827 67.337C43.2827 67.6922 42.9741 67.9994 42.3371 67.9994C42.0763 67.9994 41.7922 67.9346 41.6481 67.8524L41.736 67.6028V67.604Z" fill="white"/>
<path d="M14.6848 40.2518L14 37.9496H14.3684L14.689 39.1142C14.7692 39.401 14.8409 39.6878 14.8894 39.9098H14.8972C14.9414 39.6812 15.0252 39.4076 15.1173 39.1106L15.4779 37.9496H15.8428L16.1711 39.1178C16.2471 39.3908 16.3195 39.6644 16.3595 39.9068H16.3673C16.4235 39.6542 16.4995 39.398 16.5838 39.1112L16.9403 37.9502H17.2968L16.5318 40.2524H16.1669L15.8266 39.0536C15.7423 38.7596 15.6867 38.5346 15.6502 38.3024H15.6424C15.5945 38.531 15.5341 38.7566 15.4343 39.0536L15.0497 40.2524H14.6848V40.2518Z" fill="white"/>
<path d="M58.3854 22.2674L59.1946 21.4592L59.3286 21.5942L59.2233 22.3094C59.1988 22.475 59.1683 22.6154 59.1306 22.7438L59.1348 22.7456C59.2317 22.6262 59.3274 22.5254 59.4536 22.3994L59.7921 22.061L59.9076 22.1774L59.0983 22.9856L58.9745 22.8608L59.084 22.1474C59.1079 21.9908 59.1372 21.8348 59.1767 21.6986L59.1713 21.6956C59.0762 21.8048 58.9817 21.9044 58.8471 22.0388L58.5014 22.3844L58.386 22.268L58.3854 22.2674Z" fill="white"/>
<path d="M60.1815 23.3162L59.8125 22.9448L59.5206 23.2364L59.9315 23.6504L59.8436 23.738L59.3101 23.2004L60.1193 22.3922L60.6313 22.9082L60.5434 22.9958L60.1534 22.6028L59.8974 22.8584L60.2664 23.2298L60.1797 23.3162H60.1815Z" fill="white"/>
<path d="M24.9304 23.63L24.1248 22.8182L24.2593 22.6838L24.9723 22.79C25.1373 22.8146 25.2773 22.8452 25.4053 22.883L25.4071 22.8788C25.2881 22.7816 25.1876 22.6856 25.062 22.559L24.7247 22.2194L24.8407 22.1036L25.6463 22.9154L25.5219 23.0396L24.8108 22.9298C24.6547 22.9058 24.4992 22.8764 24.364 22.8368L24.361 22.8422C24.4699 22.9376 24.5691 23.0324 24.7031 23.1674L25.0476 23.5142L24.9316 23.63H24.9304Z" fill="white"/>
<path d="M26.0154 22.5464L24.9681 21.9758L25.0985 21.8462L25.6195 22.1444C25.7481 22.2176 25.8743 22.2932 25.9688 22.3544L25.9718 22.3514C25.9072 22.2554 25.8414 22.1294 25.7696 21.992L25.4903 21.4556L25.6189 21.3272L26.1434 21.6236C26.266 21.6932 26.3868 21.764 26.4861 21.8354L26.4891 21.8324C26.4203 21.7232 26.3575 21.6062 26.287 21.4754L26.0065 20.9402L26.1321 20.8148L26.668 21.8966L26.5394 22.025L25.9993 21.722C25.8665 21.6482 25.7678 21.5882 25.6739 21.5192L25.6709 21.5222C25.7337 21.62 25.7917 21.7208 25.8605 21.8606L26.1446 22.4192L26.016 22.5476L26.0154 22.5464Z" fill="white"/>
<path d="M26.8634 56.366C26.8371 56.282 26.7809 56.177 26.6966 56.0918C26.5716 55.9658 26.4418 55.9484 26.3598 56.03C26.2845 56.1056 26.2916 56.1998 26.3778 56.3708C26.4854 56.5736 26.5129 56.7386 26.3987 56.8526C26.2725 56.9786 26.0566 56.9486 25.8724 56.7626C25.7755 56.6648 25.724 56.5748 25.7025 56.5118L25.8215 56.4608C25.8383 56.5064 25.8772 56.594 25.9633 56.681C26.0925 56.8112 26.2079 56.795 26.2635 56.7398C26.3389 56.6642 26.3186 56.5688 26.2312 56.3936C26.1236 56.1794 26.108 56.0312 26.2271 55.9124C26.3521 55.7876 26.5686 55.7888 26.7923 56.0144C26.8838 56.1068 26.9609 56.2298 26.9825 56.3096L26.864 56.366H26.8634Z" fill="white"/>
<path d="M26.1254 55.367L25.5566 56.4176L25.4274 56.2874L25.7247 55.7648C25.7976 55.6358 25.873 55.5092 25.934 55.4144L25.931 55.4114C25.8353 55.4762 25.7097 55.5422 25.5728 55.6142L25.0375 55.8944L24.9095 55.7654L25.2049 55.2392C25.2743 55.1162 25.3449 54.995 25.4161 54.8954L25.4131 54.8924C25.3042 54.9614 25.1876 55.0244 25.0572 55.0952L24.5237 55.3766L24.3987 55.2506L25.4771 54.713L25.6051 54.842L25.303 55.3832C25.2294 55.5164 25.1696 55.6154 25.1009 55.7096L25.1038 55.7126C25.2013 55.649 25.3018 55.5914 25.4412 55.5224L25.998 55.2374L26.126 55.3664L26.1254 55.367Z" fill="white"/>
<path d="M59.6253 54.9674C59.5415 54.9938 59.4369 55.0502 59.3519 55.1348C59.2263 55.2602 59.209 55.3904 59.2903 55.4726C59.3657 55.5482 59.4596 55.541 59.6301 55.4546C59.8322 55.3466 59.9967 55.319 60.1103 55.4336C60.2359 55.5602 60.206 55.7768 60.0206 55.9616C59.9231 56.0588 59.8334 56.1104 59.7706 56.132L59.7198 56.0126C59.7652 55.9958 59.8526 55.9568 59.9393 55.8704C60.0691 55.7408 60.0529 55.625 59.9979 55.5692C59.9225 55.4936 59.8274 55.514 59.6528 55.6016C59.4393 55.7096 59.2915 55.7252 59.1731 55.6058C59.0487 55.4804 59.0499 55.2632 59.2748 55.0388C59.3669 54.947 59.4895 54.8696 59.5697 54.848L59.6259 54.9668L59.6253 54.9674Z" fill="white"/>
<path d="M58.6689 56.426L59.0391 56.0564L58.7484 55.7636L58.3357 56.1758L58.2484 56.0876L58.7843 55.5524L59.59 56.3642L59.0756 56.8778L58.9883 56.7896L59.38 56.3984L59.1252 56.1416L58.755 56.5112L58.6689 56.4242V56.426Z" fill="white"/>
<path d="M42.538 58.7156C37.353 58.7156 32.4785 56.69 28.8127 53.012C25.1463 49.334 23.1277 44.444 23.1277 39.2432C23.1277 34.0424 25.1469 29.1518 28.8127 25.4744C32.4791 21.7964 37.3536 19.7708 42.538 19.7708C47.7224 19.7708 52.5975 21.7964 56.2633 25.4744C59.9297 29.1524 61.9489 34.0424 61.9489 39.2432C61.9489 44.444 59.9297 49.3346 56.2633 53.012C52.5969 56.69 47.7224 58.7156 42.538 58.7156V58.7156ZM42.538 20.429C37.5283 20.429 32.8188 22.3862 29.2762 25.9394C25.7336 29.4932 23.7832 34.2176 23.7832 39.2432C23.7832 44.2688 25.7342 48.9938 29.2762 52.547C32.8188 56.1008 37.5283 58.0574 42.538 58.0574C47.5477 58.0574 52.2578 56.1002 55.7998 52.547C59.3424 48.9932 61.2934 44.2688 61.2934 39.2432C61.2934 34.2176 59.3424 29.4926 55.7998 25.9394C52.2572 22.3856 47.5477 20.429 42.538 20.429V20.429Z" fill="white"/>
<path d="M61.5369 38.5034L67.7075 39.2432L61.5369 39.9836V38.5034Z" fill="white"/>
<path d="M23.5398 39.9836L17.3685 39.2432L23.5398 38.5034V39.9836Z" fill="white"/>
<path d="M43.2755 58.3022L42.538 64.4924L41.8005 58.3022H43.2755Z" fill="white"/>
<path d="M41.8005 20.1848L42.538 13.9946L43.2755 20.1848H41.8005Z" fill="white"/>
<path d="M28.5824 26.2904L26.5698 23.225L29.6255 25.2434L28.5824 26.2904Z" fill="white"/>
<path d="M56.4937 52.1967L58.5063 55.2621L55.4506 53.2431L56.4937 52.1967Z" fill="white"/>
<path d="M55.4506 25.2434L58.5063 23.2244L56.4937 26.2898L55.4506 25.2434Z" fill="white"/>
<path d="M29.6255 53.2431L26.5698 55.2621L28.5824 52.1967L29.6255 53.2431Z" fill="white"/>
<path d="M42.538 54.8978C33.9337 54.8978 26.9329 47.8754 26.9329 39.2432C26.9329 30.611 33.9337 23.5892 42.538 23.5892C51.1424 23.5892 58.1432 30.6116 58.1432 39.2438C58.1432 43.4252 56.5199 47.3564 53.5725 50.3132C50.625 53.27 46.7062 54.8984 42.538 54.8984V54.8978ZM42.538 23.885C34.0958 23.885 27.2277 30.7748 27.2277 39.2438C27.2277 47.7128 34.0958 54.6026 42.538 54.6026C50.9803 54.6026 57.8483 47.7128 57.8483 39.2438C57.8483 30.7748 50.9803 23.885 42.538 23.885V23.885Z" fill="white"/>
<path d="M42.538 54.0242C34.4134 54.0242 27.8037 47.3936 27.8037 39.2432C27.8037 31.0928 34.4134 24.4622 42.538 24.4622C50.6627 24.4622 57.2724 31.0928 57.2724 39.2432C57.2724 47.3936 50.6627 54.0242 42.538 54.0242ZM42.538 25.046C34.7346 25.046 28.3857 31.415 28.3857 39.2432C28.3857 47.0714 34.7346 53.4404 42.538 53.4404C50.3415 53.4404 56.6904 47.0714 56.6904 39.2432C56.6904 31.415 50.3415 25.046 42.538 25.046Z" fill="white"/>
<path d="M42.538 52.8476C35.0605 52.8476 28.9772 46.745 28.9772 39.2438C28.9772 31.7426 35.0605 25.64 42.538 25.64C50.0155 25.64 56.0989 31.7426 56.0989 39.2438C56.0989 46.745 50.0155 52.8476 42.538 52.8476ZM42.538 25.8728C35.1885 25.8728 29.2092 31.871 29.2092 39.2438C29.2092 46.6166 35.1885 52.6148 42.538 52.6148C49.8875 52.6148 55.8668 46.6166 55.8668 39.2438C55.8668 31.871 49.8875 25.8728 42.538 25.8728V25.8728Z" fill="white"/>
<path d="M42.5381 50.1236C36.5576 50.1236 31.6926 45.2426 31.6926 39.2438C31.6926 33.245 36.5582 28.364 42.5381 28.364C48.5179 28.364 53.3835 33.245 53.3835 39.2438C53.3835 45.2426 48.5179 50.1236 42.5381 50.1236ZM42.5381 28.5494C36.6599 28.5494 31.878 33.3464 31.878 39.2432C31.878 45.14 36.6599 49.937 42.5381 49.937C48.4163 49.937 53.1981 45.14 53.1981 39.2432C53.1981 33.3464 48.4163 28.5494 42.5381 28.5494V28.5494Z" fill="white"/>
<path d="M52.6694 28.9167L51.9635 29.6248L52.1276 29.7894L52.8335 29.0813L52.6694 28.9167Z" fill="white"/>
<path d="M32.9487 48.6993L32.2428 49.4074L32.4069 49.572L33.1128 48.8639L32.9487 48.6993Z" fill="white"/>
<path d="M52.1266 48.6987L51.9625 48.8633L52.6684 49.5714L52.8325 49.4068L52.1266 48.6987Z" fill="white"/>
<path d="M32.4069 28.9169L32.2428 29.0815L32.9487 29.7896L33.1128 29.625L32.4069 28.9169Z" fill="white"/>
<path d="M44.7935 39.5636C44.7935 39.401 44.7744 39.2432 44.7391 39.0908L42.7181 22.2614L40.6971 39.0908C40.6618 39.2426 40.6427 39.401 40.6427 39.5636C40.6427 39.6008 40.6439 39.638 40.6457 39.6752C40.6439 39.7124 40.6427 39.7496 40.6427 39.7868C40.6427 39.9494 40.6618 40.1072 40.6971 40.259L42.7181 57.0884L44.7391 40.259C44.7744 40.1072 44.7935 39.9488 44.7935 39.7862C44.7935 39.749 44.7924 39.7118 44.7906 39.6746C44.7924 39.6374 44.7935 39.6002 44.7935 39.563V39.5636ZM42.7181 40.6676C42.1691 40.6676 41.7241 40.2242 41.7169 39.6752C41.7235 39.1262 42.1691 38.6828 42.7181 38.6828C43.2672 38.6828 43.7122 39.1262 43.7194 39.6752C43.7128 40.2242 43.2672 40.6676 42.7181 40.6676Z" fill="#494949"/>
<path d="M42.364 41.8178C42.5261 41.8178 42.6834 41.7986 42.8353 41.7632L59.6115 39.7358L42.8353 37.7084C42.684 37.673 42.5261 37.6538 42.364 37.6538C42.3269 37.6538 42.2898 37.655 42.2527 37.6568C42.2163 37.655 42.1786 37.6538 42.1415 37.6538C41.9794 37.6538 41.8221 37.673 41.6708 37.7084L24.8945 39.7358L41.6708 41.7632C41.8221 41.7986 41.98 41.8178 42.1421 41.8178C42.1792 41.8178 42.2169 41.8166 42.2533 41.8148C42.2904 41.8166 42.3275 41.8178 42.3646 41.8178H42.364ZM41.2635 39.7358C41.2635 39.185 41.7049 38.7386 42.2527 38.7314C42.8 38.738 43.242 39.185 43.242 39.7358C43.242 40.2866 42.8 40.733 42.2527 40.7402C41.7055 40.7336 41.2635 40.2866 41.2635 39.7358Z" fill="#494949"/>
<path d="M42.4549 40.442C41.9016 40.442 41.4536 39.992 41.4536 39.437H25.0835L41.8598 41.4644C42.0111 41.4998 42.169 41.519 42.3311 41.519C43.477 41.519 44.4065 40.5866 44.4065 39.437H43.4561C43.4561 39.992 43.0075 40.442 42.4543 40.442H42.4549Z" fill="#E8E8E8"/>
<path d="M42.3311 37.355C42.169 37.355 42.0117 37.3742 41.8598 37.4096L25.0835 39.437H41.453C41.453 38.882 41.9016 38.4326 42.4543 38.4326C43.0069 38.4326 43.4561 38.8826 43.4561 39.437H44.4065C44.4065 38.2874 43.477 37.355 42.3311 37.355V37.355Z" fill="white"/>
<path d="M42.4168 38.4326C42.9701 38.4326 43.4187 38.8826 43.4187 39.437H59.7882L43.0119 37.4096C42.8606 37.3742 42.7027 37.355 42.5406 37.355C41.3947 37.355 40.4652 38.2874 40.4652 39.437H41.415C41.415 38.882 41.8636 38.4326 42.4168 38.4326V38.4326Z" fill="white"/>
<path d="M42.5404 41.519C42.7025 41.519 42.8598 41.4998 43.0117 41.4644L59.7879 39.437H43.4178C43.4178 39.992 42.9692 40.442 42.416 40.442C41.8627 40.442 41.4141 39.992 41.4141 39.437H40.4644C40.4644 40.5872 41.3938 41.519 42.5398 41.519H42.5404Z" fill="#E8E8E8"/>
<path d="M43.4215 39.4724C43.4215 40.0274 42.9729 40.4768 42.4203 40.4768V56.8982L44.4413 40.0694C44.4766 39.9176 44.4957 39.7592 44.4957 39.5966C44.4957 38.4464 43.5663 37.5146 42.4203 37.5146V38.4674C42.9735 38.4674 43.4215 38.9174 43.4215 39.4724V39.4724Z" fill="#009EDA"/>
<path d="M40.3448 39.5966C40.3448 39.7592 40.364 39.917 40.3993 40.0688L42.4203 56.8982V40.4768C41.867 40.4768 41.4184 40.0268 41.4184 39.4724C41.4184 38.918 41.867 38.4674 42.4203 38.4674V37.5146C41.2743 37.5146 40.3448 38.447 40.3448 39.5966V39.5966Z" fill="#CCECF8"/>
<path d="M41.4184 39.5108C41.4184 38.9558 41.867 38.5058 42.4203 38.5058V22.0844L40.3993 38.9138C40.364 39.0656 40.3448 39.224 40.3448 39.3866C40.3448 40.5368 41.2743 41.4686 42.4203 41.4686V40.5152C41.867 40.5152 41.4184 40.0652 41.4184 39.5108V39.5108Z" fill="#CF1A5D"/>
<path d="M44.4957 39.3866C44.4957 39.224 44.4766 39.0662 44.4413 38.9144L42.4203 22.085V38.5058C42.9735 38.5058 43.4215 38.9558 43.4215 39.5108C43.4215 40.0658 42.9729 40.5152 42.4203 40.5152V41.4686C43.5669 41.4686 44.4957 40.5362 44.4957 39.3866V39.3866Z" fill="#A4262C"/>
<path d="M43.583 39.467C43.583 40.1108 43.0627 40.6334 42.4203 40.6334C41.7779 40.6334 41.2576 40.1114 41.2576 39.467C41.2576 38.8226 41.7779 38.3006 42.4203 38.3006C43.0627 38.3006 43.583 38.8226 43.583 39.467Z" fill="white"/>
<path d="M43.5172 39.467C43.5172 40.0748 43.0262 40.5674 42.4203 40.5674C41.8144 40.5674 41.3234 40.0748 41.3234 39.467C41.3234 38.8592 41.8144 38.3666 42.4203 38.3666C43.0262 38.3666 43.5172 38.8592 43.5172 39.467Z" fill="white"/>
<path d="M43.0399 39.467C43.0399 39.8108 42.7624 40.0892 42.4197 40.0892C42.077 40.0892 41.7994 39.8108 41.7994 39.467C41.7994 39.1232 42.077 38.8448 42.4197 38.8448C42.7624 38.8448 43.0399 39.1232 43.0399 39.467Z" fill="white"/>
<path d="M42.9591 39.467C42.9591 39.7652 42.7181 40.0076 42.4202 40.0076C42.1224 40.0076 41.8813 39.7658 41.8813 39.467C41.8813 39.1682 42.1224 38.9264 42.4202 38.9264C42.7181 38.9264 42.9591 39.1682 42.9591 39.467Z" fill="black"/>
<path d="M42.8736 39.467C42.8736 39.7178 42.6709 39.9212 42.4203 39.9212C42.1697 39.9212 41.9669 39.7178 41.9669 39.467C41.9669 39.2162 42.1697 39.0122 42.4203 39.0122C42.6709 39.0122 42.8736 39.2156 42.8736 39.467Z" fill="#3F3F3F"/>
<path d="M42.7384 39.467C42.7384 39.6434 42.5961 39.7862 42.4202 39.7862C42.2444 39.7862 42.1021 39.6434 42.1021 39.467C42.1021 39.2906 42.2444 39.1478 42.4202 39.1478C42.5961 39.1478 42.7384 39.2906 42.7384 39.467Z" fill="white"/>
</g>
</g>
<defs>
<filter id="filter0_dd_750_57496" x="0.4" y="1.19209e-07" width="82.2" height="82.2" filterUnits="userSpaceOnUse" color-interpolation-filters="sRGB">
<feFlood flood-opacity="0" result="BackgroundImageFix"/>
<feColorMatrix in="SourceAlpha" type="matrix" values="0 0 0 0 0 0 0 0 0 0 0 0 0 0 0 0 0 0 127 0" result="hardAlpha"/>
<feOffset dy="1.6"/>
<feGaussianBlur stdDeviation="1.8"/>
<feColorMatrix type="matrix" values="0 0 0 0 0 0 0 0 0 0 0 0 0 0 0 0 0 0 0.13 0"/>
<feBlend mode="normal" in2="BackgroundImageFix" result="effect1_dropShadow_750_57496"/>
<feColorMatrix in="SourceAlpha" type="matrix" values="0 0 0 0 0 0 0 0 0 0 0 0 0 0 0 0 0 0 127 0" result="hardAlpha"/>
<feOffset dy="0.3"/>
<feGaussianBlur stdDeviation="0.45"/>
<feColorMatrix type="matrix" values="0 0 0 0 0 0 0 0 0 0 0 0 0 0 0 0 0 0 0.1 0"/>
<feBlend mode="normal" in2="effect1_dropShadow_750_57496" result="effect2_dropShadow_750_57496"/>
<feBlend mode="normal" in="SourceGraphic" in2="effect2_dropShadow_750_57496" result="shape"/>
</filter>
<clipPath id="clip0_750_57496">
<rect width="56" height="57" fill="white" transform="translate(14 11)"/>
</clipPath>
</defs>
</svg>
