<svg width="22" height="30" viewBox="0 0 22 30" fill="none" xmlns="http://www.w3.org/2000/svg">
<path d="M14.5555 0.333252V7.66659H21.6666L14.5555 0.333252ZM16.3333 14.9999H5.66659V18.6666H16.3333V14.9999ZM12.7777 7.66659V0.333252H2.99992C1.52714 0.333252 0.333252 1.56445 0.333252 3.08325V26.9166C0.333252 28.4348 1.52714 29.6666 2.99992 29.6666H18.9999C20.4727 29.6666 21.6666 28.4354 21.6666 26.9166V9.49992H14.6055C13.5721 9.49992 12.7777 8.68065 12.7777 7.66659ZM3.88881 4.45825C3.88881 4.20789 4.09047 3.99992 4.33325 3.99992H8.7777C9.02214 3.99992 9.22214 4.20789 9.22214 4.45825V5.37492C9.22214 5.62586 9.02214 5.83325 8.7777 5.83325H4.33325C4.09047 5.83325 3.88881 5.62586 3.88881 5.37492V4.45825ZM3.88881 8.12492C3.88881 7.87284 4.09047 7.66659 4.33325 7.66659H8.7777C9.02214 7.66659 9.22214 7.87284 9.22214 8.12492V9.04159C9.22214 9.29367 9.02214 9.49992 8.7777 9.49992H4.33325C4.09047 9.49992 3.88881 9.29367 3.88881 9.04159V8.12492ZM18.111 25.5416C18.111 25.7922 17.9096 25.9999 17.6666 25.9999H13.2221C12.9777 25.9999 12.7777 25.7937 12.7777 25.5416V24.6249C12.7777 24.3743 12.9791 24.1666 13.2221 24.1666H17.6666C17.9096 24.1666 18.111 24.3743 18.111 24.6249V25.5416ZM18.111 14.0833V19.5833C18.111 20.0917 17.7152 20.4999 17.2221 20.4999H4.7777C4.28492 20.4999 3.88881 20.0931 3.88881 19.5833V14.0833C3.88881 13.5734 4.28492 13.1666 4.7777 13.1666H17.2221C17.7166 13.1666 18.111 13.5734 18.111 14.0833Z" fill="currentColor"/>
</svg>
