<svg width="32" height="32" viewBox="0 0 32 32" fill="none" xmlns="http://www.w3.org/2000/svg">
<path d="M26.6666 9.66663H19.5555V2.66663L26.6666 9.66663ZM19.5555 11.4166H26.6666V28.0416C26.6666 29.4914 25.4727 30.6666 23.9999 30.6666H7.99992C6.52714 30.6666 5.33325 29.4908 5.33325 28.0416V5.29163C5.33325 3.84186 6.52714 2.66663 7.99992 2.66663H17.7777L17.7779 9.66663C17.7777 10.6346 18.5721 11.4166 19.5555 11.4166ZM8.88881 7.47913C8.88881 7.71866 9.09047 7.91663 9.33325 7.91663H13.7777C14.0221 7.91663 14.2221 7.71866 14.2221 7.47913V6.60413C14.2221 6.36514 14.0221 6.16663 13.7777 6.16663H9.33325C9.09047 6.16663 8.88881 6.36514 8.88881 6.60413V7.47913ZM9.33325 11.4166H13.7777C14.0221 11.4166 14.2221 11.2198 14.2221 10.9791V10.1041C14.2221 9.8635 14.0221 9.66663 13.7777 9.66663H9.33325C9.09047 9.66663 8.88881 9.8635 8.88881 10.1041V10.9791C8.88881 11.2198 9.09047 11.4166 9.33325 11.4166ZM16.3055 19.9916L15.9499 19.9041C14.6833 19.5213 14.711 19.2971 14.7555 19.1002C14.8319 18.673 15.6771 18.5687 16.4371 18.6832C16.7479 18.7294 17.0888 18.837 17.4144 18.9481C17.9916 19.1447 18.6271 18.8421 18.8283 18.2733C19.0296 17.7024 18.7232 17.0789 18.1433 16.8804C17.7422 16.7446 17.4149 16.6574 17.1121 16.592V16.2291C17.1121 15.6259 16.6148 15.1354 16.001 15.1354C15.3873 15.1354 14.8899 15.6259 14.8899 16.2291V16.5568C13.6444 16.8198 12.7666 17.5854 12.5666 18.7283C12.1551 21.0712 14.4105 21.7225 15.3733 22.0008L15.6961 22.0932C17.3228 22.5512 17.2961 22.7051 17.2473 22.9835C17.1709 23.4107 16.3256 23.5167 15.5634 23.4005C15.1779 23.3441 14.685 23.1697 14.2489 23.016L14.0006 22.9271C13.4223 22.7305 12.7879 23.0262 12.5829 23.5954C12.3789 24.1647 12.6818 24.7897 13.2606 24.9915L13.4976 25.0736C13.9286 25.2261 14.4076 25.3793 14.8899 25.4844V25.8541C14.8899 26.4573 15.3873 26.9479 16.001 26.9479C16.6147 26.9479 17.1121 26.4574 17.1121 25.8541V25.5121C18.3543 25.25 19.2349 24.4988 19.436 23.3558C19.8499 20.9869 17.5444 20.3362 16.3055 19.9916Z" fill="currentColor"/>
</svg>
