<svg width="24" height="24" viewBox="0 0 24 24" fill="none" xmlns="http://www.w3.org/2000/svg">
<path d="M6.46296 12C6.46296 13.6554 5.12822 15 3.48148 15C1.83475 15 0.5 13.6554 0.5 12C0.5 10.3446 1.83475 9 3.48148 9C5.12822 9 6.46296 10.3446 6.46296 12ZM14.9815 12C14.9815 13.6554 13.6451 15 12 15C10.3549 15 9.01852 13.6554 9.01852 12C9.01852 10.3446 10.3549 9 12 9C13.6451 9 14.9815 10.3446 14.9815 12ZM17.537 12C17.537 10.3446 18.8734 9 20.5185 9C22.1637 9 23.5 10.3446 23.5 12C23.5 13.6554 22.1637 15 20.5185 15C18.8734 15 17.537 13.6554 17.537 12Z" fill="currentColor"/>
</svg>
