<svg width="24" height="24" viewBox="0 0 24 24" fill="none" xmlns="http://www.w3.org/2000/svg">
<path d="M21.625 16.125H15.8887L13.9443 18.0693C13.4266 18.5871 12.7348 18.875 12 18.875C11.2652 18.875 10.5752 18.589 10.0557 18.0693L8.11133 16.125H2.375C1.61574 16.125 1 16.7407 1 17.5V21.625C1 22.3843 1.61574 23 2.375 23H21.625C22.3843 23 23 22.3843 23 21.625V17.5C23 16.7395 22.3855 16.125 21.625 16.125ZM19.5625 20.5938C18.9953 20.5938 18.5312 20.1297 18.5312 19.5625C18.5312 18.9953 18.9953 18.5312 19.5625 18.5312C20.1297 18.5312 20.5938 18.9953 20.5938 19.5625C20.5938 20.1297 20.1297 20.5938 19.5625 20.5938ZM11.0289 17.0961C11.2953 17.3668 11.6477 17.5 12 17.5C12.3523 17.5 12.7038 17.3657 12.972 17.0972L18.472 11.5972C19.0086 11.0601 19.0086 10.1899 18.472 9.65283C17.9348 9.11572 17.0643 9.11572 16.5276 9.65283L13.375 12.8078V2.375C13.375 1.61574 12.7593 1 12 1C11.2395 1 10.625 1.61574 10.625 2.375V12.8078L7.47109 9.65391C6.93441 9.1168 6.06387 9.1168 5.52676 9.65391C4.99008 10.191 4.99008 11.0611 5.52676 11.5982L11.0289 17.0961Z" fill="currentColor"/>
</svg>
