<svg width="28" height="28" viewBox="0 0 28 28" fill="none" xmlns="http://www.w3.org/2000/svg">
  <path
    d="M15.6739 2.00003C15.6739 0.895656 16.5494 3.05176e-05 17.6331 3.05176e-05H25.4698C26.5535 3.05176e-05 27.429 0.895656 27.429 2.00003V10C27.429 11.1063 26.5535 12 25.4698 12C24.3861 12 23.5106 11.1063 23.5106 10V6.83128L13.1392 17.4125C12.3739 18.1938 11.1371 18.1938 10.3718 17.4125C9.60652 16.6313 9.60652 15.3688 10.3718 14.5875L20.7372 4.00003H17.6331C16.5494 4.00003 15.6739 3.10441 15.6739 2.00003Z"
    fill="#757575" />
  <path opacity="0.4"
    d="M0 6.00003C0 3.79066 1.75408 2.00003 3.91837 2.00003H9.79593C10.8796 2.00003 11.7551 2.89566 11.7551 4.00003C11.7551 5.10628 10.8796 6.00003 9.79593 6.00003H3.91837V24H21.551V18C21.551 16.8938 22.4266 16 23.5102 16C24.5939 16 25.4694 16.8938 25.4694 18V24C25.4694 26.2063 23.7123 28 21.551 28H3.91837C1.75408 28 0 26.2063 0 24V6.00003Z"
    fill="#757575" />
</svg>