<svg width="32" height="32" viewBox="0 0 32 32" fill="none" xmlns="http://www.w3.org/2000/svg">
<path d="M8.24027 9.19862C10.2707 7.76114 12.874 6.66656 15.9998 6.66656C19.7031 6.66656 22.6685 8.20155 24.8272 10.0249C26.9722 11.8332 28.4068 13.9623 29.0851 15.4873C29.2363 15.8165 29.2363 16.1831 29.0851 16.5123C28.4709 17.8581 27.238 19.7539 25.423 21.4456L30.2447 24.8789C30.7213 25.2205 30.8084 25.8497 30.4326 26.283C30.0568 26.7164 29.3647 26.7955 28.888 26.4539L1.75472 7.12031C1.27659 6.77948 1.19277 6.15115 1.56754 5.71641C1.94236 5.28175 2.63352 5.20554 3.11202 5.54624L8.24027 9.19862ZM11.5586 11.5623L15.6973 14.5123C15.8898 14.1582 15.9998 13.7582 15.9998 13.2957C15.9998 12.854 15.821 12.404 15.6148 12.0165C15.7431 12.004 15.8715 11.9623 15.9998 11.9623C18.4289 11.9623 20.3997 13.754 20.3997 15.9623C20.3997 16.5706 20.2668 17.1123 19.9918 17.6039L21.8022 18.8623C22.311 18.0123 22.5997 17.0373 22.5997 15.9623C22.5997 12.6873 19.6435 9.96236 15.9998 9.96236C14.2902 9.96236 12.7273 10.5915 11.5586 11.5623ZM15.9998 25.333C12.2965 25.333 9.33109 23.7997 7.17236 21.9747C5.0283 20.1289 3.59464 17.9998 2.91265 16.5123C2.76232 16.1831 2.76232 15.8165 2.91265 15.4873C3.34989 14.5331 4.09651 13.2998 5.1415 12.0623L9.46401 15.1581C9.42276 15.4331 9.39984 15.7123 9.39984 15.9623C9.39984 19.3123 12.3561 21.9997 15.9998 21.9997C16.8569 21.9997 17.6773 21.8497 18.4289 21.5789L21.7839 23.9789C20.1202 24.7955 18.1906 25.333 15.9998 25.333Z" fill="currentColor"/>
</svg>
