<svg width="32" height="32" viewBox="0 0 32 32" fill="none" xmlns="http://www.w3.org/2000/svg">
<path d="M15.5728 11.4475C15.7154 11.4333 15.858 11.4285 16.0006 11.4285C18.6997 11.4285 20.8897 13.4333 20.8897 15.9999C20.8897 18.5237 18.6997 20.5713 16.0006 20.5713C13.2555 20.5713 11.1115 18.5237 11.1115 15.9999C11.1115 15.8666 11.1166 15.7333 11.1318 15.5999C11.6055 15.8142 12.1555 15.9999 12.7412 15.9999C14.5389 15.9999 16.0006 14.6333 16.0006 12.9523C16.0006 12.4047 15.8019 11.8904 15.5728 11.4475ZM25.8093 9.17135C28.1928 11.238 29.7868 13.6713 30.5405 15.4142C30.7086 15.7904 30.7086 16.2094 30.5405 16.5856C29.7868 18.2856 28.1928 20.719 25.8093 22.8285C23.4106 24.9142 20.1156 26.6666 16.0006 26.6666C11.8856 26.6666 8.59052 24.9142 6.19282 22.8285C3.80938 20.719 2.21635 18.2856 1.45859 16.5856C1.29147 16.2094 1.29147 15.7904 1.45859 15.4142C2.21635 13.6713 3.80938 11.238 6.19282 9.17135C8.59052 7.08754 11.8856 5.33325 16.0006 5.33325C20.1156 5.33325 23.4106 7.08754 25.8093 9.17135ZM16.0006 9.14278C11.9518 9.14278 8.66691 12.2142 8.66691 15.9999C8.66691 19.7856 11.9518 22.8571 16.0006 22.8571C20.0493 22.8571 23.3342 19.7856 23.3342 15.9999C23.3342 12.2142 20.0493 9.14278 16.0006 9.14278Z" fill="currentColor"/>
</svg>
