<svg width="32" height="32" viewBox="0 0 32 32" fill="none" xmlns="http://www.w3.org/2000/svg">
<path d="M2.66675 7.16671C2.66675 6.15264 3.51794 5.33337 4.57151 5.33337H27.4287C28.4822 5.33337 29.3334 6.15264 29.3334 7.16671C29.3334 8.18077 28.4822 9.00004 27.4287 9.00004H4.57151C3.51794 9.00004 2.66675 8.18077 2.66675 7.16671ZM6.47627 16.3334C6.47627 15.3193 7.32746 14.5 8.38103 14.5H23.6191C24.6727 14.5 25.5239 15.3193 25.5239 16.3334C25.5239 17.3474 24.6727 18.1667 23.6191 18.1667H8.38103C7.32746 18.1667 6.47627 17.3474 6.47627 16.3334ZM19.8096 25.5C19.8096 26.5141 18.9584 27.3334 17.9048 27.3334H14.0953C13.0417 27.3334 12.1906 26.5141 12.1906 25.5C12.1906 24.486 13.0417 23.6667 14.0953 23.6667H17.9048C18.9584 23.6667 19.8096 24.486 19.8096 25.5Z" fill="currentColor"/>
</svg>
