<svg width="24" height="24" viewBox="0 0 24 24" fill="none" xmlns="http://www.w3.org/2000/svg">
<path d="M6.96094 20.6532C6.51562 21.0235 5.89219 21.1078 5.3625 20.8594C4.83281 20.611 4.5 20.0813 4.5 19.5V4.50003C4.5 3.91878 4.8375 3.38909 5.3625 3.14065C5.8875 2.89221 6.51094 2.9719 6.96094 3.3469L15.9609 10.8469L16.5 11.2969V4.50003C16.5 3.67034 17.1703 3.00003 18 3.00003C18.8297 3.00003 19.5 3.67034 19.5 4.50003V19.5C19.5 20.3297 18.8297 21 18 21C17.1703 21 16.5 20.3297 16.5 19.5V12.7032L15.9609 13.1532L6.96094 20.6532Z" fill="currentColor"/>
</svg>
