<svg width="24" height="24" viewBox="0 0 24 24" fill="none" xmlns="http://www.w3.org/2000/svg">
<path d="M6 2C6 0.895625 6.89562 0 8 0C9.10437 0 10 0.895625 10 2C10 3.10625 9.10437 4 8 4C6.89562 4 6 3.10625 6 2ZM6 12C6 10.8938 6.89562 10 8 10C9.10437 10 10 10.8938 10 12C10 13.1062 9.10437 14 8 14C6.89562 14 6 13.1062 6 12ZM10 22C10 23.1063 9.10437 24 8 24C6.89562 24 6 23.1063 6 22C6 20.8937 6.89562 20 8 20C9.10437 20 10 20.8937 10 22ZM14 2C14 0.895625 14.8938 0 16 0C17.1062 0 18 0.895625 18 2C18 3.10625 17.1062 4 16 4C14.8938 4 14 3.10625 14 2ZM18 12C18 13.1062 17.1062 14 16 14C14.8938 14 14 13.1062 14 12C14 10.8938 14.8938 10 16 10C17.1062 10 18 10.8938 18 12ZM14 22C14 20.8937 14.8938 20 16 20C17.1062 20 18 20.8937 18 22C18 23.1063 17.1062 24 16 24C14.8938 24 14 23.1063 14 22Z" fill="currentColor"/>
</svg>
