<svg width="24" height="24" viewBox="0 0 24 24" fill="none" xmlns="http://www.w3.org/2000/svg">
<path d="M1 6.75009C1 6.2661 1.39102 5.87509 1.875 5.87509H4.5C4.98398 5.87509 5.375 6.2661 5.375 6.75009C5.375 7.23407 4.98398 7.62509 4.5 7.62509H4.0625V10.6876H10.1875V7.62509H9.75C9.26602 7.62509 8.875 7.23407 8.875 6.75009C8.875 6.2661 9.26602 5.87509 9.75 5.87509H12.375C12.859 5.87509 13.25 6.2661 13.25 6.75009C13.25 7.23407 12.859 7.62509 12.375 7.62509H11.9375V16.3751H12.375C12.859 16.3751 13.25 16.7661 13.25 17.2501C13.25 17.7341 12.859 18.1251 12.375 18.1251H9.75C9.26602 18.1251 8.875 17.7341 8.875 17.2501C8.875 16.7661 9.26602 16.3751 9.75 16.3751H10.1875V12.4376H4.0625V16.3751H4.5C4.98398 16.3751 5.375 16.7661 5.375 17.2501C5.375 17.7341 4.98398 18.1251 4.5 18.1251H1.875C1.39102 18.1251 1 17.7341 1 17.2501C1 16.7661 1.39102 16.3751 1.875 16.3751H2.3125V7.62509H1.875C1.39102 7.62509 1 7.23407 1 6.75009Z" fill="currentColor"/>
<path d="M20.625 6.75009C20.625 6.42743 20.4473 6.13212 20.1629 5.97899C19.8785 5.82587 19.534 5.84228 19.2633 6.02275L16.6383 7.77275C16.2363 8.04071 16.1297 8.58212 16.3977 8.98681C16.6656 9.39149 17.2098 9.49814 17.6117 9.23017L18.875 8.38525V16.3751H17.125C16.641 16.3751 16.25 16.7661 16.25 17.2501C16.25 17.7341 16.641 18.1251 17.125 18.1251H22.375C22.859 18.1251 23.25 17.7341 23.25 17.2501C23.25 16.7661 22.859 16.3751 22.375 16.3751H20.625V6.75009Z" fill="currentColor"/>
</svg>
