<svg width="24" height="24" viewBox="0 0 24 24" fill="none" xmlns="http://www.w3.org/2000/svg">
<path d="M0 6.87524C0 6.39126 0.391016 6.00024 0.875 6.00024H3.5C3.98398 6.00024 4.375 6.39126 4.375 6.87524C4.375 7.35923 3.98398 7.75024 3.5 7.75024H3.0625V10.8127H9.1875V7.75024H8.75C8.26602 7.75024 7.875 7.35923 7.875 6.87524C7.875 6.39126 8.26602 6.00024 8.75 6.00024H11.375C11.859 6.00024 12.25 6.39126 12.25 6.87524C12.25 7.35923 11.859 7.75024 11.375 7.75024H10.9375V16.5002H11.375C11.859 16.5002 12.25 16.8913 12.25 17.3752C12.25 17.8592 11.859 18.2502 11.375 18.2502H8.75C8.26602 18.2502 7.875 17.8592 7.875 17.3752C7.875 16.8913 8.26602 16.5002 8.75 16.5002H9.1875V12.5627H3.0625V16.5002H3.5C3.98398 16.5002 4.375 16.8913 4.375 17.3752C4.375 17.8592 3.98398 18.2502 3.5 18.2502H0.875C0.391016 18.2502 0 17.8592 0 17.3752C0 16.8913 0.391016 16.5002 0.875 16.5002H1.3125V7.75024H0.875C0.391016 7.75024 0 7.35923 0 6.87524Z" fill="currentColor"/>
<path d="M15.25 6.87524C15.25 6.39126 15.641 6.00024 16.125 6.00024H22.6875C23.0484 6.00024 23.3711 6.22173 23.5023 6.55806C23.6336 6.89438 23.5434 7.2772 23.2781 7.52056L19.6879 10.8127H20.2812C22.3348 10.8127 24 12.478 24 14.5315C24 16.585 22.3348 18.2502 20.2812 18.2502H18.132C16.9727 18.2502 15.9117 17.594 15.3949 16.5577L15.343 16.4538C15.127 16.0217 15.302 15.4967 15.734 15.2807C16.166 15.0647 16.691 15.2397 16.907 15.6717L16.959 15.7756C17.1805 16.2213 17.6371 16.5002 18.132 16.5002H20.2812C21.3695 16.5002 22.25 15.6198 22.25 14.5315C22.25 13.4432 21.3695 12.5627 20.2812 12.5627H17.4375C17.0766 12.5627 16.7539 12.3413 16.6227 12.0049C16.4914 11.6686 16.5816 11.2858 16.8469 11.0424L20.4371 7.75024H16.125C15.641 7.75024 15.25 7.35923 15.25 6.87524Z" fill="currentColor"/>
</svg>
