<svg width="24" height="24" viewBox="0 0 24 24" fill="none" xmlns="http://www.w3.org/2000/svg">
<path d="M0 6.875C0 6.39102 0.391016 6 0.875 6H3.5C3.98398 6 4.375 6.39102 4.375 6.875C4.375 7.35898 3.98398 7.75 3.5 7.75H3.0625V10.8125H9.1875V7.75H8.75C8.26602 7.75 7.875 7.35898 7.875 6.875C7.875 6.39102 8.26602 6 8.75 6H11.375C11.859 6 12.25 6.39102 12.25 6.875C12.25 7.35898 11.859 7.75 11.375 7.75H10.9375V16.5H11.375C11.859 16.5 12.25 16.891 12.25 17.375C12.25 17.859 11.859 18.25 11.375 18.25H8.75C8.26602 18.25 7.875 17.859 7.875 17.375C7.875 16.891 8.26602 16.5 8.75 16.5H9.1875V12.5625H3.0625V16.5H3.5C3.98398 16.5 4.375 16.891 4.375 17.375C4.375 17.859 3.98398 18.25 3.5 18.25H0.875C0.391016 18.25 0 17.859 0 17.375C0 16.891 0.391016 16.5 0.875 16.5H1.3125V7.75H0.875C0.391016 7.75 0 7.35898 0 6.875Z" fill="currentColor"/>
<path d="M16.1387 6.71914C16.2152 6.30352 16.5762 6 17 6H22.25C22.734 6 23.125 6.39102 23.125 6.875C23.125 7.35898 22.734 7.75 22.25 7.75H17.7301L17.1723 10.8125H20.2812C22.3348 10.8125 24 12.4777 24 14.5312C24 16.5848 22.3348 18.25 20.2812 18.25H17.998C16.9207 18.25 15.9363 17.6402 15.4551 16.6777L15.343 16.4535C15.127 16.0215 15.302 15.4965 15.734 15.2805C16.166 15.0645 16.691 15.2395 16.907 15.6715L17.0191 15.8957C17.2051 16.2676 17.5824 16.5 17.998 16.5H20.2812C21.3695 16.5 22.25 15.6195 22.25 14.5312C22.25 13.443 21.3695 12.5625 20.2812 12.5625H16.125C15.8652 12.5625 15.6191 12.4477 15.4523 12.248C15.2855 12.0484 15.2172 11.7859 15.2637 11.5316L16.1387 6.71914Z" fill="currentColor"/>
</svg>
