<svg width="24" height="24" viewBox="0 0 24 24" fill="none" xmlns="http://www.w3.org/2000/svg">
<path d="M0 6.875C0 6.39102 0.391016 6 0.875 6H3.5C3.98398 6 4.375 6.39102 4.375 6.875C4.375 7.35898 3.98398 7.75 3.5 7.75H3.0625V10.8125H9.1875V7.75H8.75C8.26602 7.75 7.875 7.35898 7.875 6.875C7.875 6.39102 8.26602 6 8.75 6H11.375C11.859 6 12.25 6.39102 12.25 6.875C12.25 7.35898 11.859 7.75 11.375 7.75H10.9375V16.5H11.375C11.859 16.5 12.25 16.891 12.25 17.375C12.25 17.859 11.859 18.25 11.375 18.25H8.75C8.26602 18.25 7.875 17.859 7.875 17.375C7.875 16.891 8.26602 16.5 8.75 16.5H9.1875V12.5625H3.0625V16.5H3.5C3.98398 16.5 4.375 16.891 4.375 17.375C4.375 17.859 3.98398 18.25 3.5 18.25H0.875C0.391016 18.25 0 17.859 0 17.375C0 16.891 0.391016 16.5 0.875 16.5H1.3125V7.75H0.875C0.391016 7.75 0 7.35898 0 6.875Z" fill="currentColor"/>
<path d="M21.6047 7.44102C21.9164 7.07187 21.8699 6.51953 21.5008 6.20781C21.1316 5.89609 20.5793 5.94258 20.2676 6.31172L16.3055 10.9957C15.652 11.7668 15.2801 12.7375 15.2527 13.7438C15.2527 13.782 15.25 13.823 15.25 13.8613C15.25 13.8668 15.25 13.8695 15.25 13.875C15.25 16.2922 17.2078 18.25 19.625 18.25C22.0422 18.25 24 16.2922 24 13.875C24 11.5371 22.1652 9.62578 19.8574 9.50547L21.6047 7.43828V7.44102ZM22.25 13.875C22.25 14.5712 21.9734 15.2389 21.4812 15.7312C20.9889 16.2234 20.3212 16.5 19.625 16.5C18.9288 16.5 18.2611 16.2234 17.7688 15.7312C17.2766 15.2389 17 14.5712 17 13.875C17 13.1788 17.2766 12.5111 17.7688 12.0188C18.2611 11.5266 18.9288 11.25 19.625 11.25C20.3212 11.25 20.9889 11.5266 21.4812 12.0188C21.9734 12.5111 22.25 13.1788 22.25 13.875Z" fill="currentColor"/>
</svg>
