<svg width="24" height="24" viewBox="0 0 24 24" fill="none" xmlns="http://www.w3.org/2000/svg">
<path d="M21.1667 3H6.5C5.48747 3 4.66667 3.86344 4.66667 4.92857V15.2143C4.66667 16.2794 5.48747 17.1429 6.5 17.1429H21.1667C22.1792 17.1429 23 16.2794 23 15.2143V4.92857C23 3.86344 22.1788 3 21.1667 3ZM9.52118 5.57143C10.1965 5.57143 10.7434 6.14719 10.7434 6.85714C10.7434 7.5671 10.2316 8.14286 9.52118 8.14286C8.84629 8.14286 8.29896 7.5671 8.29896 6.85714C8.29896 6.14719 8.87951 5.57143 9.52118 5.57143ZM19.8719 14.2339C19.7649 14.4429 19.5587 14.5714 19.3333 14.5714H8.33333C8.10329 14.5714 7.89295 14.4357 7.78868 14.2199C7.68441 14.0042 7.70408 13.7454 7.83956 13.5497L10.5132 9.69254C10.6288 9.525 10.8122 9.42857 11.0069 9.42857C11.2022 9.42857 11.3857 9.52665 11.5008 9.69271L12.3544 10.9246L14.7508 7.14337C14.8302 6.96562 15.0212 6.85714 15.258 6.85714C15.4622 6.85714 15.6529 6.9645 15.7664 7.14341L19.8417 13.572C19.9674 13.7679 19.9788 14.021 19.8719 14.2339ZM18.4167 19.0714H5.58333C4.06701 19.0714 2.83333 17.7737 2.83333 16.1786V6.53571C2.83333 6.00536 2.42274 5.57143 1.91667 5.57143C1.41059 5.57143 1 6.00536 1 6.53571V16.1786C1 18.8384 3.05601 21 5.58333 21H18.4167C18.9227 21 19.3333 20.5681 19.3333 20.0357C19.3333 19.5033 18.9247 19.0714 18.4167 19.0714Z" fill="currentColor"/>
</svg>
