<svg width="32" height="32" viewBox="0 0 32 32" fill="none" xmlns="http://www.w3.org/2000/svg">
<path d="M3.3209 12.3L5.38281 6.01813C6.17207 3.61125 8.30078 2 10.6914 2H21.3086C23.6992 2 25.8262 3.61125 26.6172 6.01813L28.6797 12.3C30.0391 12.9 31 14.3313 31 16V28C31 29.1063 30.1621 30 29.125 30H27.25C26.2129 30 25.375 29.1063 25.375 28V25H6.625V28C6.625 29.1063 5.78535 30 4.75 30H2.875C1.83965 30 1 29.1063 1 28V16C1 14.3313 1.95859 12.9 3.3209 12.3ZM7.39258 12H24.6074L23.0781 7.3375C22.8145 6.5375 22.1055 6 21.3086 6H10.6914C9.89453 6 9.18555 6.5375 8.92188 7.3375L7.39258 12ZM6.625 16C5.58965 16 4.75 16.8938 4.75 18C4.75 19.1063 5.58965 20 6.625 20C7.66211 20 8.5 19.1063 8.5 18C8.5 16.8938 7.66211 16 6.625 16ZM25.375 20C26.4121 20 27.25 19.1063 27.25 18C27.25 16.8938 26.4121 16 25.375 16C24.3379 16 23.5 16.8938 23.5 18C23.5 19.1063 24.3379 20 25.375 20Z" fill="currentColor"/>
</svg>
