<svg width="32" height="32" viewBox="0 0 32 32" fill="none" xmlns="http://www.w3.org/2000/svg">
  <path
    d="M15.9998 11.7389C14.0669 11.7389 12.4998 13.6656 12.4998 16.0429C12.4998 18.4197 14.0665 20.3469 15.9998 20.3469C17.9322 20.3469 19.4997 18.4206 19.4997 16.0429C19.4997 13.6656 17.9326 11.7389 15.9998 11.7389ZM29.1753 7.0027C27.4783 6.27636 25.7799 6.00002 24.0825 6.00002C18.6939 5.99957 13.3057 8.78306 7.9171 8.78306C6.56568 8.78306 5.21514 8.60806 3.86372 8.17056C3.71191 8.12145 3.55966 8.09823 3.41092 8.09823C2.65799 8.09823 2 8.69288 2 9.51832V23.6817C2 24.2456 2.31631 24.7799 2.82424 24.9969C4.52127 25.7237 6.21962 26 7.9171 26C13.3057 26 18.6943 23.2165 24.0829 23.2165C25.4343 23.2165 26.7849 23.3915 28.1363 23.829C28.2881 23.8781 28.4403 23.9014 28.5891 23.9014C29.342 23.9014 30 23.3067 30 22.4813V8.31832C29.9996 7.75404 29.6833 7.22011 29.1753 7.0027ZM27.8996 18.9487C26.7232 19.1005 25.7743 19.9893 25.5205 21.1576C25.048 21.1165 24.5773 21.0737 24.0825 21.0737C21.1268 21.0737 18.2581 21.8143 15.4844 22.5308C12.8437 23.213 10.3496 23.8572 7.9171 23.8572C7.56623 23.8572 7.22367 23.8429 6.88855 23.8152C6.82642 22.2871 5.60713 21.0648 4.1004 21.0648V13.1737C5.4597 13.1737 6.59105 12.1804 6.84524 10.8634C7.20136 10.8862 7.54873 10.9259 7.91753 10.9259C10.8732 10.9259 13.7414 10.1853 16.5151 9.46877C19.1554 8.78707 21.6496 8.14288 24.0825 8.14288C24.5567 8.14288 25.0108 8.1777 25.4571 8.22815C25.4943 9.65493 26.5451 10.8103 27.8996 10.9853V18.9487Z"
    fill="#D83B01" />
</svg>