<svg width="20" height="22" viewBox="0 0 20 22" fill="none" xmlns="http://www.w3.org/2000/svg">
  <path
    d="M11.4291 1.375V2.14328C14.6659 2.63785 17.1437 5.33672 17.1437 8.59375V10.0289C17.1437 11.9797 17.8357 13.8746 19.0992 15.4L19.7644 16.1992C20.0233 16.5086 20.0724 16.934 19.8938 17.2906C19.7153 17.6473 19.3403 17.875 18.9295 17.875H1.07149C0.659416 17.875 0.284174 17.6473 0.105772 17.2906C-0.072674 16.934 -0.0224929 16.5086 0.234841 16.1992L0.900499 15.4C2.16708 13.8746 2.85729 11.9797 2.85729 10.0289V8.59375C2.85729 5.33672 5.33509 2.63785 8.57186 2.14328V1.375C8.57186 0.615742 9.21029 0 10.0005 0C10.7907 0 11.4291 0.615742 11.4291 1.375ZM9.64334 4.125C7.08072 4.125 5.00026 6.12734 5.00026 8.59375V10.0289C5.00026 12.0871 4.38058 14.0938 3.22829 15.8125H16.7732C15.6213 14.0938 15.0007 12.0871 15.0007 10.0289V8.59375C15.0007 6.12734 12.9203 4.125 10.3577 4.125H9.64334ZM12.8578 19.25C12.8578 19.9418 12.5587 20.6809 12.0229 21.1965C11.4872 21.7121 10.7193 22 10.0005 22C9.24154 22 8.51382 21.7121 7.97808 21.1965C7.44234 20.6809 7.14322 19.9418 7.14322 19.25H12.8578Z"
    fill="#009EDA" />
</svg>