<svg width="19" height="21" viewBox="0 0 19 21" fill="none" xmlns="http://www.w3.org/2000/svg">
<g clip-path="url(#clip0_1224_69214)">
<path d="M10.6188 2.625C10.6188 1.90025 11.1934 1.3125 11.9045 1.3125H17.0474C17.7586 1.3125 18.3331 1.90025 18.3331 2.625V7.875C18.3331 8.60098 17.7586 9.1875 17.0474 9.1875C16.3362 9.1875 15.7617 8.60098 15.7617 7.875V5.79551L8.95544 12.7395C8.45321 13.2521 7.6416 13.2521 7.13937 12.7395C6.63714 12.2268 6.63714 11.3982 7.13937 10.8855L13.9416 3.9375H11.9045C11.1934 3.9375 10.6188 3.34975 10.6188 2.625Z" fill="currentColor"/>
<path opacity="0.4" d="M0.333008 5.25C0.333008 3.8001 1.48412 2.625 2.90444 2.625H6.76158C7.47274 2.625 8.04729 3.21275 8.04729 3.9375C8.04729 4.66348 7.47274 5.25 6.76158 5.25H2.90444V17.0625H14.4759V13.125C14.4759 12.399 15.0504 11.8125 15.7616 11.8125C16.4727 11.8125 17.0473 12.399 17.0473 13.125V17.0625C17.0473 18.5104 15.8942 19.6875 14.4759 19.6875H2.90444C1.48412 19.6875 0.333008 18.5104 0.333008 17.0625V5.25Z" fill="currentColor"/>
</g>
<defs>
<clipPath id="clip0_1224_69214">
<rect width="18" height="21" fill="white" transform="translate(0.333008)"/>
</clipPath>
</defs>
</svg>
