<svg width="16" height="16" viewBox="0 0 16 16" fill="none" xmlns="http://www.w3.org/2000/svg">
<path d="M6.33333 3.66669C6.33333 3.1144 6.78125 2.66669 7.33333 2.66669H8.66667C9.21875 2.66669 9.66667 3.1144 9.66667 3.66669V5.00002C9.66667 5.5521 9.21875 6.00002 8.66667 6.00002H7.33333C6.78125 6.00002 6.33333 5.5521 6.33333 5.00002V3.66669ZM4.33333 8.66669C4.88542 8.66669 5.33333 9.1146 5.33333 9.66669V11C5.33333 11.5521 4.88542 12 4.33333 12H3C2.44771 12 2 11.5521 2 11V9.66669C2 9.1146 2.44771 8.66669 3 8.66669H4.33333ZM8.66667 8.66669C9.21875 8.66669 9.66667 9.1146 9.66667 9.66669V11C9.66667 11.5521 9.21875 12 8.66667 12H7.33333C6.78125 12 6.33333 11.5521 6.33333 11V9.66669C6.33333 9.1146 6.78125 8.66669 7.33333 8.66669H8.66667ZM13 8.66669C13.5521 8.66669 14 9.1146 14 9.66669V11C14 11.5521 13.5521 12 13 12H11.6667C11.1146 12 10.6667 11.5521 10.6667 11V9.66669C10.6667 9.1146 11.1146 8.66669 11.6667 8.66669H13Z" fill="currentColor"/>
<path opacity="0.4" d="M4.33329 7.83333C4.24163 7.83333 4.16663 7.90833 4.16663 8V8.66667H3.16663V8C3.16663 7.35625 3.68892 6.83333 4.33329 6.83333H7.49996V6H8.49996V6.83333H11.6666C12.3104 6.83333 12.8333 7.35625 12.8333 8V8.66667H11.8333V8C11.8333 7.90833 11.7583 7.83333 11.6666 7.83333H8.49996V8.66667H7.49996V7.83333H4.33329Z" fill="currentColor"/>
</svg>
