<svg width="24" height="24" viewBox="0 0 24 24" fill="none" xmlns="http://www.w3.org/2000/svg">
<path d="M8.7 12.0588C11.1303 12.0588 13.1 10.0309 13.1 7.52941C13.1 5.02797 11.1303 3 8.7 3C6.26969 3 4.3 5.02797 4.3 7.52941C4.3 10.0309 6.26969 12.0588 8.7 12.0588ZM8.7 4.69853C10.2163 4.69853 11.45 5.96853 11.45 7.52941C11.45 9.09029 10.2163 10.3603 8.7 10.3603C7.18406 10.3603 5.95 9.08994 5.95 7.52941C5.95 5.96853 7.18406 4.69853 8.7 4.69853ZM10.4428 13.7574H6.95719C3.66784 13.7574 1 16.5033 1 19.8898C1 20.5692 1.5335 21.1176 2.19144 21.1176H15.2092C15.8672 21.1176 16.4 20.5692 16.4 19.8898C16.4 16.5033 13.7325 13.7574 10.4428 13.7574ZM2.67441 19.4191C2.90369 17.1933 4.73656 15.4559 6.95719 15.4559H10.4428C12.6638 15.4559 14.4681 17.1944 14.7259 19.4191H2.67441ZM22.175 10.0772H20.525V8.37868C20.525 7.91158 20.1572 7.52941 19.7 7.52941C19.2428 7.52941 18.875 7.90981 18.875 8.37868V10.0772H17.225C16.7713 10.0772 16.4 10.4594 16.4 10.9265C16.4 11.3936 16.7695 11.7757 17.225 11.7757H18.875V13.4743C18.875 13.9449 19.2463 14.3235 19.7 14.3235C20.1537 14.3235 20.525 13.9431 20.525 13.4743V11.7757H22.175C22.6322 11.7757 23 11.3971 23 10.9265C23 10.4558 22.6322 10.0772 22.175 10.0772Z" fill="currentColor"/>
</svg>
