<svg width="24" height="24" viewBox="0 0 24 24" fill="none" xmlns="http://www.w3.org/2000/svg">
<path d="M19.1394 10.4516L9.10831 20.4784L7.65011 19.0202L7.80066 18.8696H5.81767C5.43914 18.8696 5.12943 18.5599 5.12943 18.1814V16.1984L4.97931 16.349C4.77584 16.5554 4.62658 16.8049 4.54528 17.0802L3.5568 20.444L6.91885 19.4546C7.15543 19.3729 7.44363 19.2224 7.65011 19.0202L9.10831 20.4784C8.66096 20.9258 8.10606 21.257 7.49955 21.4333L2.32356 22.9561C1.96137 23.0636 1.56951 22.9647 1.30239 22.6593C1.03525 22.4313 0.935382 22.0398 1.04197 21.6742L2.56444 16.4995C2.74339 15.893 3.07159 15.3381 3.51938 14.8908L13.5475 4.86139L19.1394 10.4516ZM22.1935 3.50255C23.2688 4.57749 23.2688 6.32218 22.1935 7.39755L20.1115 9.47948L14.5196 3.88839L16.6015 1.80647C17.6769 0.731178 19.4233 0.731178 20.4987 1.80647L22.1935 3.50255Z" fill="currentColor"/>
</svg>
