<svg width="24" height="24" viewBox="0 0 24 24" fill="none" xmlns="http://www.w3.org/2000/svg">
<path d="M20.25 10.8571H18.1111V10.5714C18.1111 9.78214 18.7948 9.14286 19.6389 9.14286H19.9444C20.9566 9.14286 21.7778 8.375 21.7778 7.42857V5.71429C21.7778 4.76786 20.9566 4 19.9444 4H19.6389C15.7622 4 12.6111 6.94643 12.6111 10.5714V17.4286C12.6111 18.8464 13.8448 20 15.3611 20H20.25C21.7663 20 23 18.8464 23 17.4286V13.4286C23 12.0107 21.7663 10.8571 20.25 10.8571ZM21.1667 17.4286C21.1667 17.9 20.7542 18.2857 20.25 18.2857H15.3611C14.8569 18.2857 14.4444 17.9 14.4444 17.4286V10.5714C14.4444 7.89286 16.7743 5.71429 19.6389 5.71429H19.9444V7.42857H19.6389C17.7865 7.42857 16.2778 8.83929 16.2778 10.5714V12.5714H20.25C20.7542 12.5714 21.1667 12.9571 21.1667 13.4286V17.4286ZM8.63889 10.8571H6.5V10.5714C6.5 9.78214 7.18368 9.14286 8.02778 9.14286H8.33333C9.34549 9.14286 10.1667 8.375 10.1667 7.42857V5.71429C10.1667 4.76786 9.34549 4 8.33333 4H8.02778C4.15104 4 1 6.94643 1 10.5714V17.4286C1 18.8464 2.23368 20 3.75 20H8.63889C10.1552 20 11.3889 18.8464 11.3889 17.4286V13.4286C11.3889 12.0107 10.1552 10.8571 8.63889 10.8571ZM9.55556 17.4286C9.55556 17.9 9.14306 18.2857 8.63889 18.2857H3.75C3.24583 18.2857 2.83333 17.9 2.83333 17.4286V10.5714C2.83333 7.89286 5.16319 5.71429 8.02778 5.71429H8.33333V7.42857H8.02778C6.17535 7.42857 4.66667 8.83929 4.66667 10.5714V12.5714H8.63889C9.14306 12.5714 9.55556 12.9571 9.55556 13.4286V17.4286Z" fill="currentColor"/>
</svg>
