<svg width="24" height="24" viewBox="0 0 24 24" fill="none" xmlns="http://www.w3.org/2000/svg">
<path d="M12.2964 9.11172C12.6446 8.79612 12.6656 8.26164 12.3444 7.91852L8.91421 4.2591C8.59057 3.91387 7.97886 3.91387 7.65529 4.2591L4.22779 7.91641C3.90636 8.25946 3.92757 8.79391 4.27579 9.10961C4.441 9.26289 4.64957 9.33672 4.85707 9.33672C5.08811 9.33672 5.31814 9.24552 5.48636 9.06535L7.4285 6.9918V18.9062C7.4285 19.3703 7.81421 19.75 8.28564 19.75C8.75707 19.75 9.14279 19.3717 9.14279 18.9055V6.9918L11.0846 9.06426C11.4035 9.40703 11.9464 9.43164 12.2964 9.11172ZM19.1535 14.6383C18.8042 14.3194 18.2617 14.3425 17.9428 14.6855L15.9999 16.7582V4.84445C15.9999 4.37828 15.6178 4 15.1428 4C14.6678 4 14.2856 4.37828 14.2856 4.84445V16.7589L12.3439 14.6864C12.1753 14.5063 11.9453 14.4151 11.7146 14.4151C11.507 14.4151 11.2981 14.4887 11.1331 14.6392C10.7849 14.9548 10.7639 15.4893 11.0851 15.8324L14.4816 19.4922C14.8052 19.8374 15.4169 19.8374 15.7405 19.4922L19.1369 15.8324C19.5214 15.4891 19.4999 14.9547 19.1535 14.6383Z" fill="currentColor"/>
</svg>
