<svg width="24" height="24" viewBox="0 0 24 24" fill="none" xmlns="http://www.w3.org/2000/svg">
<path d="M15.1429 1.6V3.2C15.1429 3.53135 14.879 3.8 14.5536 3.8H1.58929C1.26385 3.8 1 3.53135 1 3.2V1.6C1 1.26865 1.26385 1 1.58929 1H14.5536C14.879 1 15.1429 1.26865 15.1429 1.6ZM1.58929 10.2H22.4107C22.7361 10.2 23 9.93135 23 9.6V8C23 7.66865 22.7361 7.4 22.4107 7.4H1.58929C1.26385 7.4 1 7.66865 1 8V9.6C1 9.93135 1.26385 10.2 1.58929 10.2ZM1.58929 23H22.4107C22.7361 23 23 22.7314 23 22.4V20.8C23 20.4687 22.7361 20.2 22.4107 20.2H1.58929C1.26385 20.2 1 20.4687 1 20.8V22.4C1 22.7314 1.26385 23 1.58929 23ZM14.5536 13.8H1.58929C1.26385 13.8 1 14.0687 1 14.4V16C1 16.3314 1.26385 16.6 1.58929 16.6H14.5536C14.879 16.6 15.1429 16.3314 15.1429 16V14.4C15.1429 14.0687 14.879 13.8 14.5536 13.8Z" fill="currentColor"/>
</svg>
