<svg width="24" height="24" viewBox="0 0 24 24" fill="none" xmlns="http://www.w3.org/2000/svg">
<path d="M11.9963 14.8571C14.1491 14.8571 15.8625 12.9864 15.8625 10.6786C15.8625 8.37071 14.1173 6.5 11.9963 6.5C9.84338 6.5 8.13 8.37071 8.13 10.6786C8.09625 12.9848 9.84375 14.8571 11.9963 14.8571ZM13.8713 16.1429H10.1288C7.185 16.1429 4.8 18.5415 4.8 21.4987C4.8 22.0933 5.27625 22.5714 5.865 22.5714H18.135C18.7238 22.5714 19.2 22.0933 19.2 21.4987C19.2 18.5415 16.815 16.1429 13.8713 16.1429ZM19.2 8.42857C20.8568 8.42857 22.2 6.98938 22.2 5.21429C22.2 3.4392 20.8575 2 19.2 2C17.5433 2 16.2 3.4392 16.2 5.21429C16.2 6.98938 17.5425 8.42857 19.2 8.42857ZM6.89625 10.6786C6.89625 10.4596 6.93309 10.2515 6.95659 10.0393C6.5475 9.79866 6.0975 9.71429 5.62125 9.71429H3.303C1.479 9.71429 0 11.3937 0 13.4629C0 13.8768 0.295763 14.2143 0.66075 14.2143H8.142C7.37625 13.258 6.89625 12.0326 6.89625 10.6786ZM4.8 8.42857C6.45675 8.42857 7.8 6.98938 7.8 5.21429C7.8 3.4392 6.4575 2 4.8 2C3.14325 2 1.8 3.4392 1.8 5.21429C1.8 6.98938 3.14325 8.42857 4.8 8.42857ZM20.6963 9.71429H18.3773C17.8973 9.71429 17.4443 9.83631 17.0325 10.0454C17.055 10.2567 17.0925 10.4616 17.0925 10.6786C17.0925 12.033 16.6133 13.2584 15.849 14.2143H23.3378C23.7038 14.2143 24 13.8768 24 13.4629C24 11.3937 22.5225 9.71429 20.6963 9.71429Z" fill="currentColor"/>
</svg>
