<svg width="24" height="25" viewBox="0 0 24 25" fill="none" xmlns="http://www.w3.org/2000/svg">
<path d="M5.4 8.5C7.0575 8.5 8.4 7.1575 8.4 5.5C8.4 3.8425 7.0575 2.5 5.4 2.5C3.7425 2.5 2.4 3.8425 2.4 5.5C2.4 7.1575 3.7425 8.5 5.4 8.5ZM19.2 8.5C20.8575 8.5 22.2 7.1575 22.2 5.5C22.2 3.8425 20.8575 2.5 19.2 2.5C17.5425 2.5 16.2 3.8425 16.2 5.5C16.2 7.1575 17.5425 8.5 19.2 8.5ZM0 13.7013C0 14.14 0.36 14.5 0.79875 14.5H8.80125C8.80875 14.5 8.81625 14.5 8.8275 14.5C7.83 13.6188 7.20375 12.3325 7.20375 10.9C7.20375 10.615 7.23 10.3375 7.275 10.0638C6.765 9.8275 6.19875 9.7 5.6025 9.7H4.00125C1.7925 9.7 0 11.4925 0 13.7013ZM12 14.5C12.9 14.5 13.7212 14.17 14.3512 13.6263C14.445 13.4875 14.5462 13.3525 14.6512 13.225C14.7525 13.1013 14.865 12.9963 14.9887 12.9138C15.375 12.3363 15.6 11.6463 15.6 10.9C15.6 8.9125 13.9875 7.3 12 7.3C10.0125 7.3 8.4 8.9125 8.4 10.9C8.4 12.8875 10.0125 14.5 12 14.5ZM14.4525 16.7575C14.0662 16.5363 13.7737 16.15 13.6725 15.7H9.79875C7.03875 15.7 4.8 17.9388 4.8 20.6987C4.8 21.25 5.24625 21.7 5.80125 21.7H17.07C16.9912 21.505 16.95 21.2913 16.95 21.085V20.9725C16.9012 20.9463 16.8487 20.9163 16.8 20.8862L16.7025 20.9425C16.0725 21.3062 15.1837 21.2425 14.6512 20.5788C14.4825 20.3688 14.3287 20.1475 14.1862 19.9188L14.1825 19.9113L14.1787 19.9038L14.0887 19.75L14.085 19.7425L14.0812 19.735C13.9537 19.5025 13.8412 19.2625 13.7437 19.0112C13.4362 18.2163 13.8262 17.4138 14.4562 17.05L14.5575 16.9938C14.5575 16.9638 14.5575 16.9375 14.5575 16.9075C14.5575 16.8775 14.5575 16.8513 14.5575 16.8212L14.4562 16.765L14.4525 16.7575ZM19.9987 9.7H18.4012C17.805 9.7 17.2387 9.83125 16.7287 10.0638C16.7775 10.3338 16.8 10.615 16.8 10.9C16.8 11.5525 16.6687 12.1713 16.4362 12.7375C16.53 12.7713 16.62 12.8125 16.7025 12.8612L16.8 12.9175C16.8487 12.8875 16.8975 12.8575 16.95 12.8313V12.7188C16.95 11.9913 17.4487 11.2525 18.2925 11.1213C18.5887 11.0763 18.8925 11.05 19.2 11.05C19.5075 11.05 19.8112 11.0725 20.1075 11.1213C20.9513 11.2525 21.45 11.9913 21.45 12.7188V12.8313C21.4987 12.8575 21.5512 12.8875 21.6 12.9175L21.6975 12.8612C22.3275 12.4975 23.2162 12.5613 23.7487 13.225C23.835 13.33 23.9175 13.4425 23.9963 13.5513C23.9175 11.41 22.1587 9.7 19.9987 9.7ZM23.4225 15.8463C23.6587 15.7113 23.7787 15.43 23.6775 15.1713C23.5987 14.965 23.505 14.7663 23.4 14.575L23.3137 14.425C23.1975 14.2338 23.07 14.0538 22.9312 13.8813C22.7587 13.6675 22.455 13.63 22.2187 13.7688L21.54 14.1625C21.2062 13.8775 20.8237 13.6525 20.4 13.5025V12.715C20.4 12.4412 20.2162 12.1975 19.9462 12.1562C19.7025 12.1188 19.455 12.1 19.2 12.1C18.945 12.1 18.6975 12.1188 18.4537 12.1562C18.1837 12.1975 18 12.4412 18 12.715V13.5025C17.58 13.6525 17.1937 13.8775 16.86 14.1625L16.1775 13.7688C15.9412 13.6338 15.6375 13.6713 15.465 13.8813C15.3262 14.0538 15.1987 14.2375 15.0825 14.4288L14.9962 14.575C14.8912 14.7663 14.7975 14.965 14.7187 15.1713C14.6212 15.4263 14.7375 15.7075 14.9737 15.8425L15.6562 16.2362C15.6187 16.45 15.5962 16.6713 15.5962 16.8963C15.5962 17.1213 15.6187 17.3425 15.6562 17.5525L14.9737 17.9462C14.7375 18.0813 14.6175 18.3625 14.7187 18.6175C14.7975 18.8237 14.8912 19.0188 14.9962 19.21L15.0862 19.3638C15.1987 19.555 15.3262 19.735 15.465 19.9075C15.6375 20.1213 15.9412 20.1588 16.1775 20.02L16.86 19.6375C17.1937 19.9225 17.58 20.1475 18 20.2975V21.085C18 21.3588 18.1837 21.6025 18.4537 21.6438C18.6975 21.6813 18.945 21.7 19.2 21.7C19.455 21.7 19.7025 21.6813 19.9462 21.6438C20.2162 21.6025 20.4 21.3588 20.4 21.085V20.2975C20.82 20.1475 21.2062 19.9225 21.54 19.6375L22.2225 20.0312C22.4587 20.1663 22.7625 20.1287 22.935 19.9188C23.0737 19.7463 23.2012 19.5662 23.3137 19.375L23.4037 19.2175C23.5087 19.0263 23.6025 18.8313 23.6812 18.625C23.7787 18.37 23.6625 18.0888 23.4262 17.9538L22.7437 17.56C22.7812 17.3463 22.8037 17.125 22.8037 16.9038C22.8037 16.6825 22.7812 16.4575 22.7437 16.2438L23.4262 15.85L23.4225 15.8463ZM20.7 16.9C20.7 17.7288 20.0287 18.4 19.2 18.4C18.3712 18.4 17.7 17.7288 17.7 16.9C17.7 16.0713 18.3712 15.4 19.2 15.4C20.0287 15.4 20.7 16.0713 20.7 16.9Z" fill="currentColor"/>
</svg>
