<svg width="32" height="32" viewBox="0 0 32 32" fill="none" xmlns="http://www.w3.org/2000/svg">
<path d="M17.6048 3.80033C18.239 4.08709 18.6471 4.71577 18.6471 5.41063V26.5871C18.6471 27.282 18.239 27.9107 17.6048 28.1974C16.9706 28.4842 16.2261 28.3684 15.7078 27.9052L8.2684 21.293H4.52942C2.58272 21.293 1 19.7103 1 17.7636V14.2342C1 12.2875 2.58272 10.7048 4.52942 10.7048H8.2684L15.7078 4.09261C16.2261 3.62937 16.9706 3.51908 17.6048 3.80033ZM27.0901 7.78196C29.4725 9.72314 31.0001 12.6845 31.0001 15.9989C31.0001 19.3132 29.4725 22.2746 27.0901 24.2158C26.5221 24.6791 25.6894 24.5908 25.2262 24.0228C24.7629 23.4548 24.8512 22.6221 25.4192 22.1588C27.2115 20.7029 28.353 18.486 28.353 15.9989C28.353 13.5118 27.2115 11.2948 25.4192 9.83343C24.8512 9.3702 24.7684 8.53747 25.2262 7.96946C25.6839 7.40144 26.5221 7.31872 27.0901 7.77644V7.78196ZM23.7537 11.8904C24.9394 12.861 25.7059 14.339 25.7059 15.9989C25.7059 17.6588 24.9394 19.1368 23.7537 20.1074C23.1857 20.5706 22.353 20.4824 21.8898 19.9143C21.4265 19.3463 21.5148 18.5136 22.0828 18.0504C22.6784 17.5651 23.0589 16.8261 23.0589 15.9989C23.0589 15.1717 22.6784 14.4327 22.0828 13.9419C21.5148 13.4787 21.432 12.6459 21.8898 12.0779C22.3475 11.5099 23.1857 11.4272 23.7537 11.8849V11.8904Z" fill="currentColor"/>
</svg>
