<svg width="25" height="25" viewBox="0 0 25 25" fill="none" xmlns="http://www.w3.org/2000/svg">
<path d="M15.7471 2.00578C16.2862 2.24953 16.6331 2.78391 16.6331 3.37453V21.3745C16.6331 21.9652 16.2862 22.4995 15.7471 22.7433C15.2081 22.987 14.5752 22.8886 14.1346 22.4948L7.81118 16.8745H4.63306C2.97837 16.8745 1.63306 15.5292 1.63306 13.8745V10.8745C1.63306 9.21984 2.97837 7.87453 4.63306 7.87453H7.81118L14.1346 2.25422C14.5752 1.86047 15.2081 1.76672 15.7471 2.00578ZM20.9737 8.88234C21.9815 9.70734 22.6331 10.9636 22.6331 12.3745C22.6331 13.7855 21.9815 15.0417 20.9737 15.8667C20.4909 16.2605 19.7831 16.1855 19.3893 15.7027C18.9956 15.2198 19.0706 14.512 19.5534 14.1183C20.0596 13.7058 20.3831 13.0777 20.3831 12.3745C20.3831 11.6714 20.0596 11.0433 19.5534 10.6261C19.0706 10.2323 19.0002 9.52453 19.3893 9.04172C19.7784 8.55891 20.4909 8.48859 20.9737 8.87766V8.88234Z" fill="currentColor"/>
</svg>
