<svg width="20" height="20" viewBox="0 0 20 20" fill="none" xmlns="http://www.w3.org/2000/svg">
<path d="M9.17969 5.35156C9.17969 4.89697 9.54541 4.53125 10 4.53125C10.4546 4.53125 10.8203 4.89697 10.8203 5.35156V9.5625L13.7358 11.5039C14.1118 11.7568 14.2144 12.2661 13.9341 12.6421C13.7119 13.0181 13.2026 13.1206 12.8267 12.8403L9.54541 10.6528C9.31641 10.5298 9.17969 10.2734 9.17969 9.96924V5.35156ZM10 1.25C14.833 1.25 18.75 5.16699 18.75 10C18.75 14.833 14.833 18.75 10 18.75C5.16699 18.75 1.25 14.833 1.25 10C1.25 5.16699 5.16699 1.25 10 1.25ZM2.89062 10C2.89062 13.9272 6.07275 17.1094 10 17.1094C13.9272 17.1094 17.1094 13.9272 17.1094 10C17.1094 6.07275 13.9272 2.89062 10 2.89062C6.07275 2.89062 2.89062 6.07275 2.89062 10Z" fill="currentColor"/>
</svg>
