<svg width="24" height="25" viewBox="0 0 24 25" fill="none" xmlns="http://www.w3.org/2000/svg">
<path d="M9.21133 11.125C9.21133 10.3636 8.59516 9.74828 7.83633 9.74828L7.1875 9.75C5.66898 9.75 4.4375 10.9815 4.4375 12.5034V14.5569C4.4375 16.0793 5.6707 17.3125 7.1875 17.3125H7.875C8.63383 17.3125 9.25 16.6955 9.25 15.9349L9.21133 11.125ZM12 1.5C5.85117 1.5 1.19693 6.61758 1.00089 12.5L1 14.2188C1 14.7902 1.46191 15.25 1.99258 15.25C2.52324 15.25 3.0625 14.7902 3.0625 14.2188V12.5C3.0625 7.57148 7.0732 3.57109 12 3.57109C16.9285 3.57109 20.9375 7.57148 20.9375 12.5V18.6875C20.9375 19.6367 20.1679 20.4062 19.2188 20.4062H14.4621C14.1055 19.7918 13.448 19.375 12.6875 19.375H11.3898C10.3925 19.375 9.47773 20.0492 9.28996 21.0289C9.03516 22.3484 10.0406 23.5 11.2738 23.5H12.6875C13.4489 23.5 14.1068 23.0827 14.4638 22.4688H19.2188C21.307 22.4688 23 20.7758 23 18.6875V12.5C22.8023 6.61758 18.1488 1.5 12 1.5ZM16.8125 17.3125C18.331 17.3125 19.5625 16.0793 19.5625 14.5569V12.5043C19.5625 10.9832 18.3293 9.75 16.8125 9.75H16.125C15.3662 9.75 14.75 10.3662 14.75 11.1267V15.9332C14.75 16.698 15.3645 17.3125 16.125 17.3125H16.8125Z" fill="currentColor"/>
</svg>
