<svg width="14" height="12" viewBox="0 0 14 12" fill="none" xmlns="http://www.w3.org/2000/svg">
<path d="M13.7064 6.70654L8.70644 11.7065C8.51269 11.9034 8.25644 12.0003 8.00019 12.0003C7.74394 12.0003 7.48832 11.9026 7.29332 11.7073C6.90269 11.3167 6.90269 10.6839 7.29332 10.2933L10.5877 7.00029H1.00019C0.448007 7.00029 0.000244141 6.55342 0.000244141 6.00029C0.000244141 5.44717 0.448007 5.00029 1.00019 5.00029H10.5877L7.29394 1.70654C6.90332 1.31592 6.90332 0.683105 7.29394 0.29248C7.68457 -0.0981445 8.31738 -0.0981445 8.70801 0.29248L13.708 5.29248C14.0971 5.68467 14.0971 6.31592 13.7064 6.70654Z" fill="#009EDA"/>
</svg>
