<svg width="24" height="25" viewBox="0 0 24 25" fill="none" xmlns="http://www.w3.org/2000/svg">
<g clip-path="url(#clip0_502_47999)">
<path d="M11.9962 14.5C14.1491 14.5 15.8625 12.754 15.8625 10.6C15.8625 8.446 14.1172 6.7 11.9962 6.7C9.84337 6.7 8.13 8.446 8.13 10.6C8.09625 12.7525 9.84375 14.5 11.9962 14.5ZM11.9962 7.9C13.4842 7.9 14.6947 9.11125 14.6947 10.6C14.6947 12.0888 13.4812 13.3 11.9962 13.3C10.5112 13.3 9.29625 12.0888 9.29625 10.6C9.29625 9.11125 10.5075 7.9 11.9962 7.9ZM18.6 9.7C18.195 9.7 17.7982 9.78783 17.4199 9.96141C17.1296 10.0946 16.965 10.4305 17.077 10.7294C17.2021 11.0625 17.5836 11.2124 17.8968 11.0627C18.1237 10.9563 18.36 10.9 18.6 10.9H21.0405C21.6649 10.9 22.212 11.254 22.5236 11.785C22.635 11.9763 22.83 12.1 23.0512 12.1C23.517 12.1 23.7986 11.5945 23.565 11.1918C23.0437 10.2663 22.11 9.7 21.0412 9.7H18.6ZM19.2 8.5C20.8567 8.5 22.2 7.15675 22.2 5.5C22.2 3.84325 20.8575 2.5 19.2 2.5C17.5432 2.5 16.2 3.84325 16.2 5.5C16.2 7.15675 17.5425 8.5 19.2 8.5ZM19.2 3.7C20.1926 3.7 21 4.50738 21 5.5C21 6.49263 20.1937 7.3 19.2 7.3C18.2062 7.3 17.4 6.49263 17.4 5.5C17.4 4.50738 18.2062 3.7 19.2 3.7ZM23.4187 17.395L23.043 17.1765C23.0565 16.993 23.0565 16.8097 23.043 16.6267L23.4004 16.4181C23.7321 16.2394 23.8943 15.8451 23.7829 15.4724C23.5702 14.7966 23.2039 14.164 22.7299 13.6518C22.4785 13.3699 22.0579 13.3043 21.7309 13.4924L21.3565 13.7086C21.2048 13.6061 21.0465 13.5147 20.8825 13.435V12.9663C20.8825 12.5841 20.6112 12.2545 20.2536 12.1851C19.5558 12.0281 18.8245 12.0293 18.1581 12.1816C17.7861 12.2537 17.5154 12.5836 17.5154 12.9661V13.4015C17.3513 13.4812 17.1925 13.5726 17.0406 13.6751L16.675 13.4648C16.3545 13.2714 15.9351 13.3306 15.6719 13.6095C15.1875 14.1663 14.8237 14.8 14.6137 15.4788C14.5048 15.8432 14.6577 16.2265 14.977 16.4061L15.3543 16.6258C15.342 16.8081 15.342 16.9909 15.3543 17.173L14.9962 17.3837C14.6605 17.5642 14.5042 17.9496 14.616 18.3258C14.8216 18.9936 15.1867 19.627 15.6776 20.1621C15.9348 20.4352 16.3425 20.4961 16.6642 20.3098L17.0426 20.0924C17.1938 20.1949 17.3526 20.2864 17.5166 20.3661V20.8014C17.5166 21.1839 17.7873 21.5139 18.1429 21.5826C18.495 21.6288 18.8512 21.7 19.2075 21.7C19.5591 21.7 19.908 21.6619 20.2384 21.5857C20.6122 21.5131 20.8834 21.1834 20.8834 20.8012V20.3666C21.0474 20.2869 21.2057 20.1955 21.3574 20.093L21.7207 20.3027C22.0511 20.5008 22.4748 20.4369 22.7238 20.158C23.2049 19.6375 23.5709 19.0049 23.7862 18.3213C23.895 17.9575 23.7337 17.5638 23.4187 17.395ZM21.81 16.42C21.8692 16.7352 21.8692 17.068 21.81 17.3834L21.7315 17.8L22.5332 18.2665C22.4096 18.5647 22.2455 18.847 22.0465 19.1058L21.2485 18.6445L20.9256 18.9187C20.6748 19.132 20.3924 19.2956 20.086 19.4032L19.6851 19.5444V20.4696C19.3687 20.5106 19.0443 20.5106 18.7184 20.4684V19.5451L18.3183 19.4033C18.0118 19.2955 17.7288 19.1321 17.4786 18.9188L17.157 18.6452L16.3552 19.1065C16.1542 18.8463 15.9896 18.562 15.8688 18.2661L16.6612 17.8L16.5874 17.3875C16.5306 17.0688 16.5306 16.7313 16.5874 16.4125L16.6612 16L15.8655 15.5358C15.9874 15.2364 16.152 14.9515 16.3507 14.695L17.1536 15.1566L17.4753 14.883C17.7255 14.6697 18.0085 14.5061 18.3149 14.3985L18.715 14.2567V13.3337C19.0303 13.2904 19.3548 13.291 19.6818 13.3355V14.2588L20.0827 14.4C20.3891 14.5078 20.6714 14.6713 20.9223 14.8845L21.2451 15.1587L22.0439 14.6974C22.2425 14.9546 22.4072 15.2382 22.5303 15.5359L21.7285 16.0028L21.81 16.42ZM4.8 8.5C6.45675 8.5 7.8 7.15675 7.8 5.5C7.8 3.84325 6.4575 2.5 4.8 2.5C3.14325 2.5 1.8 3.84325 1.8 5.5C1.8 7.15675 3.14325 8.5 4.8 8.5ZM4.8 3.7C5.79262 3.7 6.6 4.50738 6.6 5.5C6.6 6.49263 5.79375 7.3 4.8 7.3C3.80625 7.3 3 6.49375 3 5.5C3 4.50625 3.80625 3.7 4.8 3.7ZM14.4 20.5H6.0075C6.12079 18.4971 7.92712 16.9 10.0987 16.9H12.6C12.9313 16.9 13.2 16.6314 13.2 16.3C13.2 15.9686 12.9313 15.7 12.6 15.7H10.1287C7.185 15.7 4.8 17.9388 4.8 20.6987C4.8 21.2537 5.27625 21.7 5.865 21.7H14.4C14.7313 21.7 15 21.4314 15 21.1C15 20.77 14.73 20.5 14.4 20.5ZM19.2 15.1C18.2074 15.1 17.4 15.9074 17.4 16.9C17.4 17.8926 18.2074 18.7 19.2 18.7C20.1926 18.7 21 17.8926 21 16.9C21 15.9074 20.1937 15.1 19.2 15.1ZM19.2 17.5C18.8689 17.5 18.6 17.2311 18.6 16.9C18.6 16.569 18.8689 16.3 19.2 16.3C19.531 16.3 19.8 16.569 19.8 16.9C19.8 17.2311 19.53 17.5 19.2 17.5ZM6.105 11.0613C6.40267 11.2036 6.76237 11.0753 6.90412 10.7765C7.04651 10.4776 6.91877 10.1195 6.61935 9.97735C6.22875 9.79375 5.82 9.7 5.4 9.7H2.9595C1.32787 9.7 0 11.0913 0 12.8013V13.3C0 13.6316 0.26835 13.9 0.6 13.9C0.93165 13.9 1.2 13.63 1.2 13.3V12.8013C1.2 11.7513 1.98937 10.9 2.9595 10.9H5.4C5.64 10.9 5.87625 10.9563 6.105 11.0613Z" fill="currentColor"/>
</g>
<defs>
<clipPath id="clip0_502_47999">
<rect width="24" height="19.2" fill="white" transform="translate(0 2.5)"/>
</clipPath>
</defs>
</svg>
