<svg width="24" height="24" viewBox="0 0 24 24" fill="none" xmlns="http://www.w3.org/2000/svg">
<path d="M12 1C5.92422 1 1 5.92422 1 12C1 18.0758 5.92422 23 12 23C18.0758 23 23 18.0758 23 12C23 5.92422 18.0758 1 12 1ZM12 6.5C13.7089 6.5 15.0938 7.88531 15.0938 9.59375C15.0938 11.3022 13.7102 12.6875 12 12.6875C10.2916 12.6875 8.90625 11.3022 8.90625 9.59375C8.90625 7.88531 10.2898 6.5 12 6.5ZM12 20.25C9.72566 20.25 7.66445 19.3249 6.16914 17.8313C6.86523 16.0348 8.58398 14.75 10.625 14.75H13.375C15.4177 14.75 17.1365 16.0339 17.8309 17.8313C16.3355 19.3262 14.273 20.25 12 20.25Z" fill="currentColor"/>
</svg>
