<svg width="16" height="17" viewBox="0 0 16 17" fill="none" xmlns="http://www.w3.org/2000/svg">
<path d="M14.6801 13.6311L11.407 10.3584C12.1513 9.25358 12.5186 7.87314 12.322 6.4022C11.9867 3.90024 9.93594 1.86417 7.43124 1.5471C3.70728 1.07593 0.575865 4.20701 1.04711 7.93055C1.3643 10.4361 3.40087 12.4883 5.90338 12.8218C7.37448 13.0184 8.75534 12.6513 9.86003 11.907L13.1331 15.1797C13.5602 15.6068 14.2528 15.6068 14.6799 15.1797C15.1067 14.7521 15.1067 14.0576 14.6801 13.6311ZM3.16287 7.18688C3.16287 5.25717 4.73295 3.68726 6.66288 3.68726C8.59281 3.68726 10.1629 5.25717 10.1629 7.18688C10.1629 9.1166 8.59281 10.6865 6.66288 10.6865C4.73295 10.6865 3.16287 9.11715 3.16287 7.18688Z" fill="currentColor"/>
</svg>
