<svg width="24" height="24" viewBox="0 0 24 24" fill="none" xmlns="http://www.w3.org/2000/svg">
<path d="M1.5 12C1.5 6.20039 6.20039 1.5 12 1.5C17.7996 1.5 22.5 6.20039 22.5 12C22.5 17.7996 17.7996 22.5 12 22.5C6.20039 22.5 1.5 17.7996 1.5 12ZM16.7496 10.1871C17.1967 9.74004 17.1967 9.00996 16.7496 8.56289C16.3025 8.11582 15.5725 8.11582 15.1254 8.56289L10.6875 13.0008L8.87461 11.1879C8.42754 10.7408 7.69746 10.7408 7.25039 11.1879C6.80332 11.635 6.80332 12.365 7.25039 12.8121L9.87539 15.4371C10.3225 15.8842 11.0525 15.8842 11.4996 15.4371L16.7496 10.1871Z" fill="currentColor"/>
</svg>