<svg width="32" height="32" viewBox="0 0 32 32" fill="none" xmlns="http://www.w3.org/2000/svg">
<path d="M16 31C24.2852 31 31 24.2852 31 16C31 7.71484 24.2852 1 16 1C7.71484 1 1 7.71484 1 16C1 24.2852 7.71484 31 16 31ZM17.4062 22.0938C17.4062 22.8672 16.7734 23.5 16 23.5C15.2266 23.5 14.5938 22.8701 14.5938 22.0938L14.5938 14.5937C14.5938 13.8174 15.2236 13.1875 16 13.1875C16.7764 13.1875 17.4062 13.8145 17.4062 14.5938V22.0938ZM16 7.5625C17.0172 7.5625 17.8422 8.3875 17.8422 9.40469C17.8422 10.4219 17.0178 11.2469 16 11.2469C14.9822 11.2469 14.1578 10.4219 14.1578 9.40469C14.1602 8.38867 14.9805 7.5625 16 7.5625Z" fill="currentColor"/>
</svg>
