<svg width="32" height="32" viewBox="0 0 32 32" fill="none" xmlns="http://www.w3.org/2000/svg">
<g clip-path="url(#clip0_734_137188)">
<path d="M15.7791 9.929C15.9333 10.2915 15.8125 10.6707 15.5208 10.9707L14.5958 11.7957C14.6416 12.079 14.6666 12.3707 14.6666 12.629C14.6666 12.9623 14.6416 13.254 14.5958 13.5373L15.5208 14.3623C15.8125 14.6248 15.9333 15.004 15.7791 15.404C15.6833 15.5873 15.5791 15.8415 15.4625 16.0498L15.3333 16.2748C15.1708 16.4832 15.0708 16.6832 14.925 16.879C14.6875 17.1957 14.2708 17.2998 13.8958 17.1748L12.7166 16.7873C12.2708 17.1582 11.7625 17.454 11.2083 17.6623L10.9208 18.8707C10.875 19.2582 10.575 19.5665 10.1833 19.6165C9.90413 19.6498 9.6208 19.6665 9.3333 19.6665C9.0458 19.6665 8.76247 19.6498 8.4833 19.6165C8.09163 19.5665 7.75413 19.2582 7.7083 18.8707L7.4208 17.6623C6.90413 17.454 6.3958 17.1582 5.94788 16.7873L4.77205 17.1748C4.39747 17.2998 3.97997 17.1957 3.74247 16.879C3.59497 16.6832 3.45747 16.479 3.3308 16.2707L3.20497 16.0498C3.08872 15.8415 2.98297 15.6248 2.88847 15.404C2.73413 15.004 2.85238 14.6248 3.14663 14.3623L4.0708 13.5373C4.02413 13.254 3.96247 12.9623 3.96247 12.629C3.96247 12.3707 4.02413 12.079 4.0708 11.7957L3.14663 10.9707C2.85238 10.6707 2.73413 10.2915 2.88847 9.929C2.98297 9.67067 3.08872 9.49109 3.20455 9.2815L3.33122 9.06275C3.45747 8.85234 3.59497 8.649 3.74247 8.45359C3.97997 8.139 4.39747 8.03442 4.77205 8.15775L5.94788 8.54525C6.3958 8.17692 6.90413 7.88025 7.4208 7.67275L7.7083 6.4615C7.75413 6.07484 8.09163 5.76525 8.4833 5.7178C8.76247 5.68392 9.0458 5.6665 9.3333 5.6665C9.6208 5.6665 9.90413 5.68392 10.1833 5.71775C10.575 5.76525 10.875 6.07484 10.9208 6.4615L11.2083 7.67275C11.7625 7.88025 12.2708 8.17692 12.7166 8.54525L13.8958 8.15775C14.2708 8.03442 14.6875 8.139 14.925 8.45359C15.0708 8.64817 15.1708 8.85067 15.3333 9.05984L15.4625 9.28442C15.5791 9.49317 15.6833 9.70817 15.7791 9.929ZM9.3333 14.629C10.4375 14.629 11.3333 13.7707 11.3333 12.629C11.3333 11.5623 10.4375 10.629 9.3333 10.629C8.22913 10.629 7.3333 11.5623 7.3333 12.629C7.3333 13.7707 8.22913 14.629 9.3333 14.629Z" fill="currentColor"/>
<path opacity="0.4" d="M24.7375 26.4458C24.3375 26.6 23.9583 26.4791 23.6958 26.1875L22.8708 25.2625C22.5875 25.3083 22.2958 25.3333 22 25.3333C21.7042 25.3333 21.4125 25.3083 21.1292 25.2625L20.3042 26.1875C20.0042 26.4791 19.625 26.6 19.2625 26.4458C19.0417 26.35 18.825 26.2458 18.6167 26.1291L18.3917 26C18.1833 25.8375 17.9833 25.7375 17.7875 25.5916C17.4708 25.3541 17.3667 24.9375 17.4917 24.5625L17.8792 23.3833C17.5083 22.9375 17.2125 22.4291 17.0042 21.875L15.7958 21.5875C15.4083 21.5416 15.1 21.2416 15.05 20.85C15.0167 20.5708 15 20.2875 15 20C15 19.7125 15.0167 19.4291 15.05 19.15C15.1 18.7583 15.4083 18.4208 15.7958 18.375L17.0042 18.0875C17.2125 17.5708 17.5083 17.0625 17.8792 16.6166L17.4917 15.4375C17.3667 15.0625 17.4708 14.6458 17.7875 14.4083C17.9833 14.2625 18.1875 14.0875 18.3958 13.9958L18.6167 13.8708C18.825 13.7541 19.0042 13.65 19.2625 13.5541C19.625 13.4 20.0042 13.5208 20.3042 13.8125L21.1292 14.7375C21.4125 14.6916 21.7042 14.6666 22 14.6666C22.2958 14.6666 22.5875 14.6916 22.8708 14.7375L23.6958 13.8125C23.9583 13.5208 24.3375 13.4 24.7375 13.5541C24.9583 13.65 25.175 13.7541 25.3833 13.8708L25.6042 13.9958C25.8125 14.0875 26.0167 14.2625 26.2125 14.4083C26.5292 14.6458 26.6333 15.0625 26.5083 15.4375L26.1208 16.6166C26.4917 17.0625 26.7875 17.5708 26.9958 18.0875L28.2042 18.375C28.5917 18.4208 28.9 18.7583 28.95 19.15C28.9833 19.4291 29 19.7125 29 20C29 20.2875 28.9833 20.5708 28.95 20.85C28.9 21.2416 28.5917 21.5416 28.2042 21.5875L26.9958 21.875C26.7875 22.4291 26.4917 22.9375 26.1208 23.3833L26.5083 24.5625C26.6333 24.9375 26.5292 25.3541 26.2125 25.5916C26.0167 25.7375 25.8167 25.8375 25.6083 26L25.3833 26.1291C25.175 26.2458 24.9208 26.35 24.7375 26.4458ZM20 20C20 21.1041 20.8958 22 22 22C23.1042 22 24 21.1041 24 20C24 18.8958 23.1042 18 22 18C20.8958 18 20 18.8958 20 20Z" fill="currentColor"/>
</g>
<defs>
<clipPath id="clip0_734_137188">
<rect width="26.6667" height="21.3333" fill="white" transform="translate(2.66675 5.33325)"/>
</clipPath>
</defs>
</svg>
