<svg width="24" height="24" viewBox="0 0 24 24" fill="none" xmlns="http://www.w3.org/2000/svg">
<path d="M17.0391 20.6532C17.4844 21.0235 18.1078 21.1078 18.6375 20.8594C19.1672 20.611 19.5 20.0813 19.5 19.5V4.50003C19.5 3.91878 19.1625 3.38909 18.6375 3.14065C18.1125 2.89221 17.4891 2.9719 17.0391 3.3469L8.03906 10.8469L7.5 11.2969V4.50003C7.5 3.67034 6.82969 3.00003 6 3.00003C5.17031 3.00003 4.5 3.67034 4.5 4.50003V19.5C4.5 20.3297 5.17031 21 6 21C6.82969 21 7.5 20.3297 7.5 19.5V12.7032L8.03906 13.1532L17.0391 20.6532Z" fill="currentColor"/>
</svg>
