<svg width="23" height="23" viewBox="0 0 23 23" fill="none" xmlns="http://www.w3.org/2000/svg">
  <g clip-path="url(#clip0_8365_17567)">
    <path
      d="M14.7924 14.7922C14.239 15.3456 13.3447 15.3456 12.7914 14.7922L9.50203 11.5471L7.00073 14.0839C6.44734 14.6372 5.55307 14.6372 4.99969 14.0839C4.44542 13.5305 4.44542 12.6362 4.99969 12.0828L8.54135 8.54115C9.09474 7.98776 9.98901 7.98776 10.5424 8.54115L13.7919 11.7862L16.333 9.24948L14.8588 7.77526C14.2302 7.14661 14.7039 6 15.6468 6H20.521C21.1098 6 21.5835 6.4737 21.5835 7.0625V11.9367C21.5835 12.8797 20.4369 13.3534 19.7684 12.6849L18.3341 11.2505L14.7924 14.7922Z"
      fill="#107C10" />
    <path opacity="0.4"
      d="M1.75016 1.75C2.53243 1.75 3.16683 2.3844 3.16683 3.16667V18.0417C3.16683 18.4312 3.48381 18.75 3.87516 18.75H21.5835C22.3671 18.75 23.0002 19.3831 23.0002 20.1667C23.0002 20.9503 22.3671 21.5833 21.5835 21.5833H3.87516C1.91928 21.5833 0.333496 19.9984 0.333496 18.0417V3.16667C0.333496 2.3844 0.967897 1.75 1.75016 1.75Z"
      fill="#323130" />
  </g>
  <defs>
    <clipPath id="clip0_8365_17567">
      <rect width="22.6667" height="22.6667" fill="white" transform="translate(0.333496 0.333333)" />
    </clipPath>
  </defs>
</svg>