<svg width="18" height="24" viewBox="0 0 18 24" fill="none" xmlns="http://www.w3.org/2000/svg">
<path d="M3 0C1.34531 0 0 1.34531 0 3V21C0 22.6547 1.34531 24 3 24H15C16.6547 24 18 22.6547 18 21V7.5H12C11.1703 7.5 10.5 6.82969 10.5 6V0H3ZM12 0V6H18L12 0ZM3 10.5H4.125C5.57344 10.5 6.75 11.6766 6.75 13.125C6.75 14.5734 5.57344 15.75 4.125 15.75H3.75V17.25C3.75 17.6625 3.4125 18 3 18C2.5875 18 2.25 17.6625 2.25 17.25V15V11.25C2.25 10.8375 2.5875 10.5 3 10.5ZM4.125 14.25C4.74844 14.25 5.25 13.7484 5.25 13.125C5.25 12.5016 4.74844 12 4.125 12H3.75V14.25H4.125ZM7.5 11.25C7.5 10.8375 7.8375 10.5 8.25 10.5H9.375C10.6172 10.5 11.625 11.5078 11.625 12.75V15.75C11.625 16.9922 10.6172 18 9.375 18H8.25C7.8375 18 7.5 17.6625 7.5 17.25V11.25ZM9 16.5H9.375C9.7875 16.5 10.125 16.1625 10.125 15.75V12.75C10.125 12.3375 9.7875 12 9.375 12H9V16.5ZM13.5 10.5H15.75C16.1625 10.5 16.5 10.8375 16.5 11.25C16.5 11.6625 16.1625 12 15.75 12H14.25V13.5H15.75C16.1625 13.5 16.5 13.8375 16.5 14.25C16.5 14.6625 16.1625 15 15.75 15H14.25V17.25C14.25 17.6625 13.9125 18 13.5 18C13.0875 18 12.75 17.6625 12.75 17.25V14.25V11.25C12.75 10.8375 13.0875 10.5 13.5 10.5Z" fill="currentColor"/>
</svg>
