<svg width="24" height="24" viewBox="0 0 24 24" fill="none" xmlns="http://www.w3.org/2000/svg">
<path d="M16.125 12C16.125 12.9539 16.0734 13.8734 15.9832 14.75H8.0168C7.92656 13.8734 7.83633 12.9539 7.83633 12C7.83633 11.0461 7.92656 10.1266 8.0168 9.25H15.9832C16.0734 10.1266 16.125 11.0461 16.125 12ZM22.652 9.25C22.8797 10.1309 23 11.0504 23 12C23 12.9496 22.8797 13.8691 22.652 14.75H17.3625C17.4527 13.8648 17.5 12.9066 17.5 12C17.5 11.0547 17.4527 10.1352 17.3625 9.25H22.652ZM22.2008 7.875H17.1863C16.7566 5.13102 15.9059 2.83133 14.8102 1.36274C18.1789 2.24996 20.9117 4.69273 22.2008 7.875ZM15.7941 7.875H8.20586C8.46797 6.31094 8.87187 4.92648 9.36602 3.80801C9.81719 2.79352 10.3199 2.05746 10.8055 1.5934C11.2867 1.13655 11.6863 1 12 1C12.3137 1 12.7133 1.13655 13.1945 1.5934C13.6801 2.05746 14.1828 2.79352 14.634 3.80801C15.1281 4.92648 15.532 6.31094 15.7941 7.875ZM1.79965 7.875C3.08785 4.69273 5.82109 2.24996 9.18984 1.36274C8.09414 2.83133 7.24336 5.13102 6.81367 7.875H1.79965ZM6.6375 9.25C6.54727 10.1352 6.46133 11.0547 6.46133 12C6.46133 12.9066 6.54727 13.8648 6.6375 14.75H1.34654C1.12031 13.8691 1 12.9496 1 12C1 11.0504 1.12031 10.1309 1.34654 9.25H6.6375ZM9.36602 20.1898C8.87187 19.0727 8.46797 17.6891 8.20586 16.125H15.7941C15.532 17.6891 15.1281 19.0727 14.634 20.1898C14.1828 21.2082 13.6801 21.943 13.1945 22.407C12.7133 22.8625 12.3137 23 11.9613 23C11.6863 23 11.2867 22.8625 10.8055 22.407C10.3199 21.943 9.81719 21.2082 9.36602 20.1898ZM9.18984 22.6391C5.82109 21.7496 3.08785 19.309 1.79965 16.125H6.81367C7.24336 18.8707 8.09414 21.1695 9.18984 22.6391ZM14.8102 22.6391C15.9059 21.1695 16.7566 18.8707 17.1863 16.125H22.2008C20.9117 19.309 18.1789 21.7496 14.8102 22.6391Z" fill="currentColor"/>
</svg>
