<svg width="24" height="24" viewBox="0 0 24 24" fill="none" xmlns="http://www.w3.org/2000/svg">
<path d="M7.5 4.96875C7.5 3.88137 8.38242 3 9.46875 3H14.5312C15.6176 3 16.5 3.88137 16.5 4.96875V19.875H7.5V4.96875ZM9.1875 6.375H14.8125V4.96875C14.8125 4.81336 14.6859 4.6875 14.5312 4.6875H9.46875C9.31406 4.6875 9.1875 4.81336 9.1875 4.96875V6.375ZM5.25 6.375H6.375V19.875H5.25C4.00723 19.875 3 18.866 3 17.625V8.625C3 7.38398 4.00723 6.375 5.25 6.375ZM18.75 19.875H17.625V6.375H18.75C19.991 6.375 21 7.38398 21 8.625V17.625C21 18.866 19.991 19.875 18.75 19.875Z" fill="currentColor"/>
</svg>
