<svg width="32" height="27" viewBox="0 0 32 27" fill="none" xmlns="http://www.w3.org/2000/svg">
<path d="M1.6 21.6H2.4V23.2C2.4 24.085 3.115 24.8 4 24.8H4.8C5.685 24.8 6.4 24.085 6.4 23.2V21.6H9.6V18.4C9.6 16.76 10.425 15.31 11.68 14.445L12.495 12H10.4V5.60005H14.8C15.465 5.60005 16 6.13505 16 6.80005V7.62005C16.66 7.35005 17.385 7.20005 18.13 7.20005H19.2V4.52505C19.2 3.71505 18.74 2.97505 18.015 2.61005C15.64 1.42005 13.015 0.800049 10.355 0.800049H8.845C6.185 0.800049 3.56 1.42005 1.185 2.61005C0.46 2.97005 0 3.71005 0 4.52505V20C0 20.885 0.715 21.6 1.6 21.6ZM4.4 5.60005H8.8V12H4.4C3.735 12 3.2 11.465 3.2 10.8V6.80005C3.2 6.13505 3.735 5.60005 4.4 5.60005ZM4.8 18C4.135 18 3.6 17.465 3.6 16.8C3.6 16.135 4.135 15.6 4.8 15.6C5.465 15.6 6 16.135 6 16.8C6 17.465 5.465 18 4.8 18ZM18.13 12H25.07C25.415 12 25.72 12.22 25.83 12.545L26.715 15.2H16.485L17.37 12.545C17.48 12.22 17.785 12 18.13 12ZM14.335 11.535L13.005 15.52C11.94 16.035 11.2 17.13 11.2 18.4V23.2V24.8C11.2 25.685 11.915 26.4 12.8 26.4H13.6C14.485 26.4 15.2 25.685 15.2 24.8V23.2H28V24.8C28 25.685 28.715 26.4 29.6 26.4H30.4C31.285 26.4 32 25.685 32 24.8V23.2V18.4C32 17.13 31.26 16.035 30.195 15.52L28.865 11.535C28.32 9.90005 26.79 8.80005 25.07 8.80005H18.13C16.41 8.80005 14.88 9.90005 14.335 11.535ZM15.2 20.4C14.535 20.4 14 19.865 14 19.2C14 18.535 14.535 18 15.2 18C15.865 18 16.4 18.535 16.4 19.2C16.4 19.865 15.865 20.4 15.2 20.4ZM29.2 19.2C29.2 19.865 28.665 20.4 28 20.4C27.335 20.4 26.8 19.865 26.8 19.2C26.8 18.535 27.335 18 28 18C28.665 18 29.2 18.535 29.2 19.2Z" fill="currentColor"/>
</svg>
