<svg width="32" height="32" viewBox="0 0 32 32" fill="none" xmlns="http://www.w3.org/2000/svg">
<path d="M19.75 1C20.7871 1 21.625 1.83965 21.625 2.875V4.75V4.75879C23.8867 4.88535 25.8613 6.36074 26.6172 8.51758L28.6797 14.4063C30.0391 14.9688 31 16.3105 31 17.875V29.125C31 30.1621 30.1621 31 29.125 31H27.25C26.2129 31 25.375 30.1621 25.375 29.125V26.3125H6.625V29.125C6.625 30.1621 5.78711 31 4.75 31H2.875C1.83965 31 1 30.1621 1 29.125V17.875C1 16.3105 1.95859 14.9688 3.3209 14.4063L5.38281 8.51758C6.13867 6.36074 8.11328 4.88535 10.375 4.75879V4.75V2.875C10.375 1.83965 11.2129 1 12.25 1H19.75ZM10.6914 8.5C9.89453 8.5 9.18555 9.00391 8.92187 9.75391L7.39258 14.125H24.6074L23.0781 9.75391C22.8145 9.00391 22.1055 8.5 21.3086 8.5H10.6914ZM6.625 21.625C7.66211 21.625 8.5 20.7871 8.5 19.75C8.5 18.7129 7.66211 17.875 6.625 17.875C5.58789 17.875 4.75 18.7129 4.75 19.75C4.75 20.7871 5.58789 21.625 6.625 21.625ZM25.375 17.875C24.3379 17.875 23.5 18.7129 23.5 19.75C23.5 20.7871 24.3379 21.625 25.375 21.625C26.4121 21.625 27.25 20.7871 27.25 19.75C27.25 18.7129 26.4121 17.875 25.375 17.875Z" fill="currentColor"/>
</svg>
