<svg width="24" height="32" viewBox="0 0 24 32" fill="none"
    xmlns="http://www.w3.org/2000/svg">
    <path d="M20 4H17.5H16.9C16.4375 1.71875 14.4187 0 12 0C9.58125 0 7.5625 1.71875 7.1 4H6.5H4C1.79375 4 0 5.79375 0 8V28C0 30.2062 1.79375 32 4 32H20C22.2062 32 24 30.2062 24 28V8C24 5.79375 22.2062 4 20 4ZM5 7V8.5C5 9.33125 5.66875 10 6.5 10H12H17.5C18.3312 10 19 9.33125 19 8.5V7H20C20.55 7 21 7.45 21 8V28C21 28.55 20.55 29 20 29H4C3.45 29 3 28.55 3 28V8C3 7.45 3.45 7 4 7H5ZM10.5 5C10.5 4.60218 10.658 4.22064 10.9393 3.93934C11.2206 3.65804 11.6022 3.5 12 3.5C12.3978 3.5 12.7794 3.65804 13.0607 3.93934C13.342 4.22064 13.5 4.60218 13.5 5C13.5 5.39782 13.342 5.77936 13.0607 6.06066C12.7794 6.34196 12.3978 6.5 12 6.5C11.6022 6.5 11.2206 6.34196 10.9393 6.06066C10.658 5.77936 10.5 5.39782 10.5 5ZM10.7063 14.7063C11.0938 14.3188 11.0938 13.6812 10.7063 13.2937C10.3188 12.9062 9.68125 12.9062 9.29375 13.2937L7 15.5875L6.20625 14.7937C5.81875 14.4062 5.18125 14.4062 4.79375 14.7937C4.40625 15.1812 4.40625 15.8187 4.79375 16.2062L6.29375 17.7062C6.68125 18.0938 7.31875 18.0938 7.70625 17.7062L10.7063 14.7063ZM12 17C12 17.55 12.45 18 13 18H17C17.55 18 18 17.55 18 17C18 16.45 17.55 16 17 16H13C12.45 16 12 16.45 12 17ZM10 23C10 23.55 10.45 24 11 24H17C17.55 24 18 23.55 18 23C18 22.45 17.55 22 17 22H11C10.45 22 10 22.45 10 23ZM7 24.5C7.39782 24.5 7.77936 24.342 8.06066 24.0607C8.34196 23.7794 8.5 23.3978 8.5 23C8.5 22.6022 8.34196 22.2206 8.06066 21.9393C7.77936 21.658 7.39782 21.5 7 21.5C6.60218 21.5 6.22064 21.658 5.93934 21.9393C5.65804 22.2206 5.5 22.6022 5.5 23C5.5 23.3978 5.65804 23.7794 5.93934 24.0607C6.22064 24.342 6.60218 24.5 7 24.5Z" fill="currentColor"/>
</svg>
