<svg width="24" height="20" viewBox="0 0 24 20" fill="none" xmlns="http://www.w3.org/2000/svg">
<g clip-path="url(#clip0_502_47980)">
<path d="M22.3913 12.675H22.0912V12.375C22.0912 11.505 21.42 10.8 20.55 10.8H19.05C18.1815 10.8 17.475 11.5065 17.475 12.375V12.675H17.175C16.305 12.675 15.6 13.38 15.6 14.25V15.75C15.6 16.6185 16.3065 17.325 17.1413 17.325H17.4413V17.625C17.4413 18.4935 18.1478 19.2 19.0163 19.2H20.5163C21.3848 19.2 22.0575 18.4935 22.0575 17.625V17.325H22.3575C23.295 17.325 24 16.62 24 15.75V14.25C24 13.38 23.295 12.675 22.3913 12.675ZM22.8 15.75C22.8 15.957 22.6321 16.125 22.425 16.125H20.925V17.625C20.925 17.832 20.7572 18 20.5838 18H19.0837C18.8767 18 18.7087 17.832 18.7087 17.625V16.125H17.2087C16.9688 16.125 16.8 15.9563 16.8 15.75V14.25C16.8 14.0429 16.968 13.875 17.1413 13.875H18.6413V12.375C18.6413 12.1679 18.8092 12 19.0163 12H20.5163C20.7234 12 20.8575 12.1679 20.8575 12.375V13.875H22.3575C22.6313 13.875 22.8 14.0438 22.8 14.25V15.75ZM18.6 7.2C18.195 7.2 17.7983 7.28783 17.4199 7.46141C17.1296 7.59457 16.965 7.93054 17.077 8.22941C17.2021 8.56253 17.5836 8.71241 17.8968 8.56275C18.1238 8.45625 18.36 8.4 18.6 8.4H21.0405C21.6649 8.4 22.212 8.75396 22.5236 9.285C22.635 9.47625 22.83 9.6 23.0513 9.6C23.517 9.6 23.7986 9.0945 23.565 8.69175C23.0438 7.76625 22.11 7.2 21.0413 7.2H18.6ZM19.2 6C20.8568 6 22.2 4.65675 22.2 3C22.2 1.34325 20.8575 0 19.2 0C17.5433 0 16.2 1.34325 16.2 3C16.2 4.65675 17.5425 6 19.2 6ZM19.2 1.2C20.1926 1.2 21 2.00738 21 3C21 3.99263 20.1938 4.8 19.2 4.8C18.2063 4.8 17.4 3.99263 17.4 3C17.4 2.00738 18.2063 1.2 19.2 1.2ZM15 18H6.0075C6.12079 15.9971 7.92712 14.4 10.0988 14.4H13.8C14.1314 14.4 14.4 14.1314 14.4 13.8C14.4 13.4686 14.1314 13.2 13.8 13.2H10.1288C7.185 13.2 4.8 15.4388 4.8 18.1987C4.8 18.7537 5.27625 19.2 5.865 19.2H15C15.3314 19.2 15.6 18.9314 15.6 18.6C15.6 18.27 15.33 18 15 18ZM6.105 8.56125C6.40268 8.70364 6.76238 8.57531 6.90413 8.27647C7.04651 7.97764 6.91877 7.61948 6.61935 7.47735C6.22875 7.29375 5.82 7.2 5.4 7.2H2.9595C1.32788 7.2 0 8.59125 0 10.3013V10.8C0 11.1316 0.26835 11.4 0.6 11.4C0.93165 11.4 1.2 11.13 1.2 10.8V10.3013C1.2 9.25125 1.98937 8.4 2.9595 8.4H5.4C5.64 8.4 5.87625 8.45625 6.105 8.56125ZM4.8 6C6.45675 6 7.8 4.65675 7.8 3C7.8 1.34325 6.4575 0 4.8 0C3.14325 0 1.8 1.34325 1.8 3C1.8 4.65675 3.14325 6 4.8 6ZM4.8 1.2C5.79263 1.2 6.6 2.00738 6.6 3C6.6 3.99263 5.79375 4.8 4.8 4.8C3.80625 4.8 3 3.99375 3 3C3 2.00625 3.80625 1.2 4.8 1.2ZM11.9963 12C14.1491 12 15.8625 10.254 15.8625 8.1C15.8625 5.946 14.1173 4.2 11.9963 4.2C9.84338 4.2 8.13 5.946 8.13 8.1C8.09625 10.2525 9.84375 12 11.9963 12ZM11.9963 5.4C13.4843 5.4 14.6947 6.61125 14.6947 8.1C14.6947 9.58875 13.4812 10.8 11.9963 10.8C10.5113 10.8 9.29625 9.58875 9.29625 8.1C9.29625 6.61125 10.5075 5.4 11.9963 5.4Z" fill="currentColor"/>
</g>
<defs>
<clipPath id="clip0_502_47980">
<rect width="24" height="19.2" fill="white"/>
</clipPath>
</defs>
</svg>
