<svg width="24" height="24" viewBox="0 0 24 24" fill="none" xmlns="http://www.w3.org/2000/svg">
<path d="M7.54314 5.92857C6.40203 5.92857 5.47701 6.88795 5.47701 8.07143C5.47701 9.25491 6.40203 10.2143 7.54314 10.2143C8.68425 10.2143 9.60927 9.25491 9.60927 8.07143C9.60927 6.88795 8.68382 5.92857 7.54314 5.92857ZM20.2456 2H3.71649C2.23361 2 1 3.27902 1 4.85714V19.1429C1 20.721 2.23322 22 3.7161 22H20.2452C21.7668 22 23 20.721 23 19.1429V4.85714C23.0004 3.27902 21.8038 2 20.2456 2ZM20.9343 18.8438L15.0458 10.5446C14.9382 10.3393 14.6928 10.2143 14.4302 10.2143C14.1671 10.2143 13.9215 10.3379 13.7755 10.5437L9.18701 16.9767L7.59049 14.9187C7.44238 14.7277 7.20593 14.6147 6.95473 14.6147C6.70326 14.6147 6.46703 14.7276 6.31853 14.9187L3.06782 19.1067C3.06782 19.1053 3.06782 19.108 3.06782 19.1067L3.06609 4.85714C3.06609 4.4633 3.37507 4.14286 3.7548 4.14286H20.2839C20.6636 4.14286 20.9726 4.4633 20.9726 4.85714V18.8438H20.9343Z" fill="#201F1E"/>
</svg>
