<svg width="24" height="24" viewBox="0 0 24 24" fill="none" xmlns="http://www.w3.org/2000/svg">
<path d="M6.62969 6.68777C8.6538 4.32345 12.0176 4.32345 14.0417 6.68777C15.8619 8.81433 16.1313 12.2041 14.6351 14.6496L14.5951 14.7177C14.2201 15.3259 13.492 15.4705 12.9714 15.0324C12.4472 14.5943 12.3234 13.7437 12.6984 13.1355L12.7384 13.0675C13.5721 11.7022 13.441 9.83508 12.4253 8.64846C11.2822 7.31297 9.42194 7.31297 8.27519 8.64846L4.19058 13.4247C3.04346 14.7262 3.04346 16.9336 4.19058 18.2733C5.20263 19.4599 6.80444 19.613 7.96939 18.6391L8.02764 18.554C8.55187 18.1542 9.27996 18.2946 9.65129 18.907C10.0263 19.5195 9.90612 20.3701 9.38189 20.8082L9.32365 20.8549C7.19761 22.603 4.36168 22.3223 2.54181 20.2C0.486065 17.7969 0.486065 13.9011 2.54181 11.5023L6.62969 6.68777ZM17.3691 17.2738C15.3122 19.6768 11.9812 19.6768 9.92432 17.2738C8.10409 15.1472 7.86746 11.7958 9.36369 9.35022L9.40374 9.28217C9.74594 8.67398 10.474 8.52937 11.0274 8.96744C11.5516 9.36724 11.6754 10.2179 11.3004 10.8643L11.2604 10.9324C10.4267 12.2594 10.5578 14.1648 11.5735 15.3514C12.7166 16.6869 14.5769 16.6869 15.7236 15.3514L19.8082 10.5751C20.955 9.23539 20.955 7.02802 19.8082 5.72656C18.7962 4.54121 17.1944 4.3864 16.0294 5.36079L15.9712 5.40757C15.4469 5.84565 14.7188 5.66701 14.3475 5.09199C13.9725 4.48039 14.0927 3.63019 14.6169 3.19339L14.6751 3.14576C16.7684 1.39819 19.6371 1.67545 21.4573 3.80159C23.5142 6.20291 23.5142 10.0988 21.4573 12.4975L17.3691 17.2738Z" fill="#201F1E"/>
</svg>
