<svg width="25" height="24" viewBox="0 0 25 24" fill="none" xmlns="http://www.w3.org/2000/svg">
<path d="M22.9821 6.10714H7.4463C7.16031 6.10714 6.92844 5.86728 6.92844 5.57143V4.14286C6.92844 3.84701 7.16031 3.60714 7.4463 3.60714H22.9821C23.2681 3.60714 23.5 3.84701 23.5 4.14286V5.57143C23.5 5.86728 23.2681 6.10714 22.9821 6.10714ZM23.5 12.7143V11.2857C23.5 10.9899 23.2681 10.75 22.9821 10.75H7.4463C7.16031 10.75 6.92844 10.9899 6.92844 11.2857V12.7143C6.92844 13.0101 7.16031 13.25 7.4463 13.25H22.9821C23.2681 13.25 23.5 13.0101 23.5 12.7143ZM23.5 19.8571V18.4286C23.5 18.1327 23.2681 17.8929 22.9821 17.8929H7.4463C7.16031 17.8929 6.92844 18.1327 6.92844 18.4286V19.8571C6.92844 20.153 7.16031 20.3929 7.4463 20.3929H22.9821C23.2681 20.3929 23.5 20.153 23.5 19.8571ZM1.5454 7.19768C1.5454 7.53147 1.71444 7.71429 2.04483 7.71429H4.94887C5.27922 7.71429 5.44826 7.53147 5.44826 7.19768V6.80031C5.44826 6.46652 5.27922 6.28371 4.94887 6.28371H4.28044V2.51661C4.28044 2.17482 4.10381 2 3.77341 2H3.25098C2.98976 2 2.82072 2.07152 2.62868 2.25433L1.69139 3.14442C1.45326 3.37491 1.43786 3.63719 1.66835 3.87563L1.90648 4.15379C2.12924 4.40018 2.39051 4.39223 2.58255 4.20147C2.62868 4.15379 2.70545 4.0346 2.70545 4.0346H2.72081C2.72081 4.0346 2.69777 4.27299 2.69777 4.50348V6.28375H2.04483C1.71444 6.28375 1.5454 6.46652 1.5454 6.80036V7.19768ZM1.5 14.349C1.5 14.6773 1.71914 14.8571 2.02144 14.8571H4.95336C5.27827 14.8571 5.4521 14.6773 5.4521 14.349V13.9582C5.4521 13.6298 5.27827 13.45 4.95336 13.45H3.26819C3.35131 12.981 5.36894 12.6214 5.36894 10.9095C5.36894 9.61183 4.28838 9.14281 3.44958 9.14281C2.5277 9.14281 1.99115 9.58839 1.70399 9.97924C1.51506 10.2294 1.57556 10.4639 1.82496 10.6671L2.19519 10.972C2.43703 11.1753 2.67127 11.0815 2.89046 10.8626C3.01889 10.7375 3.16246 10.6906 3.29849 10.6906C3.44202 10.6906 3.69897 10.761 3.69897 11.0815C3.69897 11.6521 1.5 12.0586 1.5 14.1692V14.349ZM1.76191 21.5779C2.09438 21.7889 2.59308 22 3.311 22C4.78454 22 5.40416 20.9838 5.40416 20.0301C5.40416 19.3891 5.01123 18.7012 4.16491 18.4745L4.92052 17.5755C5.07924 17.3801 5.1397 17.2003 5.1397 16.9424V16.7938C5.1397 16.4655 4.97343 16.2857 4.64851 16.2857H2.12463C1.79967 16.2857 1.63339 16.4577 1.63339 16.7938V17.1847C1.63339 17.513 1.79967 17.6928 2.12463 17.6928H2.68379C3.04651 17.6928 3.22789 17.6459 3.22789 17.6459V17.6615C3.22789 17.6615 2.99364 17.8882 2.69894 18.2634L2.45709 18.5761C2.28327 18.8028 2.2304 19.0295 2.33622 19.2406L2.38153 19.3266C2.51005 19.5846 2.65358 19.6783 2.91052 19.6783H3.11456C3.56035 19.6783 3.8022 19.7878 3.8022 20.0849C3.8022 20.2959 3.62081 20.4523 3.18257 20.4523C2.97849 20.4523 2.77446 20.4054 2.56291 20.3116C2.28331 20.1396 2.05661 20.1552 1.89038 20.4523L1.64858 20.8666C1.48986 21.1401 1.51251 21.3903 1.76191 21.5779Z" fill="#201F1E"/>
</svg>
