<svg width="24" height="24" viewBox="0 0 24 24" fill="none" xmlns="http://www.w3.org/2000/svg">
<path d="M5.125 5.07692C5.125 6.22399 4.2016 7.15385 3.0625 7.15385C1.9234 7.15385 1 6.22399 1 5.07692C1 3.92986 1.9234 3 3.0625 3C4.2016 3 5.125 3.92986 5.125 5.07692ZM3.0625 9.92308C1.9234 9.92308 1 10.8529 1 12C1 13.1471 1.9234 14.0769 3.0625 14.0769C4.2016 14.0769 5.125 13.1471 5.125 12C5.125 10.8529 4.2016 9.92308 3.0625 9.92308ZM3.0625 16.8462C1.9234 16.8462 1 17.776 1 18.9231C1 20.0701 1.9234 21 3.0625 21C4.2016 21 5.125 20.0701 5.125 18.9231C5.125 17.776 4.2016 16.8462 3.0625 16.8462ZM23 5.76923V4.38462C23 4.09787 22.7691 3.86538 22.4844 3.86538H7.01562C6.73087 3.86538 6.5 4.09787 6.5 4.38462V5.76923C6.5 6.05598 6.73087 6.28846 7.01562 6.28846H22.4844C22.7691 6.28846 23 6.05598 23 5.76923ZM23 12.6923V11.3077C23 11.0209 22.7691 10.7885 22.4844 10.7885H7.01562C6.73087 10.7885 6.5 11.0209 6.5 11.3077V12.6923C6.5 12.9791 6.73087 13.2115 7.01562 13.2115H22.4844C22.7691 13.2115 23 12.9791 23 12.6923ZM23 19.6154V18.2308C23 17.944 22.7691 17.7115 22.4844 17.7115H7.01562C6.73087 17.7115 6.5 17.944 6.5 18.2308V19.6154C6.5 19.9021 6.73087 20.1346 7.01562 20.1346H22.4844C22.7691 20.1346 23 19.9021 23 19.6154Z" fill="#201F1E"/>
</svg>
