<svg width="24" height="24" viewBox="0 0 24 24" fill="none" xmlns="http://www.w3.org/2000/svg">
<path d="M8.63889 4H3.75C2.23368 4 1 5.15357 1 6.57143V10.5714C1 11.9893 2.23368 13.1429 3.75 13.1429H5.88889V13.4286C5.88889 14.2179 5.20521 14.8571 4.36111 14.8571H4.05556C3.0434 14.8571 2.22222 15.625 2.22222 16.5714V18.2857C2.22222 19.2321 3.0434 20 4.05556 20H4.36111C8.23785 20 11.3889 17.0536 11.3889 13.4286V6.57143C11.3889 5.15357 10.1552 4 8.63889 4ZM9.55556 13.4286C9.55556 16.1071 7.22569 18.2857 4.36111 18.2857H4.05556V16.5714H4.36111C6.21354 16.5714 7.72222 15.1607 7.72222 13.4286V11.4286H3.75C3.24583 11.4286 2.83333 11.0429 2.83333 10.5714V6.57143C2.83333 6.1 3.24583 5.71429 3.75 5.71429H8.63889C9.14306 5.71429 9.55556 6.1 9.55556 6.57143V13.4286ZM20.25 4H15.3611C13.8448 4 12.6111 5.15357 12.6111 6.57143V10.5714C12.6111 11.9893 13.8448 13.1429 15.3611 13.1429H17.5V13.4286C17.5 14.2179 16.8163 14.8571 15.9722 14.8571H15.6667C14.6545 14.8571 13.8333 15.625 13.8333 16.5714V18.2857C13.8333 19.2321 14.6545 20 15.6667 20H15.9722C19.849 20 23 17.0536 23 13.4286V6.57143C23 5.15357 21.7663 4 20.25 4ZM21.1667 13.4286C21.1667 16.1071 18.8368 18.2857 15.9722 18.2857H15.6667V16.5714H15.9722C17.8247 16.5714 19.3333 15.1607 19.3333 13.4286V11.4286H15.3611C14.8569 11.4286 14.4444 11.0429 14.4444 10.5714V6.57143C14.4444 6.1 14.8569 5.71429 15.3611 5.71429H20.25C20.7542 5.71429 21.1667 6.1 21.1667 6.57143V13.4286Z" fill="#201F1E"/>
</svg>
